Rasa-Bold.ufo
<glyph name="dollar" format="1">
  <advance width="1232"/>
  <unicode hex="0024"/>
  <outline>
    <contour>
      <point x="475" y="51" type="line"/>
      <point x="475" y="-209" type="line"/>
      <point x="672" y="-209" type="line"/>
      <point x="672" y="51" type="line"/>
    </contour>
    <contour>
      <point x="570" y="1331" type="line"/>
      <point x="767" y="1331" type="line"/>
      <point x="767" y="1591" type="line"/>
      <point x="570" y="1591" type="line"/>
    </contour>
    <contour>
      <point x="1156" y="423" type="curve" smooth="yes"/>
      <point x="1156" y="621"/>
      <point x="999" y="727"/>
      <point x="767" y="837" type="curve" smooth="yes"/>
      <point x="589" y="920"/>
      <point x="449" y="968"/>
      <point x="449" y="1088" type="curve" smooth="yes"/>
      <point x="449" y="1165"/>
      <point x="507" y="1221"/>
      <point x="620" y="1221" type="curve" smooth="yes"/>
      <point x="677" y="1221"/>
      <point x="730" y="1209"/>
      <point x="762" y="1185" type="curve" smooth="yes"/>
      <point x="785" y="1168"/>
      <point x="794" y="1149"/>
      <point x="801" y="1116" type="curve" smooth="yes"/>
      <point x="843" y="925" type="line"/>
      <point x="1049" y="925" type="line"/>
      <point x="1069" y="1040"/>
      <point x="1079" y="1174"/>
      <point x="1069" y="1291" type="curve"/>
      <point x="956" y="1334"/>
      <point x="791" y="1364"/>
      <point x="643" y="1364" type="curve" smooth="yes"/>
      <point x="285" y="1364"/>
      <point x="111" y="1188"/>
      <point x="111" y="978" type="curve" smooth="yes"/>
      <point x="111" y="773"/>
      <point x="278" y="672"/>
      <point x="478" y="578" type="curve" smooth="yes"/>
      <point x="653" y="497"/>
      <point x="800" y="439"/>
      <point x="800" y="314" type="curve" smooth="yes"/>
      <point x="800" y="226"/>
      <point x="728" y="167"/>
      <point x="612" y="167" type="curve" smooth="yes"/>
      <point x="523" y="167"/>
      <point x="453" y="200"/>
      <point x="416" y="231" type="curve" smooth="yes"/>
      <point x="396" y="248"/>
      <point x="383" y="264"/>
      <point x="377" y="296" type="curve" smooth="yes"/>
      <point x="339" y="510" type="line"/>
      <point x="127" y="510" type="line"/>
      <point x="107" y="407"/>
      <point x="94" y="251"/>
      <point x="101" y="121" type="curve"/>
      <point x="220" y="68"/>
      <point x="402" y="16"/>
      <point x="600" y="16" type="curve" smooth="yes"/>
      <point x="1000" y="16"/>
      <point x="1156" y="225"/>
    </contour>
  </outline>
</glyph>
<glyph name="quotesingle" format="1">
  <advance width="543"/>
  <unicode hex="0027"/>
  <outline>
    <contour>
      <point x="164" y="852" type="line"/>
      <point x="378" y="852" type="line"/>
      <point x="431" y="1729" type="line"/>
      <point x="112" y="1729" type="line"/>
    </contour>
  </outline>
</glyph>
<glyph name="parenright" format="1">
  <advance width="747"/>
  <unicode hex="0029"/>
  <outline>
    <contour>
      <point x="668" y="779" type="curve" smooth="yes"/>
      <point x="668" y="1569"/>
      <point x="234" y="1951"/>
      <point x="145" y="2028" type="curve"/>
      <point x="35" y="1914" type="line"/>
      <point x="131" y="1747"/>
      <point x="338" y="1405"/>
      <point x="336" y="753" type="curve" smooth="yes"/>
      <point x="335" y="152"/>
      <point x="136" y="-188"/>
      <point x="35" y="-352" type="curve"/>
      <point x="145" y="-466" type="line"/>
      <point x="251" y="-389"/>
      <point x="668" y="48"/>
    </contour>
  </outline>
</glyph>
<glyph name="asterisk" format="1">
  <advance width="1218"/>
  <unicode hex="002A"/>
  <outline>
    <contour>
      <point x="657" y="1373" type="line"/>
      <point x="732" y="1635" type="line"/>
      <point x="750" y="1789" type="line"/>
      <point x="468" y="1789" type="line"/>
      <point x="486" y="1635" type="line"/>
      <point x="561" y="1373" type="line"/>
      <point x="561" y="1210" type="line"/>
      <point x="486" y="947" type="line"/>
      <point x="468" y="793" type="line"/>
      <point x="750" y="793" type="line"/>
      <point x="732" y="947" type="line"/>
      <point x="657" y="1210" type="line"/>
    </contour>
    <contour>
      <point x="561" y="1373" type="line"/>
      <point x="372" y="1569" type="line"/>
      <point x="248" y="1662" type="line"/>
      <point x="107" y="1418" type="line"/>
      <point x="250" y="1357" type="line"/>
      <point x="514" y="1291" type="line"/>
      <point x="657" y="1210" type="line"/>
      <point x="846" y="1013" type="line"/>
      <point x="970" y="920" type="line"/>
      <point x="1111" y="1164" type="line"/>
      <point x="968" y="1225" type="line"/>
      <point x="704" y="1291" type="line"/>
    </contour>
    <contour>
      <point x="704" y="1291" type="line"/>
      <point x="968" y="1357" type="line"/>
      <point x="1111" y="1418" type="line"/>
      <point x="970" y="1662" type="line"/>
      <point x="846" y="1569" type="line"/>
      <point x="657" y="1373" type="line"/>
      <point x="514" y="1291" type="line"/>
      <point x="250" y="1225" type="line"/>
      <point x="107" y="1164" type="line"/>
      <point x="248" y="920" type="line"/>
      <point x="372" y="1013" type="line"/>
      <point x="561" y="1210" type="line"/>
    </contour>
  </outline>
</glyph>
<glyph name="comma" format="1">
  <advance width="621"/>
  <unicode hex="002C"/>
  <outline>
    <contour>
      <point x="332" y="-370"/>
      <point x="519" y="-165"/>
      <point x="519" y="82" type="curve" smooth="yes"/>
      <point x="519" y="259"/>
      <point x="427" y="364"/>
      <point x="294" y="364" type="curve" smooth="yes"/>
      <point x="182" y="364"/>
      <point x="103" y="288"/>
      <point x="103" y="176" type="curve" smooth="yes"/>
      <point x="103" y="98"/>
      <point x="143" y="48"/>
      <point x="186" y="17" type="curve" smooth="yes"/>
      <point x="223" y="-10"/>
      <point x="254" y="-15"/>
      <point x="254" y="-74" type="curve" smooth="yes"/>
      <point x="254" y="-171"/>
      <point x="175" y="-289"/>
      <point x="74" y="-385" type="curve"/>
      <point x="143" y="-473" type="line"/>
    </contour>
  </outline>
</glyph>
<glyph name="slash" format="1">
  <advance width="1035"/>
  <unicode hex="002F"/>
  <outline>
    <contour>
      <point x="338" y="-288" type="line"/>
      <point x="982" y="1742" type="line"/>
      <point x="700" y="1742" type="line"/>
      <point x="55" y="-288" type="line"/>
    </contour>
  </outline>
</glyph>
<glyph name="zero" format="1">
  <advance width="1395"/>
  <unicode hex="0030"/>
  <outline>
    <contour>
      <point x="508" y="741" type="curve" smooth="yes"/>
      <point x="508" y="294"/>
      <point x="563" y="125"/>
      <point x="702" y="125" type="curve" smooth="yes"/>
      <point x="825" y="125"/>
      <point x="887" y="261"/>
      <point x="887" y="645" type="curve" smooth="yes"/>
      <point x="887" y="1091"/>
      <point x="832" y="1257"/>
      <point x="693" y="1257" type="curve" smooth="yes"/>
      <point x="569" y="1257"/>
      <point x="508" y="1123"/>
    </contour>
    <contour>
      <point x="111" y="676" type="curve" smooth="yes"/>
      <point x="111" y="1185"/>
      <point x="362" y="1412"/>
      <point x="717" y="1412" type="curve" smooth="yes"/>
      <point x="1136" y="1412"/>
      <point x="1284" y="1118"/>
      <point x="1284" y="709" type="curve" smooth="yes"/>
      <point x="1284" y="198"/>
      <point x="1033" y="-31"/>
      <point x="678" y="-31" type="curve" smooth="yes"/>
      <point x="258" y="-31"/>
      <point x="111" y="267"/>
    </contour>
  </outline>
</glyph>
<glyph name="four" format="1">
  <advance width="1272"/>
  <unicode hex="0034"/>
  <outline>
    <contour>
      <point x="84" y="241" type="line"/>
      <point x="1226" y="241" type="line"/>
      <point x="1226" y="460" type="line"/>
      <point x="140" y="403" type="line"/>
      <point x="189" y="340" type="line"/>
      <point x="472" y="496"/>
      <point x="631" y="787"/>
      <point x="904" y="1321" type="curve"/>
      <point x="854" y="1384" type="line"/>
      <point x="542" y="1384" type="line"/>
      <point x="379" y="1027"/>
      <point x="209" y="701"/>
      <point x="15" y="395" type="curve"/>
    </contour>
    <contour>
      <point x="684" y="0" type="line"/>
      <point x="1014" y="0" type="line"/>
      <point x="1014" y="753" type="line"/>
      <point x="723" y="738" type="line"/>
      <point x="684" y="409" type="line"/>
    </contour>
  </outline>
</glyph>
<glyph name="five" format="1">
  <advance width="1197"/>
  <unicode hex="0035"/>
  <outline>
    <contour>
      <point x="151" y="295" type="curve"/>
      <point x="58" y="168" type="line"/>
      <point x="158" y="44"/>
      <point x="339" y="-32"/>
      <point x="537" y="-32" type="curve" smooth="yes"/>
      <point x="857" y="-32"/>
      <point x="1112" y="165"/>
      <point x="1112" y="474" type="curve" smooth="yes"/>
      <point x="1112" y="734"/>
      <point x="933" y="901"/>
      <point x="659" y="901" type="curve" smooth="yes"/>
      <point x="563" y="901"/>
      <point x="453" y="881"/>
      <point x="368" y="809" type="curve"/>
      <point x="412" y="1122" type="line"/>
      <point x="1005" y="1122" type="line"/>
      <point x="1034" y="1381" type="line"/>
      <point x="211" y="1381" type="line"/>
      <point x="158" y="700" type="line"/>
      <point x="274" y="623" type="line"/>
      <point x="344" y="657"/>
      <point x="409" y="688"/>
      <point x="488" y="688" type="curve" smooth="yes"/>
      <point x="633" y="688"/>
      <point x="720" y="590"/>
      <point x="720" y="445" type="curve" smooth="yes"/>
      <point x="720" y="284"/>
      <point x="609" y="182"/>
      <point x="448" y="182" type="curve" smooth="yes"/>
      <point x="340" y="182"/>
      <point x="235" y="227"/>
    </contour>
  </outline>
</glyph>
<glyph name="six" format="1">
  <advance width="1295"/>
  <unicode hex="0036"/>
  <outline>
    <contour>
      <point x="672" y="-32" type="curve" smooth="yes"/>
      <point x="1015" y="-32"/>
      <point x="1215" y="184"/>
      <point x="1215" y="473" type="curve" smooth="yes"/>
      <point x="1215" y="726"/>
      <point x="1061" y="904"/>
      <point x="809" y="904" type="curve" smooth="yes"/>
      <point x="632" y="904"/>
      <point x="478" y="817"/>
      <point x="441" y="721" type="curve"/>
      <point x="452" y="641" type="line"/>
      <point x="499" y="685"/>
      <point x="599" y="706"/>
      <point x="657" y="706" type="curve" smooth="yes"/>
      <point x="778" y="706"/>
      <point x="861" y="608"/>
      <point x="861" y="413" type="curve" smooth="yes"/>
      <point x="861" y="226"/>
      <point x="790" y="127"/>
      <point x="687" y="127" type="curve" smooth="yes"/>
      <point x="562" y="127"/>
      <point x="476" y="277"/>
      <point x="476" y="567" type="curve" smooth="yes"/>
      <point x="476" y="661" type="line" smooth="yes"/>
      <point x="476" y="1024"/>
      <point x="663" y="1218"/>
      <point x="912" y="1218" type="curve" smooth="yes"/>
      <point x="960" y="1218"/>
      <point x="1022" y="1208"/>
      <point x="1082" y="1188" type="curve"/>
      <point x="1133" y="1338" type="line"/>
      <point x="1044" y="1392"/>
      <point x="925" y="1412"/>
      <point x="814" y="1412" type="curve" smooth="yes"/>
      <point x="408" y="1412"/>
      <point x="96" y="1091"/>
      <point x="96" y="606" type="curve" smooth="yes"/>
      <point x="96" y="192"/>
      <point x="324" y="-32"/>
    </contour>
  </outline>
</glyph>
<glyph name="seven" format="1">
  <advance width="1166"/>
  <unicode hex="0037"/>
  <outline>
    <contour>
      <point x="923" y="1167" type="line"/>
      <point x="614" y="891"/>
      <point x="338" y="480"/>
      <point x="315" y="54" type="curve"/>
      <point x="367" y="0" type="line"/>
      <point x="694" y="0" type="line"/>
      <point x="723" y="517"/>
      <point x="888" y="859"/>
      <point x="1144" y="1203" type="curve"/>
      <point x="1061" y="1381" type="line"/>
      <point x="103" y="1381" type="line"/>
      <point x="83" y="1218"/>
      <point x="73" y="1025"/>
      <point x="89" y="855" type="curve"/>
      <point x="273" y="855" type="line"/>
      <point x="361" y="1092" type="line" smooth="yes"/>
      <point x="373" y="1125"/>
      <point x="386" y="1137"/>
      <point x="420" y="1145" type="curve" smooth="yes"/>
      <point x="466" y="1158"/>
      <point x="556" y="1167"/>
      <point x="642" y="1167" type="curve" smooth="yes"/>
    </contour>
  </outline>
</glyph>
<glyph name="nine" format="1">
  <advance width="1296"/>
  <unicode hex="0039"/>
  <outline>
    <contour>
      <point x="620" y="1412" type="curve" smooth="yes"/>
      <point x="276" y="1412"/>
      <point x="79" y="1196"/>
      <point x="79" y="903" type="curve" smooth="yes"/>
      <point x="79" y="655"/>
      <point x="231" y="476"/>
      <point x="491" y="476" type="curve" smooth="yes"/>
      <point x="661" y="476"/>
      <point x="818" y="567"/>
      <point x="854" y="657" type="curve"/>
      <point x="842" y="738" type="line"/>
      <point x="795" y="696"/>
      <point x="697" y="675"/>
      <point x="639" y="675" type="curve" smooth="yes"/>
      <point x="515" y="675"/>
      <point x="433" y="775"/>
      <point x="433" y="964" type="curve" smooth="yes"/>
      <point x="433" y="1137"/>
      <point x="493" y="1253"/>
      <point x="605" y="1253" type="curve" smooth="yes"/>
      <point x="737" y="1253"/>
      <point x="818" y="1081"/>
      <point x="818" y="806" type="curve" smooth="yes"/>
      <point x="818" y="685" type="line" smooth="yes"/>
      <point x="818" y="314"/>
      <point x="639" y="165"/>
      <point x="455" y="165" type="curve" smooth="yes"/>
      <point x="358" y="165"/>
      <point x="273" y="190"/>
      <point x="209" y="224" type="curve"/>
      <point x="153" y="80" type="line"/>
      <point x="249" y="3"/>
      <point x="391" y="-32"/>
      <point x="524" y="-32" type="curve" smooth="yes"/>
      <point x="900" y="-32"/>
      <point x="1198" y="246"/>
      <point x="1198" y="751" type="curve" smooth="yes"/>
      <point x="1198" y="1190"/>
      <point x="967" y="1412"/>
    </contour>
  </outline>
</glyph>
<glyph name="semicolon" format="1">
  <advance width="688"/>
  <unicode hex="003B"/>
  <outline>
    <contour>
      <point x="369" y="-370"/>
      <point x="556" y="-165"/>
      <point x="556" y="82" type="curve" smooth="yes"/>
      <point x="556" y="259"/>
      <point x="464" y="364"/>
      <point x="331" y="364" type="curve" smooth="yes"/>
      <point x="219" y="364"/>
      <point x="140" y="288"/>
      <point x="140" y="176" type="curve" smooth="yes"/>
      <point x="140" y="98"/>
      <point x="180" y="48"/>
      <point x="223" y="17" type="curve" smooth="yes"/>
      <point x="260" y="-10"/>
      <point x="291" y="-15"/>
      <point x="291" y="-74" type="curve" smooth="yes"/>
      <point x="291" y="-171"/>
      <point x="212" y="-289"/>
      <point x="111" y="-385" type="curve"/>
      <point x="180" y="-473" type="line"/>
    </contour>
    <contour>
      <point x="543" y="998" type="curve" smooth="yes"/>
      <point x="543" y="1110"/>
      <point x="464" y="1182"/>
      <point x="342" y="1182" type="curve" smooth="yes"/>
      <point x="220" y="1182"/>
      <point x="141" y="1110"/>
      <point x="141" y="998" type="curve" smooth="yes"/>
      <point x="141" y="886"/>
      <point x="220" y="814"/>
      <point x="342" y="814" type="curve" smooth="yes"/>
      <point x="464" y="814"/>
      <point x="543" y="886"/>
    </contour>
  </outline>
</glyph>
<glyph name="greater" format="1">
  <advance width="1113"/>
  <unicode hex="003E"/>
  <outline>
    <contour>
      <point x="1042" y="518" type="line"/>
      <point x="1042" y="707" type="line"/>
      <point x="205" y="1138" type="line"/>
      <point x="103" y="916" type="line"/>
      <point x="804" y="593" type="line"/>
      <point x="804" y="636" type="line"/>
      <point x="103" y="312" type="line"/>
      <point x="205" y="86" type="line"/>
    </contour>
  </outline>
</glyph>
<glyph name="at" format="1">
  <advance width="2126"/>
  <unicode hex="0040"/>
  <outline>
    <contour>
      <point x="1235" y="671" type="curve" smooth="yes"/>
      <point x="1149" y="381"/>
      <point x="1016" y="201"/>
      <point x="929" y="201" type="curve" smooth="yes"/>
      <point x="850" y="201"/>
      <point x="815" y="354"/>
      <point x="815" y="484" type="curve" smooth="yes"/>
      <point x="815" y="679"/>
      <point x="893" y="906"/>
      <point x="1056" y="906" type="curve" smooth="yes"/>
      <point x="1137" y="906"/>
      <point x="1239" y="847"/>
      <point x="1290" y="768" type="curve"/>
      <point x="1393" y="993" type="line"/>
      <point x="1271" y="1067"/>
      <point x="1182" y="1089"/>
      <point x="1097" y="1089" type="curve" smooth="yes"/>
      <point x="748" y="1089"/>
      <point x="534" y="726"/>
      <point x="534" y="391" type="curve" smooth="yes"/>
      <point x="534" y="99"/>
      <point x="697" y="-65"/>
      <point x="855" y="-65" type="curve" smooth="yes"/>
      <point x="1067" y="-65"/>
      <point x="1218" y="235"/>
      <point x="1304" y="507" type="curve"/>
      <point x="1299" y="507"/>
      <point x="1296" y="508"/>
      <point x="1292" y="508" type="curve"/>
      <point x="1262" y="339"/>
      <point x="1248" y="229"/>
      <point x="1248" y="165" type="curve" smooth="yes"/>
      <point x="1248" y="31"/>
      <point x="1310" y="-40"/>
      <point x="1398" y="-40" type="curve" smooth="yes"/>
      <point x="1575" y="-40"/>
      <point x="2036" y="241"/>
      <point x="2036" y="805" type="curve" smooth="yes"/>
      <point x="2036" y="1287"/>
      <point x="1702" y="1564"/>
      <point x="1242" y="1564" type="curve" smooth="yes"/>
      <point x="604" y="1564"/>
      <point x="71" y="1030"/>
      <point x="81" y="332" type="curve" smooth="yes"/>
      <point x="89" y="-190"/>
      <point x="399" y="-527"/>
      <point x="916" y="-527" type="curve" smooth="yes"/>
      <point x="1121" y="-527"/>
      <point x="1320" y="-474"/>
      <point x="1436" y="-377" type="curve"/>
      <point x="1381" y="-258" type="line"/>
      <point x="1303" y="-310"/>
      <point x="1121" y="-347"/>
      <point x="976" y="-347" type="curve" smooth="yes"/>
      <point x="616" y="-347"/>
      <point x="307" y="-117"/>
      <point x="307" y="423" type="curve" smooth="yes"/>
      <point x="307" y="998"/>
      <point x="657" y="1385"/>
      <point x="1149" y="1385" type="curve" smooth="yes"/>
      <point x="1462" y="1385"/>
      <point x="1833" y="1228"/>
      <point x="1833" y="726" type="curve" smooth="yes"/>
      <point x="1833" y="362"/>
      <point x="1637" y="172"/>
      <point x="1547" y="172" type="curve" smooth="yes"/>
      <point x="1508" y="172"/>
      <point x="1491" y="208"/>
      <point x="1491" y="299" type="curve" smooth="yes"/>
      <point x="1491" y="518"/>
      <point x="1595" y="974"/>
      <point x="1607" y="1028" type="curve"/>
      <point x="1411" y="1089" type="line"/>
      <point x="1307" y="979" type="line"/>
      <point x="1296" y="923"/>
      <point x="1275" y="802"/>
    </contour>
  </outline>
</glyph>
<glyph name="D" format="1">
  <advance width="1689"/>
  <unicode hex="0044"/>
  <outline>
    <contour>
      <point x="475" y="1562" type="curve" smooth="yes"/>
      <point x="89" y="1562" type="line"/>
      <point x="89" y="1411" type="line"/>
      <point x="251" y="1379" type="line" smooth="yes"/>
      <point x="275" y="1374"/>
      <point x="291" y="1355"/>
      <point x="291" y="1330" type="curve" smooth="yes"/>
      <point x="291" y="224" type="line" smooth="yes"/>
      <point x="291" y="199"/>
      <point x="275" y="178"/>
      <point x="249" y="174" type="curve" smooth="yes"/>
      <point x="89" y="144" type="line"/>
      <point x="89" y="0" type="line"/>
      <point x="479" y="0" type="line" smooth="yes"/>
      <point x="558" y="0"/>
      <point x="717" y="-14"/>
      <point x="809" y="-16" type="curve" smooth="yes"/>
      <point x="1304" y="-26"/>
      <point x="1595" y="279"/>
      <point x="1595" y="833" type="curve" smooth="yes"/>
      <point x="1595" y="1348"/>
      <point x="1342" y="1574"/>
      <point x="833" y="1574" type="curve" smooth="yes"/>
      <point x="717" y="1574"/>
      <point x="611" y="1562"/>
    </contour>
    <contour>
      <point x="671" y="161" type="curve"/>
      <point x="671" y="1409" type="line"/>
      <point x="683" y="1410"/>
      <point x="738" y="1426"/>
      <point x="806" y="1426" type="curve" smooth="yes"/>
      <point x="1077" y="1426"/>
      <point x="1181" y="1184"/>
      <point x="1181" y="776" type="curve" smooth="yes"/>
      <point x="1181" y="295"/>
      <point x="1044" y="142"/>
      <point x="814" y="140" type="curve" smooth="yes"/>
      <point x="766" y="140"/>
      <point x="705" y="146"/>
    </contour>
    <contour>
      <point x="890" y="0" type="move" name="btm"/>
    </contour>
    <contour>
      <point x="819" y="1562" type="move" name="top"/>
    </contour>
  </outline>
</glyph>
<glyph name="E" format="1">
  <advance width="1452"/>
  <unicode hex="0045"/>
  <outline>
    <contour>
      <point x="1297" y="1135" type="line"/>
      <point x="1309" y="1281"/>
      <point x="1309" y="1421"/>
      <point x="1291" y="1562" type="curve"/>
      <point x="89" y="1562" type="line"/>
      <point x="89" y="1411" type="line"/>
      <point x="245" y="1381" type="line" smooth="yes"/>
      <point x="276" y="1374"/>
      <point x="291" y="1355"/>
      <point x="291" y="1324" type="curve" smooth="yes"/>
      <point x="291" y="229" type="line" smooth="yes"/>
      <point x="291" y="198"/>
      <point x="276" y="179"/>
      <point x="245" y="173" type="curve" smooth="yes"/>
      <point x="89" y="144" type="line"/>
      <point x="89" y="0" type="line"/>
      <point x="1343" y="0" type="line"/>
      <point x="1368" y="163"/>
      <point x="1380" y="309"/>
      <point x="1380" y="470" type="curve"/>
      <point x="1203" y="498" type="line"/>
      <point x="1117" y="250" type="line" smooth="yes"/>
      <point x="1104" y="214"/>
      <point x="1092" y="197"/>
      <point x="1063" y="185" type="curve" smooth="yes"/>
      <point x="1029" y="171"/>
      <point x="948" y="163"/>
      <point x="882" y="163" type="curve" smooth="yes"/>
      <point x="671" y="163" type="line"/>
      <point x="671" y="704" type="line"/>
      <point x="1101" y="693" type="line"/>
      <point x="1101" y="898" type="line"/>
      <point x="671" y="882" type="line"/>
      <point x="671" y="1407" type="line"/>
      <point x="840" y="1407" type="line" smooth="yes"/>
      <point x="906" y="1407"/>
      <point x="972" y="1398"/>
      <point x="1006" y="1385" type="curve" smooth="yes"/>
      <point x="1036" y="1373"/>
      <point x="1055" y="1355"/>
      <point x="1065" y="1320" type="curve" smooth="yes"/>
      <point x="1119" y="1135" type="line"/>
    </contour>
    <contour>
      <point x="787" y="0" type="move" name="btm"/>
    </contour>
    <contour>
      <point x="744" y="1562" type="move" name="top"/>
    </contour>
  </outline>
</glyph>
<glyph name="F" format="1">
  <advance width="1348"/>
  <unicode hex="0046"/>
  <outline>
    <contour>
      <point x="1101" y="667" type="line"/>
      <point x="1101" y="873" type="line"/>
      <point x="671" y="857" type="line"/>
      <point x="671" y="1407" type="line"/>
      <point x="840" y="1407" type="line" smooth="yes"/>
      <point x="906" y="1407"/>
      <point x="972" y="1398"/>
      <point x="1006" y="1385" type="curve" smooth="yes"/>
      <point x="1036" y="1373"/>
      <point x="1055" y="1355"/>
      <point x="1065" y="1320" type="curve" smooth="yes"/>
      <point x="1119" y="1135" type="line"/>
      <point x="1297" y="1135" type="line"/>
      <point x="1309" y="1281"/>
      <point x="1309" y="1421"/>
      <point x="1291" y="1562" type="curve"/>
      <point x="89" y="1562" type="line"/>
      <point x="89" y="1411" type="line"/>
      <point x="245" y="1381" type="line" smooth="yes"/>
      <point x="276" y="1374"/>
      <point x="291" y="1355"/>
      <point x="291" y="1324" type="curve" smooth="yes"/>
      <point x="291" y="225" type="line" smooth="yes"/>
      <point x="291" y="199"/>
      <point x="274" y="179"/>
      <point x="248" y="174" type="curve" smooth="yes"/>
      <point x="89" y="144" type="line"/>
      <point x="89" y="0" type="line"/>
      <point x="972" y="0" type="line"/>
      <point x="972" y="144" type="line"/>
      <point x="716" y="175" type="line" smooth="yes"/>
      <point x="689" y="178"/>
      <point x="671" y="198"/>
      <point x="671" y="224" type="curve" smooth="yes"/>
      <point x="671" y="679" type="line"/>
    </contour>
    <contour>
      <point x="733" y="0" type="move" name="btm"/>
    </contour>
    <contour>
      <point x="733" y="1562" type="move" name="top"/>
    </contour>
  </outline>
</glyph>
<glyph name="G" format="1">
  <advance width="1595"/>
  <unicode hex="0047"/>
  <outline>
    <contour>
      <point x="1226" y="215" type="curve"/>
      <point x="1166" y="324" type="line"/>
      <point x="1104" y="228"/>
      <point x="1003" y="163"/>
      <point x="858" y="163" type="curve" smooth="yes"/>
      <point x="607" y="163"/>
      <point x="535" y="373"/>
      <point x="535" y="757" type="curve" smooth="yes"/>
      <point x="535" y="1238"/>
      <point x="648" y="1441"/>
      <point x="877" y="1441" type="curve" smooth="yes"/>
      <point x="951" y="1441"/>
      <point x="1005" y="1419"/>
      <point x="1040" y="1392" type="curve" smooth="yes"/>
      <point x="1065" y="1372"/>
      <point x="1078" y="1356"/>
      <point x="1089" y="1314" type="curve" smooth="yes"/>
      <point x="1144" y="1085" type="line"/>
      <point x="1374" y="1085" type="line"/>
      <point x="1395" y="1226"/>
      <point x="1404" y="1368"/>
      <point x="1395" y="1499" type="curve"/>
      <point x="1259" y="1553"/>
      <point x="1073" y="1592"/>
      <point x="889" y="1592" type="curve" smooth="yes"/>
      <point x="382" y="1592"/>
      <point x="95" y="1331"/>
      <point x="95" y="765" type="curve" smooth="yes"/>
      <point x="95" y="264"/>
      <point x="322" y="-32"/>
      <point x="739" y="-32" type="curve" smooth="yes"/>
      <point x="988" y="-32"/>
      <point x="1149" y="81"/>
    </contour>
    <contour>
      <point x="1429" y="24" type="line"/>
      <point x="1429" y="637" type="line"/>
      <point x="1531" y="654" type="line"/>
      <point x="1531" y="809" type="line"/>
      <point x="881" y="809" type="line"/>
      <point x="881" y="654" type="line"/>
      <point x="1071" y="633" type="line"/>
      <point x="1071" y="139" type="line"/>
      <point x="1151" y="139" type="line"/>
      <point x="1359" y="-16" type="line"/>
    </contour>
    <contour>
      <point x="812" y="0" type="move" name="btm"/>
    </contour>
    <contour>
      <point x="899" y="1562" type="move" name="top"/>
    </contour>
  </outline>
</glyph>
<glyph name="L" format="1">
  <advance width="1417"/>
  <unicode hex="004C"/>
  <outline>
    <contour>
      <point x="1083" y="255" type="line" smooth="yes"/>
      <point x="1073" y="220"/>
      <point x="1054" y="202"/>
      <point x="1025" y="190" type="curve" smooth="yes"/>
      <point x="990" y="176"/>
      <point x="927" y="165"/>
      <point x="844" y="165" type="curve" smooth="yes"/>
      <point x="671" y="165" type="line"/>
      <point x="671" y="1323" type="line" smooth="yes"/>
      <point x="671" y="1354"/>
      <point x="687" y="1373"/>
      <point x="718" y="1378" type="curve" smooth="yes"/>
      <point x="923" y="1411" type="line"/>
      <point x="923" y="1562" type="line"/>
      <point x="89" y="1562" type="line"/>
      <point x="89" y="1411" type="line"/>
      <point x="245" y="1381" type="line" smooth="yes"/>
      <point x="275" y="1375"/>
      <point x="291" y="1356"/>
      <point x="291" y="1325" type="curve" smooth="yes"/>
      <point x="291" y="229" type="line" smooth="yes"/>
      <point x="291" y="198"/>
      <point x="275" y="179"/>
      <point x="244" y="173" type="curve" smooth="yes"/>
      <point x="89" y="144" type="line"/>
      <point x="89" y="0" type="line"/>
      <point x="1331" y="0" type="line"/>
      <point x="1371" y="192"/>
      <point x="1371" y="382"/>
      <point x="1371" y="552" type="curve"/>
      <point x="1182" y="578" type="line"/>
    </contour>
    <contour>
      <point x="778" y="0" type="move" name="btm"/>
    </contour>
    <contour>
      <point x="614" y="1562" type="move" name="top"/>
    </contour>
    <contour>
      <point x="885" y="916" type="move" name="topright"/>
    </contour>
  </outline>
</glyph>
<glyph name="M" format="1">
  <advance width="2296"/>
  <unicode hex="004D"/>
  <outline>
    <contour>
      <point x="1904" y="1321" type="line" smooth="yes"/>
      <point x="1898" y="1353"/>
      <point x="1914" y="1375"/>
      <point x="1946" y="1381" type="curve" smooth="yes"/>
      <point x="2127" y="1411" type="line"/>
      <point x="2127" y="1562" type="line"/>
      <point x="1399" y="1562" type="line"/>
      <point x="1109" y="325" type="line"/>
      <point x="1207" y="325" type="line"/>
      <point x="885" y="1562" type="line"/>
      <point x="160" y="1562" type="line"/>
      <point x="160" y="1411" type="line"/>
      <point x="331" y="1381" type="line" smooth="yes"/>
      <point x="362" y="1375"/>
      <point x="378" y="1353"/>
      <point x="374" y="1321" type="curve" smooth="yes"/>
      <point x="243" y="231" type="line" smooth="yes"/>
      <point x="239" y="200"/>
      <point x="224" y="183"/>
      <point x="195" y="177" type="curve" smooth="yes"/>
      <point x="40" y="144" type="line"/>
      <point x="40" y="0" type="line"/>
      <point x="664" y="0" type="line"/>
      <point x="664" y="144" type="line"/>
      <point x="445" y="174" type="line"/>
      <point x="590" y="1477" type="line"/>
      <point x="526" y="1476" type="line"/>
      <point x="931" y="55" type="line"/>
      <point x="1236" y="55" type="line"/>
      <point x="1570" y="1474" type="line"/>
      <point x="1514" y="1475" type="line"/>
      <point x="1691" y="174" type="line"/>
      <point x="1511" y="144" type="line"/>
      <point x="1511" y="0" type="line"/>
      <point x="2264" y="0" type="line"/>
      <point x="2264" y="144" type="line"/>
      <point x="2115" y="177" type="line" smooth="yes"/>
      <point x="2087" y="183"/>
      <point x="2070" y="201"/>
      <point x="2066" y="230" type="curve" smooth="yes"/>
    </contour>
    <contour>
      <point x="1000" y="0" type="move" name="btm"/>
    </contour>
    <contour>
      <point x="1140" y="1562" type="move" name="top"/>
    </contour>
  </outline>
</glyph>
<glyph name="P" format="1">
  <advance width="1466"/>
  <unicode hex="0050"/>
  <outline>
    <contour>
      <point x="671" y="1419" type="line"/>
      <point x="698" y="1423"/>
      <point x="718" y="1431"/>
      <point x="789" y="1431" type="curve" smooth="yes"/>
      <point x="950" y="1431"/>
      <point x="1035" y="1332"/>
      <point x="1035" y="1103" type="curve" smooth="yes"/>
      <point x="1035" y="793"/>
      <point x="931" y="698"/>
      <point x="792" y="698" type="curve" smooth="yes"/>
      <point x="720" y="698"/>
      <point x="687" y="705"/>
      <point x="621" y="711" type="curve"/>
      <point x="625" y="562" type="line"/>
      <point x="679" y="558"/>
      <point x="739" y="554"/>
      <point x="802" y="554" type="curve" smooth="yes"/>
      <point x="1208" y="554"/>
      <point x="1420" y="763"/>
      <point x="1420" y="1113" type="curve" smooth="yes"/>
      <point x="1420" y="1407"/>
      <point x="1288" y="1571"/>
      <point x="830" y="1573" type="curve" smooth="yes"/>
      <point x="677" y="1574"/>
      <point x="576" y="1562"/>
      <point x="488" y="1562" type="curve" smooth="yes"/>
      <point x="89" y="1562" type="line"/>
      <point x="89" y="1411" type="line"/>
      <point x="251" y="1379" type="line" smooth="yes"/>
      <point x="275" y="1373"/>
      <point x="291" y="1353"/>
      <point x="291" y="1330" type="curve" smooth="yes"/>
      <point x="291" y="224" type="line" smooth="yes"/>
      <point x="291" y="199"/>
      <point x="274" y="179"/>
      <point x="248" y="174" type="curve" smooth="yes"/>
      <point x="89" y="144" type="line"/>
      <point x="89" y="0" type="line"/>
      <point x="962" y="0" type="line"/>
      <point x="962" y="144" type="line"/>
      <point x="716" y="175" type="line" smooth="yes"/>
      <point x="689" y="178"/>
      <point x="671" y="198"/>
      <point x="671" y="224" type="curve" smooth="yes"/>
    </contour>
    <contour>
      <point x="758" y="0" type="move" name="btm"/>
    </contour>
    <contour>
      <point x="758" y="1562" type="move" name="top"/>
    </contour>
  </outline>
</glyph>
<glyph name="S" format="1">
  <advance width="1322"/>
  <unicode hex="0053"/>
  <outline>
    <contour>
      <point x="1236" y="442" type="curve" smooth="yes"/>
      <point x="1236" y="690"/>
      <point x="1043" y="825"/>
      <point x="813" y="942" type="curve" smooth="yes"/>
      <point x="606" y="1048"/>
      <point x="481" y="1112"/>
      <point x="481" y="1265" type="curve" smooth="yes"/>
      <point x="481" y="1375"/>
      <point x="552" y="1448"/>
      <point x="672" y="1448" type="curve" smooth="yes"/>
      <point x="730" y="1448"/>
      <point x="793" y="1431"/>
      <point x="829" y="1404" type="curve" smooth="yes"/>
      <point x="853" y="1386"/>
      <point x="864" y="1363"/>
      <point x="872" y="1324" type="curve" smooth="yes"/>
      <point x="914" y="1097" type="line"/>
      <point x="1123" y="1097" type="line"/>
      <point x="1144" y="1226"/>
      <point x="1155" y="1377"/>
      <point x="1144" y="1509" type="curve"/>
      <point x="1024" y="1558"/>
      <point x="850" y="1592"/>
      <point x="691" y="1592" type="curve" smooth="yes"/>
      <point x="311" y="1592"/>
      <point x="123" y="1395"/>
      <point x="123" y="1132" type="curve" smooth="yes"/>
      <point x="123" y="869"/>
      <point x="315" y="768"/>
      <point x="524" y="658" type="curve" smooth="yes"/>
      <point x="707" y="563"/>
      <point x="859" y="480"/>
      <point x="859" y="311" type="curve" smooth="yes"/>
      <point x="859" y="192"/>
      <point x="781" y="112"/>
      <point x="649" y="112" type="curve" smooth="yes"/>
      <point x="557" y="112"/>
      <point x="476" y="153"/>
      <point x="436" y="189" type="curve" smooth="yes"/>
      <point x="409" y="211"/>
      <point x="399" y="235"/>
      <point x="394" y="266" type="curve" smooth="yes"/>
      <point x="355" y="525" type="line"/>
      <point x="140" y="525" type="line"/>
      <point x="119" y="408"/>
      <point x="105" y="232"/>
      <point x="112" y="86" type="curve"/>
      <point x="244" y="23"/>
      <point x="432" y="-33"/>
      <point x="640" y="-33" type="curve" smooth="yes"/>
      <point x="1075" y="-33"/>
      <point x="1236" y="216"/>
    </contour>
    <contour>
      <point x="620" y="0" type="move" name="btm"/>
    </contour>
    <contour>
      <point x="681" y="1562" type="move" name="top"/>
    </contour>
  </outline>
</glyph>
<glyph name="U" format="1">
  <advance width="1729"/>
  <unicode hex="0055"/>
  <outline>
    <contour>
      <point x="1046" y="1562" type="line"/>
      <point x="1046" y="1411" type="line"/>
      <point x="1212" y="1380" type="line" smooth="yes"/>
      <point x="1242" y="1375"/>
      <point x="1258" y="1355"/>
      <point x="1258" y="1324" type="curve" smooth="yes"/>
      <point x="1258" y="557" type="line" smooth="yes"/>
      <point x="1258" y="302"/>
      <point x="1181" y="123"/>
      <point x="935" y="123" type="curve" smooth="yes"/>
      <point x="700" y="123"/>
      <point x="620" y="285"/>
      <point x="620" y="559" type="curve" smooth="yes"/>
      <point x="620" y="1321" type="line" smooth="yes"/>
      <point x="620" y="1351"/>
      <point x="636" y="1371"/>
      <point x="666" y="1377" type="curve" smooth="yes"/>
      <point x="825" y="1411" type="line"/>
      <point x="825" y="1562" type="line"/>
      <point x="84" y="1562" type="line"/>
      <point x="84" y="1411" type="line"/>
      <point x="184" y="1383" type="line" smooth="yes"/>
      <point x="213" y="1374"/>
      <point x="228" y="1355"/>
      <point x="228" y="1325" type="curve" smooth="yes"/>
      <point x="228" y="591" type="line" smooth="yes"/>
      <point x="228" y="153"/>
      <point x="439" y="-25"/>
      <point x="875" y="-25" type="curve" smooth="yes"/>
      <point x="1250" y="-25"/>
      <point x="1490" y="138"/>
      <point x="1490" y="578" type="curve" smooth="yes"/>
      <point x="1490" y="1325" type="line" smooth="yes"/>
      <point x="1490" y="1355"/>
      <point x="1505" y="1375"/>
      <point x="1535" y="1383" type="curve" smooth="yes"/>
      <point x="1645" y="1411" type="line"/>
      <point x="1645" y="1562" type="line"/>
    </contour>
    <contour>
      <point x="859" y="0" type="move" name="btm"/>
    </contour>
    <contour>
      <point x="888" y="1562" type="move" name="top"/>
    </contour>
  </outline>
</glyph>
<glyph name="V" format="1">
  <advance width="1610"/>
  <unicode hex="0056"/>
  <outline>
    <contour>
      <point x="650" y="-5" type="line"/>
      <point x="988" y="-5" type="line"/>
      <point x="1425" y="1333" type="line" smooth="yes"/>
      <point x="1434" y="1360"/>
      <point x="1451" y="1374"/>
      <point x="1478" y="1381" type="curve" smooth="yes"/>
      <point x="1614" y="1411" type="line"/>
      <point x="1614" y="1562" type="line"/>
      <point x="1031" y="1562" type="line"/>
      <point x="1031" y="1411" type="line"/>
      <point x="1224" y="1375" type="line"/>
      <point x="854" y="160" type="line"/>
      <point x="953" y="160" type="line"/>
      <point x="541" y="1375" type="line"/>
      <point x="734" y="1411" type="line"/>
      <point x="734" y="1562" type="line"/>
      <point x="-20" y="1562" type="line"/>
      <point x="-20" y="1411" type="line"/>
      <point x="107" y="1381" type="line" smooth="yes"/>
      <point x="133" y="1374"/>
      <point x="150" y="1360"/>
      <point x="160" y="1333" type="curve" smooth="yes"/>
    </contour>
    <contour>
      <point x="942" y="0" type="move" name="btm"/>
    </contour>
    <contour>
      <point x="807" y="-178" type="move" name="bottom"/>
    </contour>
    <contour>
      <point x="600" y="1562" type="move" name="top"/>
    </contour>
  </outline>
</glyph>
<glyph name="W" format="1">
  <advance width="2323"/>
  <unicode hex="0057"/>
  <outline>
    <contour>
      <point x="1088" y="1262" type="line"/>
      <point x="804" y="227" type="line"/>
      <point x="848" y="227" type="line"/>
      <point x="548" y="1375" type="line"/>
      <point x="720" y="1411" type="line"/>
      <point x="720" y="1562" type="line"/>
      <point x="-12" y="1562" type="line"/>
      <point x="-12" y="1411" type="line"/>
      <point x="120" y="1381" type="line" smooth="yes"/>
      <point x="145" y="1375"/>
      <point x="161" y="1356"/>
      <point x="170" y="1331" type="curve" smooth="yes"/>
      <point x="579" y="-6" type="line"/>
      <point x="919" y="-6" type="line"/>
      <point x="1202" y="1044" type="line"/>
    </contour>
    <contour>
      <point x="1122" y="1052" type="line"/>
      <point x="1424" y="-6" type="line"/>
      <point x="1764" y="-6" type="line"/>
      <point x="2137" y="1330" type="line" smooth="yes"/>
      <point x="2145" y="1359"/>
      <point x="2161" y="1375"/>
      <point x="2188" y="1381" type="curve" smooth="yes"/>
      <point x="2328" y="1411" type="line"/>
      <point x="2328" y="1562" type="line"/>
      <point x="1771" y="1562" type="line"/>
      <point x="1771" y="1411" type="line"/>
      <point x="1943" y="1375" type="line"/>
      <point x="1644" y="227" type="line"/>
      <point x="1699" y="227" type="line"/>
      <point x="1402" y="1375" type="line"/>
      <point x="1600" y="1411" type="line"/>
      <point x="1600" y="1562" type="line"/>
      <point x="889" y="1562" type="line"/>
      <point x="889" y="1411" type="line"/>
      <point x="980" y="1381" type="line" smooth="yes"/>
      <point x="1004" y="1372"/>
      <point x="1021" y="1356"/>
      <point x="1029" y="1331" type="curve" smooth="yes"/>
    </contour>
    <contour>
      <point x="1171" y="0" type="move" name="btm"/>
    </contour>
    <contour>
      <point x="1175" y="1562" type="move" name="top"/>
    </contour>
  </outline>
</glyph>
<glyph name="Z" format="1">
  <advance width="1426"/>
  <unicode hex="005A"/>
  <outline>
    <contour>
      <point x="1283" y="0" type="line"/>
      <point x="1311" y="152"/>
      <point x="1327" y="378"/>
      <point x="1323" y="518" type="curve"/>
      <point x="1120" y="545" type="line"/>
      <point x="1018" y="252" type="line" smooth="yes"/>
      <point x="1006" y="217"/>
      <point x="987" y="198"/>
      <point x="959" y="187" type="curve" smooth="yes"/>
      <point x="925" y="174"/>
      <point x="862" y="165"/>
      <point x="778" y="165" type="curve" smooth="yes"/>
      <point x="412" y="165" type="line"/>
      <point x="482" y="109" type="line"/>
      <point x="1330" y="1437" type="line"/>
      <point x="1278" y="1565" type="line"/>
      <point x="187" y="1565" type="line"/>
      <point x="158" y="1404"/>
      <point x="147" y="1218"/>
      <point x="153" y="1049" type="curve"/>
      <point x="364" y="1049" type="line"/>
      <point x="455" y="1327" type="line" smooth="yes"/>
      <point x="467" y="1361"/>
      <point x="484" y="1380"/>
      <point x="514" y="1392" type="curve" smooth="yes"/>
      <point x="549" y="1405"/>
      <point x="612" y="1414"/>
      <point x="695" y="1414" type="curve" smooth="yes"/>
      <point x="957" y="1414" type="line"/>
      <point x="909" y="1452" type="line"/>
      <point x="49" y="125" type="line"/>
      <point x="122" y="0" type="line"/>
    </contour>
    <contour>
      <point x="680" y="0" type="move" name="btm"/>
    </contour>
    <contour>
      <point x="759" y="1562" type="move" name="top"/>
    </contour>
  </outline>
</glyph>
<glyph name="c" format="1">
  <advance width="1139"/>
  <unicode hex="0063"/>
  <outline>
    <contour>
      <point x="79" y="556" type="curve" smooth="yes"/>
      <point x="79" y="229"/>
      <point x="242" y="-26"/>
      <point x="612" y="-26" type="curve" smooth="yes"/>
      <point x="855" y="-26"/>
      <point x="1014" y="83"/>
      <point x="1063" y="228" type="curve"/>
      <point x="986" y="290" type="line"/>
      <point x="938" y="247"/>
      <point x="849" y="195"/>
      <point x="731" y="195" type="curve" smooth="yes"/>
      <point x="539" y="195"/>
      <point x="468" y="333"/>
      <point x="468" y="604" type="curve" smooth="yes"/>
      <point x="468" y="898"/>
      <point x="549" y="1009"/>
      <point x="655" y="1009" type="curve" smooth="yes"/>
      <point x="695" y="1009"/>
      <point x="729" y="994"/>
      <point x="751" y="974" type="curve" smooth="yes"/>
      <point x="769" y="957"/>
      <point x="780" y="936"/>
      <point x="793" y="889" type="curve" smooth="yes"/>
      <point x="850" y="688" type="line"/>
      <point x="1025" y="688" type="line"/>
      <point x="1049" y="811"/>
      <point x="1059" y="945"/>
      <point x="1049" y="1080" type="curve"/>
      <point x="956" y="1131"/>
      <point x="806" y="1168"/>
      <point x="664" y="1168" type="curve" smooth="yes"/>
      <point x="325" y="1168"/>
      <point x="79" y="957"/>
    </contour>
    <contour>
      <point x="591" y="0" type="move" name="btm"/>
    </contour>
    <contour>
      <point x="627" y="1138" type="move" name="top"/>
    </contour>
  </outline>
</glyph>
<glyph name="e" format="1">
  <advance width="1184"/>
  <unicode hex="0065"/>
  <outline>
    <contour>
      <point x="82" y="560" type="curve" smooth="yes"/>
      <point x="82" y="200"/>
      <point x="250" y="-26"/>
      <point x="620" y="-26" type="curve" smooth="yes"/>
      <point x="860" y="-26"/>
      <point x="1041" y="69"/>
      <point x="1095" y="249" type="curve"/>
      <point x="1017" y="307" type="line"/>
      <point x="950" y="232"/>
      <point x="840" y="195"/>
      <point x="730" y="195" type="curve" smooth="yes"/>
      <point x="518" y="195"/>
      <point x="452" y="325"/>
      <point x="452" y="623" type="curve" smooth="yes"/>
      <point x="452" y="926"/>
      <point x="516" y="1019"/>
      <point x="623" y="1019" type="curve" smooth="yes"/>
      <point x="729" y="1019"/>
      <point x="775" y="926"/>
      <point x="775" y="798" type="curve" smooth="yes"/>
      <point x="775" y="779"/>
      <point x="775" y="764"/>
      <point x="774" y="752" type="curve"/>
      <point x="331" y="752" type="line"/>
      <point x="331" y="618" type="line"/>
      <point x="1087" y="618" type="line"/>
      <point x="1097" y="665"/>
      <point x="1104" y="729"/>
      <point x="1104" y="780" type="curve" smooth="yes"/>
      <point x="1104" y="1003"/>
      <point x="968" y="1167"/>
      <point x="648" y="1167" type="curve" smooth="yes"/>
      <point x="286" y="1167"/>
      <point x="82" y="957"/>
    </contour>
    <contour>
      <point x="585" y="0" type="move" name="btm"/>
    </contour>
    <contour>
      <point x="617" y="1138" type="move" name="top"/>
    </contour>
  </outline>
</glyph>
<glyph name="l" format="1">
  <advance width="784"/>
  <unicode hex="006C"/>
  <outline>
    <contour>
      <point x="573" y="1755" type="line"/>
      <point x="525" y="1800" type="line"/>
      <point x="380" y="1799"/>
      <point x="179" y="1773"/>
      <point x="35" y="1736" type="curve"/>
      <point x="35" y="1595" type="line"/>
      <point x="166" y="1575" type="line" smooth="yes"/>
      <point x="196" y="1570"/>
      <point x="212" y="1550"/>
      <point x="212" y="1519" type="curve" smooth="yes"/>
      <point x="212" y="218" type="line" smooth="yes"/>
      <point x="212" y="187"/>
      <point x="195" y="168"/>
      <point x="165" y="163" type="curve" smooth="yes"/>
      <point x="44" y="143" type="line"/>
      <point x="44" y="0" type="line"/>
      <point x="740" y="0" type="line"/>
      <point x="740" y="142" type="line"/>
      <point x="620" y="163" type="line" smooth="yes"/>
      <point x="589" y="168"/>
      <point x="573" y="187"/>
      <point x="573" y="219" type="curve" smooth="yes"/>
    </contour>
    <contour>
      <point x="382" y="0" type="move" name="btm"/>
    </contour>
    <contour>
      <point x="372" y="1781" type="move" name="top"/>
    </contour>
    <contour>
      <point x="572" y="1138" type="move" name="topright"/>
    </contour>
  </outline>
</glyph>
<glyph name="m" format="1">
  <advance width="2170"/>
  <unicode hex="006D"/>
  <outline>
    <contour>
      <point x="2128" y="0" type="line"/>
      <point x="2128" y="142" type="line"/>
      <point x="2018" y="163" type="line" smooth="yes"/>
      <point x="1988" y="169"/>
      <point x="1972" y="188"/>
      <point x="1972" y="219" type="curve" smooth="yes"/>
      <point x="1972" y="722" type="line" smooth="yes"/>
      <point x="1972" y="1001"/>
      <point x="1895" y="1162"/>
      <point x="1623" y="1162" type="curve" smooth="yes"/>
      <point x="1451" y="1162"/>
      <point x="1304" y="1101"/>
      <point x="1204" y="966" type="curve"/>
      <point x="1208" y="856" type="line"/>
      <point x="1283" y="921"/>
      <point x="1367" y="949"/>
      <point x="1437" y="949" type="curve" smooth="yes"/>
      <point x="1559" y="949"/>
      <point x="1611" y="873"/>
      <point x="1611" y="683" type="curve" smooth="yes"/>
      <point x="1611" y="219" type="line" smooth="yes"/>
      <point x="1611" y="188"/>
      <point x="1597" y="173"/>
      <point x="1566" y="162" type="curve" smooth="yes"/>
      <point x="1504" y="142" type="line"/>
      <point x="1504" y="0" type="line"/>
    </contour>
    <contour>
      <point x="703" y="0" type="line"/>
      <point x="703" y="142" type="line"/>
      <point x="637" y="163" type="line" smooth="yes"/>
      <point x="609" y="173"/>
      <point x="596" y="188"/>
      <point x="596" y="219" type="curve" smooth="yes"/>
      <point x="596" y="913" type="line"/>
      <point x="557" y="1121" type="line"/>
      <point x="507" y="1166" type="line"/>
      <point x="371" y="1164"/>
      <point x="210" y="1145"/>
      <point x="69" y="1108" type="curve"/>
      <point x="69" y="960" type="line"/>
      <point x="191" y="935" type="line" smooth="yes"/>
      <point x="220" y="929"/>
      <point x="235" y="907"/>
      <point x="235" y="877" type="curve" smooth="yes"/>
      <point x="235" y="219" type="line" smooth="yes"/>
      <point x="235" y="188"/>
      <point x="218" y="169"/>
      <point x="189" y="163" type="curve" smooth="yes"/>
      <point x="80" y="142" type="line"/>
      <point x="80" y="0" type="line"/>
    </contour>
    <contour>
      <point x="1392" y="0" type="line"/>
      <point x="1392" y="142" type="line"/>
      <point x="1328" y="162" type="line" smooth="yes"/>
      <point x="1298" y="174"/>
      <point x="1284" y="188"/>
      <point x="1284" y="219" type="curve" smooth="yes"/>
      <point x="1284" y="732" type="line" smooth="yes"/>
      <point x="1284" y="1007"/>
      <point x="1205" y="1162"/>
      <point x="936" y="1162" type="curve" smooth="yes"/>
      <point x="762" y="1162"/>
      <point x="621" y="1096"/>
      <point x="532" y="957" type="curve"/>
      <point x="531" y="857" type="line"/>
      <point x="591" y="918"/>
      <point x="681" y="949"/>
      <point x="754" y="949" type="curve" smooth="yes"/>
      <point x="874" y="949"/>
      <point x="923" y="880"/>
      <point x="923" y="692" type="curve" smooth="yes"/>
      <point x="923" y="219" type="line" smooth="yes"/>
      <point x="923" y="188"/>
      <point x="908" y="173"/>
      <point x="878" y="162" type="curve" smooth="yes"/>
      <point x="816" y="142" type="line"/>
      <point x="816" y="0" type="line"/>
    </contour>
    <contour>
      <point x="1093" y="0" type="move" name="btm"/>
    </contour>
    <contour>
      <point x="1093" y="1138" type="move" name="top"/>
    </contour>
  </outline>
</glyph>
<glyph name="n" format="1">
  <advance width="1496"/>
  <unicode hex="006E"/>
  <outline>
    <contour>
      <point x="1454" y="0" type="line"/>
      <point x="1454" y="143" type="line"/>
      <point x="1345" y="163" type="line" smooth="yes"/>
      <point x="1315" y="169"/>
      <point x="1299" y="188"/>
      <point x="1299" y="219" type="curve" smooth="yes"/>
      <point x="1299" y="732" type="line" smooth="yes"/>
      <point x="1299" y="1007"/>
      <point x="1219" y="1162"/>
      <point x="950" y="1162" type="curve" smooth="yes"/>
      <point x="774" y="1162"/>
      <point x="632" y="1096"/>
      <point x="533" y="957" type="curve"/>
      <point x="532" y="855" type="line"/>
      <point x="602" y="918"/>
      <point x="690" y="949"/>
      <point x="767" y="949" type="curve" smooth="yes"/>
      <point x="886" y="949"/>
      <point x="938" y="880"/>
      <point x="938" y="692" type="curve" smooth="yes"/>
      <point x="938" y="219" type="line" smooth="yes"/>
      <point x="938" y="188"/>
      <point x="923" y="173"/>
      <point x="893" y="162" type="curve" smooth="yes"/>
      <point x="826" y="142" type="line"/>
      <point x="826" y="0" type="line"/>
    </contour>
    <contour>
      <point x="708" y="0" type="line"/>
      <point x="708" y="142" type="line"/>
      <point x="640" y="162" type="line" smooth="yes"/>
      <point x="612" y="172"/>
      <point x="596" y="188"/>
      <point x="596" y="219" type="curve" smooth="yes"/>
      <point x="596" y="913" type="line"/>
      <point x="557" y="1121" type="line"/>
      <point x="507" y="1166" type="line"/>
      <point x="371" y="1164"/>
      <point x="210" y="1145"/>
      <point x="69" y="1108" type="curve"/>
      <point x="69" y="961" type="line"/>
      <point x="191" y="936" type="line" smooth="yes"/>
      <point x="220" y="930"/>
      <point x="235" y="908"/>
      <point x="235" y="878" type="curve" smooth="yes"/>
      <point x="235" y="219" type="line" smooth="yes"/>
      <point x="235" y="188"/>
      <point x="218" y="169"/>
      <point x="189" y="163" type="curve" smooth="yes"/>
      <point x="80" y="142" type="line"/>
      <point x="80" y="0" type="line"/>
    </contour>
    <contour>
      <point x="69" y="1138" type="move" name="apostrophe"/>
    </contour>
    <contour>
      <point x="767" y="0" type="move" name="btm"/>
    </contour>
    <contour>
      <point x="753" y="1138" type="move" name="top"/>
    </contour>
  </outline>
</glyph>
<glyph name="r" format="1">
  <advance width="1127"/>
  <unicode hex="0072"/>
  <outline>
    <contour>
      <point x="551" y="758" type="line"/>
      <point x="624" y="844"/>
      <point x="712" y="872"/>
      <point x="771" y="871" type="curve" smooth="yes"/>
      <point x="816" y="871"/>
      <point x="836" y="861"/>
      <point x="852" y="812" type="curve" smooth="yes"/>
      <point x="887" y="695" type="line"/>
      <point x="1045" y="695" type="line"/>
      <point x="1079" y="844"/>
      <point x="1089" y="1021"/>
      <point x="1074" y="1136" type="curve"/>
      <point x="1040" y="1153"/>
      <point x="960" y="1168"/>
      <point x="915" y="1168" type="curve" smooth="yes"/>
      <point x="757" y="1168"/>
      <point x="612" y="1029"/>
      <point x="518" y="808" type="curve"/>
    </contour>
    <contour>
      <point x="538" y="1122" type="line"/>
      <point x="482" y="1166" type="line"/>
      <point x="355" y="1164"/>
      <point x="197" y="1145"/>
      <point x="69" y="1108" type="curve"/>
      <point x="69" y="961" type="line"/>
      <point x="191" y="936" type="line" smooth="yes"/>
      <point x="221" y="930"/>
      <point x="235" y="908"/>
      <point x="235" y="877" type="curve" smooth="yes"/>
      <point x="235" y="219" type="line" smooth="yes"/>
      <point x="235" y="188"/>
      <point x="218" y="169"/>
      <point x="188" y="163" type="curve" smooth="yes"/>
      <point x="80" y="143" type="line"/>
      <point x="80" y="0" type="line"/>
      <point x="814" y="0" type="line"/>
      <point x="814" y="142" type="line"/>
      <point x="645" y="163" type="line" smooth="yes"/>
      <point x="613" y="167"/>
      <point x="596" y="187"/>
      <point x="596" y="219" type="curve" smooth="yes"/>
      <point x="596" y="814" type="line"/>
    </contour>
    <contour>
      <point x="443" y="0" type="move" name="btm"/>
    </contour>
    <contour>
      <point x="604" y="1138" type="move" name="top"/>
    </contour>
  </outline>
</glyph>
<glyph name="s" format="1">
  <advance width="1119"/>
  <unicode hex="0073"/>
  <outline>
    <contour>
      <point x="105" y="54" type="curve"/>
      <point x="216" y="10"/>
      <point x="371" y="-32"/>
      <point x="543" y="-32" type="curve" smooth="yes"/>
      <point x="831" y="-32"/>
      <point x="1045" y="85"/>
      <point x="1045" y="323" type="curve" smooth="yes"/>
      <point x="1045" y="538"/>
      <point x="872" y="623"/>
      <point x="678" y="707" type="curve" smooth="yes"/>
      <point x="549" y="763"/>
      <point x="435" y="804"/>
      <point x="435" y="907" type="curve" smooth="yes"/>
      <point x="435" y="984"/>
      <point x="494" y="1030"/>
      <point x="581" y="1030" type="curve" smooth="yes"/>
      <point x="622" y="1029"/>
      <point x="661" y="1021"/>
      <point x="695" y="999" type="curve" smooth="yes"/>
      <point x="722" y="981"/>
      <point x="733" y="965"/>
      <point x="746" y="926" type="curve" smooth="yes"/>
      <point x="790" y="787" type="line"/>
      <point x="957" y="786" type="line"/>
      <point x="977" y="886"/>
      <point x="982" y="1001"/>
      <point x="973" y="1098" type="curve"/>
      <point x="869" y="1139"/>
      <point x="711" y="1166"/>
      <point x="579" y="1166" type="curve" smooth="yes"/>
      <point x="251" y="1166"/>
      <point x="100" y="1021"/>
      <point x="100" y="815" type="curve" smooth="yes"/>
      <point x="100" y="640"/>
      <point x="213" y="552"/>
      <point x="379" y="470" type="curve" smooth="yes"/>
      <point x="551" y="386"/>
      <point x="686" y="347"/>
      <point x="686" y="238" type="curve" smooth="yes"/>
      <point x="686" y="169"/>
      <point x="631" y="108"/>
      <point x="531" y="108" type="curve" smooth="yes"/>
      <point x="463" y="108"/>
      <point x="408" y="135"/>
      <point x="379" y="155" type="curve" smooth="yes"/>
      <point x="354" y="174"/>
      <point x="346" y="192"/>
      <point x="333" y="234" type="curve" smooth="yes"/>
      <point x="291" y="382" type="line"/>
      <point x="111" y="382" type="line"/>
      <point x="96" y="280"/>
      <point x="91" y="161"/>
    </contour>
    <contour>
      <point x="528" y="0" type="move" name="btm"/>
    </contour>
    <contour>
      <point x="548" y="1138" type="move" name="top"/>
    </contour>
  </outline>
</glyph>
<glyph name="v" format="1">
  <advance width="1299"/>
  <unicode hex="0076"/>
  <outline>
    <contour>
      <point x="650" y="-16" type="line"/>
      <point x="817" y="-16" type="line"/>
      <point x="1152" y="927" type="line" smooth="yes"/>
      <point x="1162" y="953"/>
      <point x="1180" y="965"/>
      <point x="1206" y="973" type="curve" smooth="yes"/>
      <point x="1281" y="997" type="line"/>
      <point x="1281" y="1138" type="line"/>
      <point x="830" y="1138" type="line"/>
      <point x="830" y="994" type="line"/>
      <point x="973" y="963" type="line"/>
    </contour>
    <contour>
      <point x="798" y="127" type="line"/>
      <point x="519" y="963" type="line"/>
      <point x="664" y="994" type="line"/>
      <point x="664" y="1138" type="line"/>
      <point x="5" y="1138" type="line"/>
      <point x="5" y="997" type="line"/>
      <point x="80" y="973" type="line" smooth="yes"/>
      <point x="105" y="965"/>
      <point x="121" y="951"/>
      <point x="132" y="926" type="curve" smooth="yes"/>
      <point x="503" y="-16" type="line"/>
      <point x="748" y="-16" type="line"/>
    </contour>
    <contour>
      <point x="625" y="0" type="move" name="btm"/>
    </contour>
    <contour>
      <point x="625" y="1138" type="move" name="top"/>
    </contour>
  </outline>
</glyph>
<glyph name="w" format="1">
  <advance width="1882"/>
  <unicode hex="0077"/>
  <outline>
    <contour>
      <point x="1294" y="-16" type="line"/>
      <point x="1450" y="-16" type="line"/>
      <point x="1736" y="925" type="line" smooth="yes"/>
      <point x="1745" y="953"/>
      <point x="1762" y="966"/>
      <point x="1789" y="974" type="curve" smooth="yes"/>
      <point x="1862" y="997" type="line"/>
      <point x="1862" y="1138" type="line"/>
      <point x="1409" y="1138" type="line"/>
      <point x="1409" y="994" type="line"/>
      <point x="1555" y="963" type="line"/>
    </contour>
    <contour>
      <point x="709" y="141" type="line"/>
      <point x="480" y="963" type="line"/>
      <point x="619" y="994" type="line"/>
      <point x="619" y="1138" type="line"/>
      <point x="11" y="1138" type="line"/>
      <point x="11" y="997" type="line"/>
      <point x="84" y="974" type="line" smooth="yes"/>
      <point x="112" y="965"/>
      <point x="126" y="953"/>
      <point x="136" y="926" type="curve" smooth="yes"/>
      <point x="446" y="-16" type="line"/>
      <point x="665" y="-16" type="line"/>
    </contour>
    <contour>
      <point x="869" y="966" type="line"/>
      <point x="1170" y="-16" type="line"/>
      <point x="1393" y="-16" type="line"/>
      <point x="1437" y="143" type="line"/>
      <point x="1161" y="1138" type="line"/>
      <point x="931" y="1138" type="line"/>
    </contour>
    <contour>
      <point x="1044" y="1138" type="line"/>
      <point x="871" y="1138" type="line"/>
      <point x="567" y="-16" type="line"/>
      <point x="732" y="-16" type="line"/>
    </contour>
    <contour>
      <point x="949" y="0" type="move" name="btm"/>
    </contour>
    <contour>
      <point x="985" y="1138" type="move" name="top"/>
    </contour>
  </outline>
</glyph>
<glyph name="x" format="1">
  <advance width="1332"/>
  <unicode hex="0078"/>
  <outline>
    <contour>
      <point x="544" y="0" type="line"/>
      <point x="544" y="141" type="line"/>
      <point x="406" y="171" type="line"/>
      <point x="666" y="520" type="line"/>
      <point x="770" y="520" type="line"/>
      <point x="1119" y="946" type="line" smooth="yes"/>
      <point x="1136" y="966"/>
      <point x="1153" y="975"/>
      <point x="1177" y="981" type="curve" smooth="yes"/>
      <point x="1269" y="1000" type="line"/>
      <point x="1269" y="1138" type="line"/>
      <point x="811" y="1138" type="line"/>
      <point x="811" y="1000" type="line"/>
      <point x="924" y="969" type="line"/>
      <point x="674" y="638" type="line"/>
      <point x="562" y="638" type="line"/>
      <point x="201" y="195" type="line" smooth="yes"/>
      <point x="185" y="176"/>
      <point x="167" y="165"/>
      <point x="142" y="160" type="curve" smooth="yes"/>
      <point x="40" y="141" type="line"/>
      <point x="40" y="0" type="line"/>
    </contour>
    <contour>
      <point x="1305" y="0" type="line"/>
      <point x="1305" y="141" type="line"/>
      <point x="1223" y="159" type="line" smooth="yes"/>
      <point x="1198" y="165"/>
      <point x="1180" y="174"/>
      <point x="1165" y="195" type="curve" smooth="yes"/>
      <point x="813" y="654" type="line"/>
      <point x="793" y="654" type="line"/>
      <point x="576" y="969" type="line"/>
      <point x="700" y="1000" type="line"/>
      <point x="700" y="1138" type="line"/>
      <point x="46" y="1138" type="line"/>
      <point x="46" y="1001" type="line"/>
      <point x="128" y="981" type="line" smooth="yes"/>
      <point x="152" y="975"/>
      <point x="169" y="966"/>
      <point x="184" y="945" type="curve" smooth="yes"/>
      <point x="532" y="490" type="line"/>
      <point x="554" y="490" type="line"/>
      <point x="772" y="171" type="line"/>
      <point x="659" y="141" type="line"/>
      <point x="659" y="0" type="line"/>
    </contour>
    <contour>
      <point x="689" y="0" type="move" name="btm"/>
    </contour>
    <contour>
      <point x="689" y="1138" type="move" name="top"/>
    </contour>
  </outline>
</glyph>
<glyph name="braceleft" format="1">
  <advance width="917"/>
  <unicode hex="007B"/>
  <outline>
    <contour>
      <point x="891" y="-268" type="line"/>
      <point x="763" y="-237" type="line" smooth="yes"/>
      <point x="609" y="-200"/>
      <point x="553" y="-133"/>
      <point x="553" y="17" type="curve" smooth="yes"/>
      <point x="553" y="147"/>
      <point x="579" y="333"/>
      <point x="579" y="474" type="curve" smooth="yes"/>
      <point x="579" y="670"/>
      <point x="437" y="754"/>
      <point x="256" y="785" type="curve"/>
      <point x="437" y="816"/>
      <point x="579" y="890"/>
      <point x="579" y="1086" type="curve" smooth="yes"/>
      <point x="579" y="1227"/>
      <point x="553" y="1413"/>
      <point x="553" y="1543" type="curve" smooth="yes"/>
      <point x="553" y="1694"/>
      <point x="609" y="1760"/>
      <point x="763" y="1797" type="curve" smooth="yes"/>
      <point x="891" y="1828" type="line"/>
      <point x="868" y="1985" type="line"/>
      <point x="794" y="1985"/>
      <point x="683" y="1977"/>
      <point x="600" y="1969" type="curve" smooth="yes"/>
      <point x="334" y="1943"/>
      <point x="220" y="1808"/>
      <point x="220" y="1603" type="curve" smooth="yes"/>
      <point x="220" y="1429"/>
      <point x="263" y="1251"/>
      <point x="263" y="1111" type="curve" smooth="yes"/>
      <point x="263" y="978"/>
      <point x="233" y="900"/>
      <point x="16" y="880" type="curve"/>
      <point x="16" y="681" type="line"/>
      <point x="233" y="660"/>
      <point x="263" y="582"/>
      <point x="263" y="449" type="curve" smooth="yes"/>
      <point x="263" y="309"/>
      <point x="220" y="131"/>
      <point x="220" y="-43" type="curve" smooth="yes"/>
      <point x="220" y="-248"/>
      <point x="334" y="-383"/>
      <point x="600" y="-408" type="curve" smooth="yes"/>
      <point x="683" y="-417"/>
      <point x="794" y="-424"/>
      <point x="868" y="-424" type="curve"/>
    </contour>
  </outline>
</glyph>
<glyph name="braceright" format="1">
  <advance width="917"/>
  <unicode hex="007D"/>
  <outline>
    <contour>
      <point x="317" y="-411" type="curve" smooth="yes"/>
      <point x="583" y="-385"/>
      <point x="697" y="-251"/>
      <point x="697" y="-45" type="curve" smooth="yes"/>
      <point x="697" y="129"/>
      <point x="654" y="309"/>
      <point x="654" y="449" type="curve" smooth="yes"/>
      <point x="654" y="582"/>
      <point x="683" y="660"/>
      <point x="901" y="681" type="curve"/>
      <point x="901" y="880" type="line"/>
      <point x="683" y="900"/>
      <point x="654" y="978"/>
      <point x="654" y="1111" type="curve" smooth="yes"/>
      <point x="654" y="1251"/>
      <point x="697" y="1431"/>
      <point x="697" y="1605" type="curve" smooth="yes"/>
      <point x="697" y="1811"/>
      <point x="583" y="1945"/>
      <point x="317" y="1971" type="curve" smooth="yes"/>
      <point x="234" y="1979"/>
      <point x="123" y="1985"/>
      <point x="49" y="1985" type="curve"/>
      <point x="26" y="1828" type="line"/>
      <point x="154" y="1800" type="line" smooth="yes"/>
      <point x="308" y="1765"/>
      <point x="364" y="1696"/>
      <point x="364" y="1546" type="curve" smooth="yes"/>
      <point x="364" y="1415"/>
      <point x="337" y="1227"/>
      <point x="337" y="1086" type="curve" smooth="yes"/>
      <point x="337" y="890"/>
      <point x="480" y="815"/>
      <point x="660" y="784" type="curve"/>
      <point x="480" y="753"/>
      <point x="337" y="670"/>
      <point x="337" y="474" type="curve" smooth="yes"/>
      <point x="337" y="333"/>
      <point x="364" y="145"/>
      <point x="364" y="14" type="curve" smooth="yes"/>
      <point x="364" y="-136"/>
      <point x="308" y="-204"/>
      <point x="154" y="-240" type="curve" smooth="yes"/>
      <point x="26" y="-268" type="line"/>
      <point x="49" y="-424" type="line"/>
      <point x="123" y="-424"/>
      <point x="234" y="-419"/>
    </contour>
  </outline>
</glyph>
<glyph name="exclamdown" format="1">
  <advance width="679"/>
  <unicode hex="00A1"/>
  <outline>
    <contour>
      <point x="539" y="-559" type="line"/>
      <point x="539" y="-348" type="line"/>
      <point x="448" y="644" type="line"/>
      <point x="232" y="644" type="line"/>
      <point x="141" y="-348" type="line"/>
      <point x="141" y="-559" type="line"/>
    </contour>
    <contour>
      <point x="461" y="810"/>
      <point x="540" y="880"/>
      <point x="540" y="989" type="curve" smooth="yes"/>
      <point x="540" y="1099"/>
      <point x="461" y="1169"/>
      <point x="340" y="1169" type="curve" smooth="yes"/>
      <point x="217" y="1169"/>
      <point x="138" y="1099"/>
      <point x="138" y="989" type="curve" smooth="yes"/>
      <point x="138" y="880"/>
      <point x="217" y="810"/>
      <point x="340" y="810" type="curve" smooth="yes"/>
    </contour>
  </outline>
</glyph>
<glyph name="cent" format="1">
  <advance width="1181"/>
  <unicode hex="00A2"/>
  <outline>
    <contour>
      <point x="502" y="76" type="line"/>
      <point x="502" y="-209" type="line"/>
      <point x="699" y="-209" type="line"/>
      <point x="699" y="76" type="line"/>
    </contour>
    <contour>
      <point x="595" y="1129" type="line"/>
      <point x="792" y="1129" type="line"/>
      <point x="792" y="1414" type="line"/>
      <point x="595" y="1414" type="line"/>
    </contour>
    <contour>
      <point x="84" y="589" type="curve" smooth="yes"/>
      <point x="84" y="269"/>
      <point x="250" y="7"/>
      <point x="613" y="7" type="curve" smooth="yes"/>
      <point x="844" y="7"/>
      <point x="1027" y="112"/>
      <point x="1090" y="258" type="curve"/>
      <point x="1004" y="337" type="line"/>
      <point x="953" y="286"/>
      <point x="876" y="226"/>
      <point x="743" y="226" type="curve" smooth="yes"/>
      <point x="562" y="226"/>
      <point x="473" y="375"/>
      <point x="473" y="650" type="curve" smooth="yes"/>
      <point x="473" y="913"/>
      <point x="564" y="1043"/>
      <point x="679" y="1043" type="curve" smooth="yes"/>
      <point x="723" y="1043"/>
      <point x="761" y="1028"/>
      <point x="784" y="1007" type="curve" smooth="yes"/>
      <point x="804" y="989"/>
      <point x="816" y="968"/>
      <point x="826" y="923" type="curve" smooth="yes"/>
      <point x="874" y="721" type="line"/>
      <point x="1058" y="721" type="line"/>
      <point x="1083" y="845"/>
      <point x="1092" y="970"/>
      <point x="1083" y="1105" type="curve"/>
      <point x="993" y="1156"/>
      <point x="842" y="1202"/>
      <point x="687" y="1202" type="curve" smooth="yes"/>
      <point x="347" y="1202"/>
      <point x="84" y="997"/>
    </contour>
  </outline>
</glyph>
<glyph name="yen" format="1">
  <advance width="1529"/>
  <unicode hex="00A5"/>
  <outline>
    <contour>
      <point x="238" y="308" type="line"/>
      <point x="1328" y="308" type="line"/>
      <point x="1328" y="451" type="line"/>
      <point x="238" y="451" type="line"/>
    </contour>
    <contour>
      <point x="238" y="592" type="line"/>
      <point x="1328" y="592" type="line"/>
      <point x="1328" y="734" type="line"/>
      <point x="238" y="734" type="line"/>
    </contour>
    <contour>
      <point x="917" y="573" type="line"/>
      <point x="1292" y="1197" type="line" smooth="yes"/>
      <point x="1305" y="1219"/>
      <point x="1320" y="1227"/>
      <point x="1344" y="1233" type="curve" smooth="yes"/>
      <point x="1449" y="1257" type="line"/>
      <point x="1449" y="1382" type="line"/>
      <point x="938" y="1382" type="line"/>
      <point x="938" y="1257" type="line"/>
      <point x="1100" y="1224" type="line"/>
      <point x="820" y="714" type="line"/>
      <point x="917" y="715" type="line"/>
      <point x="622" y="1221" type="line"/>
      <point x="766" y="1255" type="line"/>
      <point x="766" y="1381" type="line"/>
      <point x="72" y="1381" type="line"/>
      <point x="72" y="1255" type="line"/>
      <point x="186" y="1229" type="line" smooth="yes"/>
      <point x="209" y="1223"/>
      <point x="224" y="1214"/>
      <point x="237" y="1195" type="curve" smooth="yes"/>
      <point x="654" y="573" type="line"/>
    </contour>
    <contour>
      <point x="1178" y="0" type="line"/>
      <point x="1178" y="127" type="line"/>
      <point x="1000" y="162" type="line" smooth="yes"/>
      <point x="972" y="167"/>
      <point x="956" y="182"/>
      <point x="956" y="211" type="curve" smooth="yes"/>
      <point x="956" y="658" type="line"/>
      <point x="610" y="658" type="line"/>
      <point x="610" y="211" type="line" smooth="yes"/>
      <point x="610" y="182"/>
      <point x="595" y="167"/>
      <point x="567" y="162" type="curve" smooth="yes"/>
      <point x="389" y="127" type="line"/>
      <point x="389" y="0" type="line"/>
    </contour>
  </outline>
</glyph>
<glyph name="copyright" format="1">
  <advance width="2004"/>
  <unicode hex="00A9"/>
  <outline>
    <contour>
      <point x="999" y="259" type="curve" smooth="yes"/>
      <point x="1197" y="259"/>
      <point x="1342" y="351"/>
      <point x="1391" y="479" type="curve"/>
      <point x="1320" y="542" type="line"/>
      <point x="1267" y="490"/>
      <point x="1173" y="454"/>
      <point x="1087" y="454" type="curve" smooth="yes"/>
      <point x="928" y="454"/>
      <point x="841" y="574"/>
      <point x="841" y="818" type="curve" smooth="yes"/>
      <point x="841" y="1046"/>
      <point x="917" y="1142"/>
      <point x="1020" y="1142" type="curve" smooth="yes"/>
      <point x="1065" y="1142"/>
      <point x="1103" y="1123"/>
      <point x="1126" y="1103" type="curve" smooth="yes"/>
      <point x="1146" y="1085"/>
      <point x="1154" y="1067"/>
      <point x="1161" y="1040" type="curve" smooth="yes"/>
      <point x="1205" y="869" type="line"/>
      <point x="1359" y="869" type="line"/>
      <point x="1381" y="986"/>
      <point x="1386" y="1101"/>
      <point x="1373" y="1211" type="curve"/>
      <point x="1299" y="1262"/>
      <point x="1168" y="1301"/>
      <point x="1036" y="1301" type="curve" smooth="yes"/>
      <point x="752" y="1301"/>
      <point x="537" y="1121"/>
      <point x="537" y="771" type="curve" smooth="yes"/>
      <point x="537" y="456"/>
      <point x="710" y="259"/>
    </contour>
    <contour>
      <point x="244" y="782" type="curve" smooth="yes"/>
      <point x="244" y="1242"/>
      <point x="558" y="1564"/>
      <point x="1004" y="1564" type="curve" smooth="yes"/>
      <point x="1451" y="1564"/>
      <point x="1760" y="1242"/>
      <point x="1760" y="782" type="curve" smooth="yes"/>
      <point x="1760" y="321"/>
      <point x="1450" y="0"/>
      <point x="1003" y="0" type="curve" smooth="yes"/>
      <point x="557" y="0"/>
      <point x="244" y="321"/>
    </contour>
    <contour>
      <point x="84" y="781" type="curve" smooth="yes"/>
      <point x="84" y="251"/>
      <point x="472" y="-136"/>
      <point x="1003" y="-136" type="curve" smooth="yes"/>
      <point x="1535" y="-136"/>
      <point x="1920" y="251"/>
      <point x="1920" y="782" type="curve" smooth="yes"/>
      <point x="1920" y="1313"/>
      <point x="1536" y="1699"/>
      <point x="1004" y="1699" type="curve" smooth="yes"/>
      <point x="473" y="1699"/>
      <point x="84" y="1313"/>
    </contour>
  </outline>
</glyph>
<glyph name="logicalnot" format="1">
  <advance width="1260"/>
  <unicode hex="00AC"/>
  <outline>
    <contour>
      <point x="128" y="499" type="line"/>
      <point x="876" y="499" type="line"/>
      <point x="876" y="101" type="line"/>
      <point x="1119" y="101" type="line"/>
      <point x="1119" y="726" type="line"/>
      <point x="128" y="726" type="line"/>
    </contour>
  </outline>
</glyph>
<glyph name="degree" format="1">
  <advance width="920"/>
  <unicode hex="00B0"/>
  <outline>
    <contour>
      <point x="459" y="914" type="curve" smooth="yes"/>
      <point x="673" y="914"/>
      <point x="844" y="1076"/>
      <point x="844" y="1293" type="curve" smooth="yes"/>
      <point x="844" y="1499"/>
      <point x="683" y="1671"/>
      <point x="459" y="1671" type="curve" smooth="yes"/>
      <point x="250" y="1671"/>
      <point x="76" y="1509"/>
      <point x="76" y="1293" type="curve" smooth="yes"/>
      <point x="76" y="1086"/>
      <point x="250" y="914"/>
    </contour>
    <contour>
      <point x="460" y="1101" type="curve" smooth="yes"/>
      <point x="363" y="1101"/>
      <point x="282" y="1192"/>
      <point x="282" y="1293" type="curve" smooth="yes"/>
      <point x="282" y="1400"/>
      <point x="354" y="1485"/>
      <point x="457" y="1485" type="curve" smooth="yes"/>
      <point x="557" y="1485"/>
      <point x="635" y="1395"/>
      <point x="635" y="1293" type="curve" smooth="yes"/>
      <point x="635" y="1183"/>
      <point x="565" y="1101"/>
    </contour>
  </outline>
</glyph>
<glyph name="plusminus" format="1">
  <advance width="1166"/>
  <unicode hex="00B1"/>
  <outline>
    <contour>
      <point x="702" y="329" type="line"/>
      <point x="702" y="508" type="line"/>
      <point x="695" y="658" type="line"/>
      <point x="845" y="651" type="line"/>
      <point x="1053" y="651" type="line"/>
      <point x="1053" y="864" type="line"/>
      <point x="845" y="864" type="line"/>
      <point x="695" y="857" type="line"/>
      <point x="702" y="1008" type="line"/>
      <point x="702" y="1203" type="line"/>
      <point x="465" y="1203" type="line"/>
      <point x="465" y="1008" type="line"/>
      <point x="472" y="857" type="line"/>
      <point x="322" y="864" type="line"/>
      <point x="114" y="864" type="line"/>
      <point x="114" y="651" type="line"/>
      <point x="322" y="651" type="line"/>
      <point x="472" y="658" type="line"/>
      <point x="465" y="508" type="line"/>
      <point x="465" y="329" type="line"/>
    </contour>
    <contour>
      <point x="1043" y="0" type="line"/>
      <point x="1043" y="210" type="line"/>
      <point x="124" y="210" type="line"/>
      <point x="124" y="0" type="line"/>
    </contour>
  </outline>
</glyph>
<glyph name="twosuperior" format="1">
  <advance width="1038"/>
  <unicode hex="00B2"/>
  <outline>
    <contour>
      <point x="133" y="624" type="line"/>
      <point x="903" y="624" type="line"/>
      <point x="929" y="720"/>
      <point x="944" y="861"/>
      <point x="949" y="957" type="curve"/>
      <point x="808" y="973" type="line"/>
      <point x="752" y="855" type="line" smooth="yes"/>
      <point x="738" y="824"/>
      <point x="702" y="797"/>
      <point x="561" y="797" type="curve" smooth="yes"/>
      <point x="265" y="797" type="line"/>
      <point x="282" y="741" type="line"/>
      <point x="516" y="833"/>
      <point x="863" y="1046"/>
      <point x="863" y="1326" type="curve" smooth="yes"/>
      <point x="863" y="1494"/>
      <point x="737" y="1639"/>
      <point x="487" y="1639" type="curve" smooth="yes"/>
      <point x="269" y="1639"/>
      <point x="148" y="1528"/>
      <point x="110" y="1422" type="curve"/>
      <point x="176" y="1356" type="line"/>
      <point x="240" y="1417"/>
      <point x="319" y="1454"/>
      <point x="398" y="1454" type="curve" smooth="yes"/>
      <point x="513" y="1454"/>
      <point x="572" y="1382"/>
      <point x="572" y="1283" type="curve" smooth="yes"/>
      <point x="572" y="1103"/>
      <point x="375" y="931"/>
      <point x="97" y="742" type="curve"/>
    </contour>
  </outline>
</glyph>
<glyph name="paragraph" format="1">
  <advance width="1588"/>
  <unicode hex="00B6"/>
  <outline>
    <contour>
      <point x="294" y="-398" type="line"/>
      <point x="661" y="-307"/>
      <point x="792" y="-174"/>
      <point x="792" y="207" type="curve" smooth="yes"/>
      <point x="792" y="1405" type="line"/>
      <point x="859" y="1405"/>
      <point x="952" y="1398"/>
      <point x="1010" y="1394" type="curve"/>
      <point x="1010" y="0" type="line"/>
      <point x="1492" y="0" type="line"/>
      <point x="1492" y="144" type="line"/>
      <point x="1336" y="174" type="line" smooth="yes"/>
      <point x="1306" y="180"/>
      <point x="1290" y="199"/>
      <point x="1290" y="229" type="curve" smooth="yes"/>
      <point x="1290" y="1326" type="line" smooth="yes"/>
      <point x="1290" y="1357"/>
      <point x="1307" y="1374"/>
      <point x="1337" y="1381" type="curve" smooth="yes"/>
      <point x="1482" y="1411" type="line"/>
      <point x="1482" y="1562" type="line"/>
      <point x="1258" y="1562" type="line" smooth="yes"/>
      <point x="991" y="1562"/>
      <point x="765" y="1591"/>
      <point x="579" y="1591" type="curve" smooth="yes"/>
      <point x="224" y="1591"/>
      <point x="66" y="1406"/>
      <point x="66" y="1149" type="curve" smooth="yes"/>
      <point x="66" y="830"/>
      <point x="293" y="692"/>
      <point x="515" y="665" type="curve"/>
      <point x="514" y="307" type="line" smooth="yes"/>
      <point x="513" y="-16"/>
      <point x="458" y="-132"/>
      <point x="231" y="-246" type="curve"/>
    </contour>
  </outline>
</glyph>
<glyph name="onesuperior" format="1">
  <advance width="972"/>
  <unicode hex="00B9"/>
  <outline>
    <contour>
      <point x="660" y="1611" type="line"/>
      <point x="491" y="1641" type="line"/>
      <point x="375" y="1546"/>
      <point x="233" y="1475"/>
      <point x="105" y="1443" type="curve"/>
      <point x="135" y="1310" type="line"/>
      <point x="225" y="1314"/>
      <point x="319" y="1327"/>
      <point x="396" y="1354" type="curve"/>
      <point x="395" y="847" type="line" smooth="yes"/>
      <point x="395" y="815"/>
      <point x="381" y="802"/>
      <point x="349" y="797" type="curve" smooth="yes"/>
      <point x="129" y="765" type="line"/>
      <point x="129" y="624" type="line"/>
      <point x="906" y="624" type="line"/>
      <point x="906" y="765" type="line"/>
      <point x="703" y="797" type="line" smooth="yes"/>
      <point x="671" y="802"/>
      <point x="660" y="815"/>
      <point x="660" y="846" type="curve" smooth="yes"/>
    </contour>
  </outline>
</glyph>
<glyph name="questiondown" format="1">
  <advance width="1142"/>
  <unicode hex="00BF"/>
  <outline>
    <contour>
      <point x="536" y="645" type="line"/>
      <point x="514" y="497" type="line" smooth="yes"/>
      <point x="501" y="411"/>
      <point x="496" y="412"/>
      <point x="393" y="339" type="curve" smooth="yes"/>
      <point x="195" y="201"/>
      <point x="58" y="75"/>
      <point x="58" y="-135" type="curve" smooth="yes"/>
      <point x="58" y="-399"/>
      <point x="275" y="-603"/>
      <point x="609" y="-603" type="curve" smooth="yes"/>
      <point x="800" y="-603"/>
      <point x="972" y="-533"/>
      <point x="1082" y="-441" type="curve"/>
      <point x="1073" y="-305"/>
      <point x="1044" y="-157"/>
      <point x="1001" y="-32" type="curve"/>
      <point x="787" y="-32" type="line"/>
      <point x="758" y="-270" type="line" smooth="yes"/>
      <point x="752" y="-317"/>
      <point x="743" y="-342"/>
      <point x="719" y="-371" type="curve" smooth="yes"/>
      <point x="693" y="-400"/>
      <point x="649" y="-432"/>
      <point x="589" y="-432" type="curve" smooth="yes"/>
      <point x="493" y="-432"/>
      <point x="428" y="-347"/>
      <point x="428" y="-234" type="curve" smooth="yes"/>
      <point x="428" y="-108"/>
      <point x="492" y="-14"/>
      <point x="626" y="110" type="curve" smooth="yes"/>
      <point x="740" y="214"/>
      <point x="832" y="278"/>
      <point x="832" y="399" type="curve" smooth="yes"/>
      <point x="832" y="482"/>
      <point x="781" y="580"/>
      <point x="744" y="645" type="curve"/>
    </contour>
    <contour>
      <point x="517" y="1169"/>
      <point x="438" y="1098"/>
      <point x="438" y="990" type="curve" smooth="yes"/>
      <point x="438" y="882"/>
      <point x="517" y="810"/>
      <point x="639" y="810" type="curve" smooth="yes"/>
      <point x="761" y="810"/>
      <point x="840" y="880"/>
      <point x="840" y="990" type="curve" smooth="yes"/>
      <point x="840" y="1099"/>
      <point x="761" y="1169"/>
      <point x="639" y="1169" type="curve" smooth="yes"/>
    </contour>
  </outline>
</glyph>
<glyph name="AE" format="1">
  <advance width="2144"/>
  <unicode hex="00C6"/>
  <outline>
    <contour>
      <point x="2034" y="0" type="line"/>
      <point x="2059" y="163"/>
      <point x="2071" y="309"/>
      <point x="2072" y="470" type="curve"/>
      <point x="1894" y="498" type="line"/>
      <point x="1808" y="250" type="line" smooth="yes"/>
      <point x="1795" y="214"/>
      <point x="1784" y="197"/>
      <point x="1754" y="185" type="curve" smooth="yes"/>
      <point x="1720" y="171"/>
      <point x="1639" y="163"/>
      <point x="1573" y="163" type="curve" smooth="yes"/>
      <point x="1362" y="163" type="line"/>
      <point x="1362" y="695" type="line"/>
      <point x="1792" y="684" type="line"/>
      <point x="1792" y="888" type="line"/>
      <point x="1362" y="872" type="line"/>
      <point x="1362" y="1407" type="line"/>
      <point x="1531" y="1407" type="line" smooth="yes"/>
      <point x="1597" y="1407"/>
      <point x="1663" y="1398"/>
      <point x="1698" y="1385" type="curve" smooth="yes"/>
      <point x="1727" y="1373"/>
      <point x="1746" y="1355"/>
      <point x="1756" y="1320" type="curve" smooth="yes"/>
      <point x="1810" y="1135" type="line"/>
      <point x="1988" y="1135" type="line"/>
      <point x="2000" y="1281"/>
      <point x="2000" y="1421"/>
      <point x="1982" y="1562" type="curve"/>
      <point x="1000" y="1562" type="line"/>
      <point x="1000" y="229" type="line" smooth="yes"/>
      <point x="1000" y="198"/>
      <point x="985" y="179"/>
      <point x="954" y="173" type="curve" smooth="yes"/>
      <point x="798" y="144" type="line"/>
      <point x="798" y="0" type="line"/>
    </contour>
    <contour>
      <point x="591" y="0" type="line"/>
      <point x="591" y="144" type="line"/>
      <point x="392" y="173" type="line"/>
      <point x="906" y="1392" type="line"/>
      <point x="1074" y="1392" type="line"/>
      <point x="1082" y="1562" type="line"/>
      <point x="764" y="1562" type="line"/>
      <point x="183" y="224" type="line" smooth="yes"/>
      <point x="173" y="199"/>
      <point x="157" y="183"/>
      <point x="132" y="177" type="curve" smooth="yes"/>
      <point x="-20" y="144" type="line"/>
      <point x="-20" y="0" type="line"/>
    </contour>
    <contour>
      <point x="1135" y="548" type="line"/>
      <point x="1135" y="718" type="line"/>
      <point x="499" y="718" type="line"/>
      <point x="445" y="548" type="line"/>
    </contour>
    <contour>
      <point x="814" y="1562" type="line"/>
      <point x="426" y="1562" type="line"/>
      <point x="426" y="1412" type="line"/>
      <point x="738" y="1362" type="line"/>
    </contour>
    <contour>
      <point x="1104" y="0" type="move" name="btm"/>
    </contour>
    <contour>
      <point x="1175" y="1562" type="move" name="top"/>
    </contour>
  </outline>
</glyph>
<glyph name="multiply" format="1">
  <advance width="1109"/>
  <unicode hex="00D7"/>
  <outline>
    <contour>
      <point x="270" y="154" type="line"/>
      <point x="554" y="464" type="line"/>
      <point x="838" y="154" type="line"/>
      <point x="1009" y="331" type="line"/>
      <point x="713" y="617" type="line"/>
      <point x="1009" y="903" type="line"/>
      <point x="837" y="1080" type="line"/>
      <point x="554" y="770" type="line"/>
      <point x="272" y="1080" type="line"/>
      <point x="99" y="903" type="line"/>
      <point x="395" y="617" type="line"/>
      <point x="99" y="331" type="line"/>
    </contour>
  </outline>
</glyph>
<glyph name="Thorn" format="1">
  <advance width="1467"/>
  <unicode hex="00DE"/>
  <outline>
    <contour>
      <point x="864" y="0" type="line"/>
      <point x="864" y="144" type="line"/>
      <point x="698" y="174" type="line" smooth="yes"/>
      <point x="667" y="180"/>
      <point x="652" y="199"/>
      <point x="652" y="230" type="curve" smooth="yes"/>
      <point x="652" y="1324" type="line" smooth="yes"/>
      <point x="652" y="1355"/>
      <point x="668" y="1374"/>
      <point x="698" y="1381" type="curve" smooth="yes"/>
      <point x="864" y="1411" type="line"/>
      <point x="864" y="1562" type="line"/>
      <point x="93" y="1562" type="line"/>
      <point x="93" y="1411" type="line"/>
      <point x="231" y="1381" type="line" smooth="yes"/>
      <point x="262" y="1374"/>
      <point x="278" y="1355"/>
      <point x="278" y="1324" type="curve" smooth="yes"/>
      <point x="278" y="229" type="line" smooth="yes"/>
      <point x="278" y="198"/>
      <point x="262" y="179"/>
      <point x="231" y="173" type="curve" smooth="yes"/>
      <point x="93" y="144" type="line"/>
      <point x="93" y="0" type="line"/>
    </contour>
    <contour>
      <point x="1211" y="325"/>
      <point x="1401" y="475"/>
      <point x="1401" y="809" type="curve" smooth="yes"/>
      <point x="1401" y="1099"/>
      <point x="1249" y="1231"/>
      <point x="944" y="1231" type="curve" smooth="yes"/>
      <point x="838" y="1231"/>
      <point x="718" y="1219"/>
      <point x="607" y="1208" type="curve"/>
      <point x="607" y="1062" type="line"/>
      <point x="673" y="1075"/>
      <point x="734" y="1079"/>
      <point x="788" y="1079" type="curve" smooth="yes"/>
      <point x="949" y="1080"/>
      <point x="1003" y="949"/>
      <point x="1003" y="796" type="curve" smooth="yes"/>
      <point x="1003" y="563"/>
      <point x="925" y="467"/>
      <point x="796" y="467" type="curve" smooth="yes"/>
      <point x="745" y="467"/>
      <point x="682" y="473"/>
      <point x="615" y="485" type="curve"/>
      <point x="615" y="338" type="line"/>
      <point x="695" y="330"/>
      <point x="766" y="325"/>
      <point x="866" y="325" type="curve" smooth="yes"/>
    </contour>
  </outline>
</glyph>
<glyph name="germandbls" format="1">
  <advance width="1669"/>
  <unicode hex="00DF"/>
  <outline>
    <contour>
      <point x="1627" y="335" type="curve" smooth="yes"/>
      <point x="1627" y="504"/>
      <point x="1535" y="595"/>
      <point x="1351" y="705" type="curve" smooth="yes"/>
      <point x="1210" y="790"/>
      <point x="1138" y="839"/>
      <point x="1138" y="919" type="curve" smooth="yes"/>
      <point x="1138" y="1008"/>
      <point x="1228" y="1069"/>
      <point x="1360" y="1101" type="curve"/>
      <point x="1396" y="1195"/>
      <point x="1416" y="1284"/>
      <point x="1415" y="1367" type="curve" smooth="yes"/>
      <point x="1411" y="1658"/>
      <point x="1160" y="1799"/>
      <point x="911" y="1799" type="curve" smooth="yes"/>
      <point x="546" y="1799"/>
      <point x="234" y="1501"/>
      <point x="234" y="1199" type="curve" smooth="yes"/>
      <point x="234" y="218" type="line" smooth="yes"/>
      <point x="234" y="187"/>
      <point x="218" y="168"/>
      <point x="187" y="162" type="curve" smooth="yes"/>
      <point x="79" y="142" type="line"/>
      <point x="79" y="0" type="line"/>
      <point x="595" y="0" type="line"/>
      <point x="595" y="1301" type="line" smooth="yes"/>
      <point x="595" y="1503"/>
      <point x="680" y="1584"/>
      <point x="814" y="1584" type="curve" smooth="yes"/>
      <point x="968" y="1584"/>
      <point x="1054" y="1477"/>
      <point x="1054" y="1306" type="curve" smooth="yes"/>
      <point x="1054" y="1252"/>
      <point x="1045" y="1200"/>
      <point x="1031" y="1143" type="curve"/>
      <point x="896" y="1074"/>
      <point x="793" y="968"/>
      <point x="793" y="813" type="curve" smooth="yes"/>
      <point x="793" y="662"/>
      <point x="888" y="572"/>
      <point x="1028" y="489" type="curve" smooth="yes"/>
      <point x="1163" y="410"/>
      <point x="1268" y="346"/>
      <point x="1268" y="235" type="curve" smooth="yes"/>
      <point x="1268" y="156"/>
      <point x="1206" y="111"/>
      <point x="1130" y="111" type="curve" smooth="yes"/>
      <point x="1082" y="111"/>
      <point x="1040" y="130"/>
      <point x="1011" y="153" type="curve" smooth="yes"/>
      <point x="986" y="174"/>
      <point x="980" y="189"/>
      <point x="966" y="237" type="curve" smooth="yes"/>
      <point x="924" y="387" type="line"/>
      <point x="744" y="387" type="line"/>
      <point x="735" y="327"/>
      <point x="730" y="259"/>
      <point x="730" y="189" type="curve" smooth="yes"/>
      <point x="730" y="145"/>
      <point x="732" y="96"/>
      <point x="738" y="53" type="curve"/>
      <point x="842" y="8"/>
      <point x="994" y="-29"/>
      <point x="1144" y="-29" type="curve" smooth="yes"/>
      <point x="1419" y="-29"/>
      <point x="1627" y="92"/>
    </contour>
    <contour>
      <point x="357" y="931" type="line"/>
      <point x="357" y="1148" type="line"/>
      <point x="275" y="1148" type="line"/>
      <point x="67" y="1106" type="line"/>
      <point x="67" y="969" type="line"/>
      <point x="275" y="931" type="line"/>
    </contour>
  </outline>
</glyph>
<glyph name="ae" format="1">
  <advance width="1793"/>
  <unicode hex="00E6"/>
  <outline>
    <contour>
      <point x="1704" y="249" type="curve"/>
      <point x="1626" y="307" type="line"/>
      <point x="1559" y="232"/>
      <point x="1447" y="195"/>
      <point x="1342" y="195" type="curve" smooth="yes"/>
      <point x="1146" y="195"/>
      <point x="1061" y="317"/>
      <point x="1061" y="630" type="curve" smooth="yes"/>
      <point x="1061" y="925"/>
      <point x="1134" y="1019"/>
      <point x="1236" y="1019" type="curve" smooth="yes"/>
      <point x="1336" y="1019"/>
      <point x="1384" y="925"/>
      <point x="1384" y="798" type="curve" smooth="yes"/>
      <point x="1384" y="779"/>
      <point x="1384" y="764"/>
      <point x="1383" y="752" type="curve"/>
      <point x="944" y="752" type="line"/>
      <point x="944" y="618" type="line"/>
      <point x="1696" y="618" type="line"/>
      <point x="1706" y="665"/>
      <point x="1713" y="729"/>
      <point x="1713" y="779" type="curve" smooth="yes"/>
      <point x="1713" y="1003"/>
      <point x="1574" y="1167"/>
      <point x="1265" y="1167" type="curve" smooth="yes"/>
      <point x="895" y="1167"/>
      <point x="713" y="930"/>
      <point x="713" y="555" type="curve" smooth="yes"/>
      <point x="713" y="203"/>
      <point x="873" y="-26"/>
      <point x="1233" y="-26" type="curve" smooth="yes"/>
      <point x="1451" y="-26"/>
      <point x="1647" y="60"/>
    </contour>
    <contour>
      <point x="851" y="230" type="curve"/>
      <point x="808" y="299" type="line"/>
      <point x="734" y="226"/>
      <point x="645" y="176"/>
      <point x="552" y="176" type="curve" smooth="yes"/>
      <point x="467" y="176"/>
      <point x="435" y="217"/>
      <point x="435" y="301" type="curve" smooth="yes"/>
      <point x="435" y="385"/>
      <point x="471" y="458"/>
      <point x="602" y="466" type="curve" smooth="yes"/>
      <point x="772" y="476" type="line"/>
      <point x="772" y="610" type="line"/>
      <point x="508" y="595" type="line" smooth="yes"/>
      <point x="275" y="583"/>
      <point x="65" y="473"/>
      <point x="65" y="256" type="curve" smooth="yes"/>
      <point x="65" y="89"/>
      <point x="189" y="-23"/>
      <point x="410" y="-23" type="curve" smooth="yes"/>
      <point x="615" y="-23"/>
      <point x="776" y="73"/>
    </contour>
    <contour>
      <point x="1001" y="680" type="line"/>
      <point x="982" y="977"/>
      <point x="891" y="1166"/>
      <point x="575" y="1166" type="curve" smooth="yes"/>
      <point x="345" y="1166"/>
      <point x="165" y="1065"/>
      <point x="99" y="886" type="curve"/>
      <point x="181" y="815" type="line"/>
      <point x="268" y="894"/>
      <point x="377" y="933"/>
      <point x="488" y="933" type="curve" smooth="yes"/>
      <point x="626" y="933"/>
      <point x="712" y="875"/>
      <point x="712" y="717" type="curve" smooth="yes"/>
      <point x="712" y="523" type="line"/>
    </contour>
    <contour>
      <point x="935" y="1138" type="move" name="top"/>
    </contour>
  </outline>
</glyph>
<glyph name="eth" format="1">
  <advance width="1311"/>
  <unicode hex="00F0"/>
  <outline>
    <contour>
      <point x="1208" y="655" type="curve" smooth="yes"/>
      <point x="1208" y="1178"/>
      <point x="891" y="1660"/>
      <point x="258" y="1799" type="curve"/>
      <point x="196" y="1671" type="line"/>
      <point x="684" y="1416"/>
      <point x="832" y="1148"/>
      <point x="832" y="599" type="curve" smooth="yes"/>
      <point x="832" y="252"/>
      <point x="782" y="131"/>
      <point x="651" y="131" type="curve" smooth="yes"/>
      <point x="519" y="131"/>
      <point x="473" y="288"/>
      <point x="473" y="548" type="curve" smooth="yes"/>
      <point x="473" y="850"/>
      <point x="537" y="935"/>
      <point x="654" y="935" type="curve" smooth="yes"/>
      <point x="744" y="935"/>
      <point x="810" y="890"/>
      <point x="854" y="819" type="curve"/>
      <point x="881" y="826" type="line"/>
      <point x="877" y="1040"/>
      <point x="705" y="1127"/>
      <point x="547" y="1127" type="curve" smooth="yes"/>
      <point x="343" y="1127"/>
      <point x="82" y="977"/>
      <point x="82" y="549" type="curve" smooth="yes"/>
      <point x="82" y="171"/>
      <point x="285" y="-23"/>
      <point x="620" y="-23" type="curve" smooth="yes"/>
      <point x="1072" y="-23"/>
      <point x="1208" y="310"/>
    </contour>
    <contour>
      <point x="692" y="1443" type="line"/>
      <point x="1041" y="1640" type="line"/>
      <point x="944" y="1797" type="line"/>
      <point x="588" y="1563" type="line"/>
      <point x="220" y="1350" type="line"/>
      <point x="316" y="1190" type="line"/>
    </contour>
  </outline>
</glyph>
<glyph name="thorn" format="1">
  <advance width="1336"/>
  <unicode hex="00FE"/>
  <outline>
    <contour>
      <point x="1254" y="624" type="curve" smooth="yes"/>
      <point x="1254" y="1000"/>
      <point x="1071" y="1168"/>
      <point x="829" y="1168" type="curve" smooth="yes"/>
      <point x="650" y="1168"/>
      <point x="529" y="1078"/>
      <point x="445" y="951" type="curve"/>
      <point x="476" y="888" type="line"/>
      <point x="506" y="923"/>
      <point x="583" y="956"/>
      <point x="667" y="956" type="curve" smooth="yes"/>
      <point x="808" y="956"/>
      <point x="876" y="851"/>
      <point x="874" y="568" type="curve" smooth="yes"/>
      <point x="872" y="226"/>
      <point x="779" y="117"/>
      <point x="636" y="117" type="curve" smooth="yes"/>
      <point x="573" y="117"/>
      <point x="510" y="129"/>
      <point x="466" y="181" type="curve"/>
      <point x="448" y="2" type="line"/>
      <point x="515" y="-15"/>
      <point x="580" y="-23"/>
      <point x="637" y="-23" type="curve" smooth="yes"/>
      <point x="1013" y="-23"/>
      <point x="1254" y="202"/>
    </contour>
    <contour>
      <point x="472" y="1800" type="line"/>
      <point x="332" y="1799"/>
      <point x="124" y="1775"/>
      <point x="-17" y="1738" type="curve"/>
      <point x="-17" y="1595" type="line"/>
      <point x="113" y="1574" type="line" smooth="yes"/>
      <point x="143" y="1569"/>
      <point x="159" y="1549"/>
      <point x="159" y="1518" type="curve" smooth="yes"/>
      <point x="159" y="-277" type="line" smooth="yes"/>
      <point x="159" y="-308"/>
      <point x="143" y="-327"/>
      <point x="113" y="-333" type="curve" smooth="yes"/>
      <point x="4" y="-354" type="line"/>
      <point x="4" y="-496" type="line"/>
      <point x="723" y="-496" type="line"/>
      <point x="723" y="-354" type="line"/>
      <point x="568" y="-333" type="line" smooth="yes"/>
      <point x="537" y="-329"/>
      <point x="520" y="-309"/>
      <point x="520" y="-277" type="curve" smooth="yes"/>
      <point x="520" y="1756" type="line"/>
    </contour>
    <contour>
      <point x="611" y="-170" type="move" name="btm"/>
    </contour>
    <contour>
      <point x="662" y="1700" type="move" name="top"/>
    </contour>
  </outline>
</glyph>
<glyph name="Aogonek" format="1">
  <advance width="1607"/>
  <unicode hex="0104"/>
  <outline>
    <contour>
      <point x="1550" y="-442" type="curve"/>
      <point x="1497" y="-303" type="line"/>
      <point x="1461" y="-318"/>
      <point x="1422" y="-326"/>
      <point x="1385" y="-326" type="curve" smooth="yes"/>
      <point x="1312" y="-326"/>
      <point x="1257" y="-295"/>
      <point x="1257" y="-225" type="curve" smooth="yes"/>
      <point x="1257" y="-131"/>
      <point x="1364" y="-34"/>
      <point x="1525" y="12" type="curve"/>
      <point x="1261" y="13" type="line"/>
      <point x="1261" y="-5" type="line"/>
      <point x="1111" y="-56"/>
      <point x="976" y="-166"/>
      <point x="976" y="-307" type="curve" smooth="yes"/>
      <point x="976" y="-447"/>
      <point x="1097" y="-517"/>
      <point x="1258" y="-519" type="curve" smooth="yes"/>
      <point x="1357" y="-520"/>
      <point x="1471" y="-493"/>
    </contour>
    <contour>
      <point x="365" y="457" type="line"/>
      <point x="1096" y="457" type="line"/>
      <point x="1040" y="628" type="line"/>
      <point x="412" y="628" type="line"/>
    </contour>
    <contour>
      <point x="981" y="1567" type="line"/>
      <point x="626" y="1567" type="line"/>
      <point x="171" y="225" type="line" smooth="yes"/>
      <point x="162" y="198"/>
      <point x="146" y="184"/>
      <point x="119" y="177" type="curve" smooth="yes"/>
      <point x="-17" y="144" type="line"/>
      <point x="-17" y="0" type="line"/>
      <point x="567" y="0" type="line"/>
      <point x="567" y="144" type="line"/>
      <point x="376" y="175" type="line"/>
      <point x="755" y="1423" type="line"/>
      <point x="671" y="1423" type="line"/>
      <point x="1058" y="175" type="line"/>
      <point x="867" y="144" type="line"/>
      <point x="867" y="0" type="line"/>
      <point x="1617" y="0" type="line"/>
      <point x="1617" y="144" type="line"/>
      <point x="1492" y="177" type="line" smooth="yes"/>
      <point x="1466" y="185"/>
      <point x="1448" y="198"/>
      <point x="1439" y="225" type="curve" smooth="yes"/>
    </contour>
    <contour>
      <point x="655" y="-170" type="move" name="btm"/>
    </contour>
    <contour>
      <point x="790" y="1700" type="move" name="top"/>
    </contour>
  </outline>
</glyph>
<glyph name="aogonek" format="1">
  <advance width="1251"/>
  <unicode hex="0105"/>
  <outline>
    <contour>
      <point x="1191" y="-442" type="curve"/>
      <point x="1140" y="-303" type="line"/>
      <point x="1104" y="-318"/>
      <point x="1066" y="-326"/>
      <point x="1029" y="-326" type="curve" smooth="yes"/>
      <point x="957" y="-326"/>
      <point x="903" y="-295"/>
      <point x="903" y="-225" type="curve" smooth="yes"/>
      <point x="903" y="-131"/>
      <point x="1007" y="-34"/>
      <point x="1163" y="12" type="curve"/>
      <point x="898" y="4" type="line"/>
      <point x="898" y="-14" type="line"/>
      <point x="758" y="-61"/>
      <point x="626" y="-170"/>
      <point x="626" y="-307" type="curve" smooth="yes"/>
      <point x="626" y="-447"/>
      <point x="745" y="-517"/>
      <point x="904" y="-519" type="curve" smooth="yes"/>
      <point x="1001" y="-520"/>
      <point x="1113" y="-493"/>
    </contour>
    <contour>
      <point x="398" y="-23" type="curve" smooth="yes"/>
      <point x="578" y="-23"/>
      <point x="718" y="56"/>
      <point x="788" y="194" type="curve"/>
      <point x="762" y="271" type="line"/>
      <point x="712" y="213"/>
      <point x="637" y="176"/>
      <point x="552" y="176" type="curve" smooth="yes"/>
      <point x="467" y="176"/>
      <point x="435" y="217"/>
      <point x="435" y="301" type="curve" smooth="yes"/>
      <point x="435" y="387"/>
      <point x="472" y="459"/>
      <point x="602" y="466" type="curve" smooth="yes"/>
      <point x="769" y="476" type="line"/>
      <point x="769" y="608" type="line"/>
      <point x="508" y="594" type="line" smooth="yes"/>
      <point x="274" y="581"/>
      <point x="65" y="472"/>
      <point x="65" y="258" type="curve" smooth="yes"/>
      <point x="65" y="89"/>
      <point x="194" y="-23"/>
    </contour>
    <contour>
      <point x="181" y="815" type="line"/>
      <point x="270" y="894"/>
      <point x="373" y="933"/>
      <point x="495" y="933" type="curve" smooth="yes"/>
      <point x="636" y="933"/>
      <point x="712" y="881"/>
      <point x="712" y="717" type="curve" smooth="yes"/>
      <point x="712" y="190" type="line"/>
      <point x="743" y="32"/>
      <point x="835" y="-19"/>
      <point x="975" y="-19" type="curve" smooth="yes"/>
      <point x="1056" y="-19"/>
      <point x="1159" y="5"/>
      <point x="1212" y="20" type="curve"/>
      <point x="1212" y="155" type="line"/>
      <point x="1113" y="167" type="line" smooth="yes"/>
      <point x="1080" y="171"/>
      <point x="1062" y="186"/>
      <point x="1062" y="228" type="curve" smooth="yes"/>
      <point x="1062" y="723" type="line" smooth="yes"/>
      <point x="1062" y="1015"/>
      <point x="926" y="1166"/>
      <point x="602" y="1166" type="curve" smooth="yes"/>
      <point x="331" y="1166"/>
      <point x="165" y="1059"/>
      <point x="99" y="886" type="curve"/>
    </contour>
    <contour>
      <point x="563" y="-170" type="move" name="btm"/>
    </contour>
    <contour>
      <point x="577" y="1700" type="move" name="top"/>
    </contour>
  </outline>
</glyph>
<glyph name="Dcroat" format="1">
  <advance width="1690"/>
  <unicode hex="0110"/>
  <outline>
    <contour>
      <point x="101" y="713" type="line"/>
      <point x="926" y="713" type="line"/>
      <point x="926" y="879" type="line"/>
      <point x="101" y="879" type="line"/>
    </contour>
    <contour>
      <point x="476" y="1562" type="curve" smooth="yes"/>
      <point x="90" y="1562" type="line"/>
      <point x="90" y="1411" type="line"/>
      <point x="252" y="1379" type="line" smooth="yes"/>
      <point x="276" y="1374"/>
      <point x="292" y="1355"/>
      <point x="292" y="1330" type="curve" smooth="yes"/>
      <point x="292" y="224" type="line" smooth="yes"/>
      <point x="292" y="199"/>
      <point x="276" y="178"/>
      <point x="250" y="174" type="curve" smooth="yes"/>
      <point x="90" y="144" type="line"/>
      <point x="90" y="0" type="line"/>
      <point x="480" y="0" type="line" smooth="yes"/>
      <point x="559" y="0"/>
      <point x="718" y="-14"/>
      <point x="810" y="-16" type="curve" smooth="yes"/>
      <point x="1305" y="-26"/>
      <point x="1596" y="279"/>
      <point x="1596" y="833" type="curve" smooth="yes"/>
      <point x="1596" y="1348"/>
      <point x="1343" y="1574"/>
      <point x="834" y="1574" type="curve" smooth="yes"/>
      <point x="718" y="1574"/>
      <point x="612" y="1562"/>
    </contour>
    <contour>
      <point x="672" y="161" type="curve"/>
      <point x="672" y="1409" type="line"/>
      <point x="684" y="1410"/>
      <point x="739" y="1426"/>
      <point x="807" y="1426" type="curve" smooth="yes"/>
      <point x="1078" y="1426"/>
      <point x="1182" y="1184"/>
      <point x="1182" y="776" type="curve" smooth="yes"/>
      <point x="1182" y="295"/>
      <point x="1045" y="142"/>
      <point x="815" y="140" type="curve" smooth="yes"/>
      <point x="767" y="140"/>
      <point x="706" y="146"/>
    </contour>
    <contour>
      <point x="891" y="-170" type="move" name="btm"/>
    </contour>
    <contour>
      <point x="864" y="1700" type="move" name="top"/>
    </contour>
  </outline>
</glyph>
<glyph name="Eogonek" format="1">
  <advance width="1452"/>
  <unicode hex="0118"/>
  <outline>
    <contour>
      <point x="1343" y="0" type="line"/>
      <point x="1368" y="163"/>
      <point x="1380" y="309"/>
      <point x="1380" y="470" type="curve"/>
      <point x="1203" y="498" type="line"/>
      <point x="1117" y="250" type="line" smooth="yes"/>
      <point x="1104" y="214"/>
      <point x="1092" y="196"/>
      <point x="1063" y="185" type="curve" smooth="yes"/>
      <point x="1029" y="171"/>
      <point x="948" y="163"/>
      <point x="882" y="163" type="curve" smooth="yes"/>
      <point x="671" y="163" type="line"/>
      <point x="671" y="704" type="line"/>
      <point x="1101" y="693" type="line"/>
      <point x="1101" y="898" type="line"/>
      <point x="671" y="882" type="line"/>
      <point x="671" y="1407" type="line"/>
      <point x="840" y="1407" type="line" smooth="yes"/>
      <point x="906" y="1407"/>
      <point x="972" y="1398"/>
      <point x="1006" y="1385" type="curve" smooth="yes"/>
      <point x="1036" y="1373"/>
      <point x="1055" y="1355"/>
      <point x="1065" y="1320" type="curve" smooth="yes"/>
      <point x="1119" y="1135" type="line"/>
      <point x="1297" y="1135" type="line"/>
      <point x="1309" y="1281"/>
      <point x="1309" y="1421"/>
      <point x="1291" y="1562" type="curve"/>
      <point x="89" y="1562" type="line"/>
      <point x="89" y="1411" type="line"/>
      <point x="245" y="1381" type="line" smooth="yes"/>
      <point x="276" y="1374"/>
      <point x="291" y="1355"/>
      <point x="291" y="1324" type="curve" smooth="yes"/>
      <point x="291" y="229" type="line" smooth="yes"/>
      <point x="291" y="198"/>
      <point x="276" y="179"/>
      <point x="245" y="173" type="curve" smooth="yes"/>
      <point x="89" y="144" type="line"/>
      <point x="89" y="0" type="line"/>
    </contour>
    <contour>
      <point x="1359" y="-442" type="curve"/>
      <point x="1306" y="-303" type="line"/>
      <point x="1270" y="-318"/>
      <point x="1231" y="-326"/>
      <point x="1197" y="-326" type="curve" smooth="yes"/>
      <point x="1122" y="-326"/>
      <point x="1066" y="-295"/>
      <point x="1066" y="-226" type="curve" smooth="yes"/>
      <point x="1066" y="-137"/>
      <point x="1176" y="-39"/>
      <point x="1342" y="0" type="curve"/>
      <point x="1075" y="13" type="line"/>
      <point x="1075" y="-5" type="line"/>
      <point x="918" y="-57"/>
      <point x="785" y="-166"/>
      <point x="785" y="-307" type="curve" smooth="yes"/>
      <point x="785" y="-446"/>
      <point x="906" y="-517"/>
      <point x="1067" y="-519" type="curve" smooth="yes"/>
      <point x="1166" y="-520"/>
      <point x="1280" y="-493"/>
    </contour>
    <contour>
      <point x="787" y="-170" type="move" name="btm"/>
    </contour>
    <contour>
      <point x="772" y="1700" type="move" name="top"/>
    </contour>
  </outline>
</glyph>
<glyph name="Lslash" format="1">
  <advance width="1419"/>
  <unicode hex="0141"/>
  <outline>
    <contour>
      <point x="89" y="509" type="line"/>
      <point x="473" y="659" type="line"/>
      <point x="511" y="659" type="line"/>
      <point x="1063" y="876" type="line"/>
      <point x="1063" y="1059" type="line"/>
      <point x="511" y="833" type="line"/>
      <point x="473" y="833" type="line"/>
      <point x="89" y="686" type="line"/>
    </contour>
    <contour>
      <point x="1085" y="255" type="line" smooth="yes"/>
      <point x="1075" y="220"/>
      <point x="1056" y="202"/>
      <point x="1027" y="190" type="curve" smooth="yes"/>
      <point x="992" y="176"/>
      <point x="929" y="165"/>
      <point x="846" y="165" type="curve" smooth="yes"/>
      <point x="673" y="165" type="line"/>
      <point x="673" y="1323" type="line" smooth="yes"/>
      <point x="673" y="1354"/>
      <point x="689" y="1373"/>
      <point x="720" y="1378" type="curve" smooth="yes"/>
      <point x="925" y="1411" type="line"/>
      <point x="925" y="1562" type="line"/>
      <point x="91" y="1562" type="line"/>
      <point x="91" y="1411" type="line"/>
      <point x="247" y="1381" type="line" smooth="yes"/>
      <point x="277" y="1375"/>
      <point x="293" y="1356"/>
      <point x="293" y="1325" type="curve" smooth="yes"/>
      <point x="293" y="229" type="line" smooth="yes"/>
      <point x="293" y="198"/>
      <point x="277" y="179"/>
      <point x="246" y="173" type="curve" smooth="yes"/>
      <point x="91" y="144" type="line"/>
      <point x="91" y="0" type="line"/>
      <point x="1333" y="0" type="line"/>
      <point x="1373" y="192"/>
      <point x="1373" y="382"/>
      <point x="1373" y="552" type="curve"/>
      <point x="1184" y="578" type="line"/>
    </contour>
    <contour>
      <point x="780" y="-170" type="move" name="btm"/>
    </contour>
    <contour>
      <point x="662" y="1700" type="move" name="top"/>
    </contour>
  </outline>
</glyph>
<glyph name="Eng" format="1">
  <advance width="1807"/>
  <unicode hex="014A"/>
  <outline>
    <contour>
      <point x="1545" y="107" type="curve" smooth="yes"/>
      <point x="1546" y="1324" type="line" smooth="yes"/>
      <point x="1546" y="1355"/>
      <point x="1561" y="1374"/>
      <point x="1592" y="1381" type="curve" smooth="yes"/>
      <point x="1737" y="1411" type="line"/>
      <point x="1737" y="1562" type="line"/>
      <point x="1124" y="1562" type="line"/>
      <point x="1124" y="1411" type="line"/>
      <point x="1290" y="1381" type="line" smooth="yes"/>
      <point x="1320" y="1375"/>
      <point x="1336" y="1355"/>
      <point x="1336" y="1324" type="curve" smooth="yes"/>
      <point x="1336" y="368" type="line"/>
      <point x="1411" y="403" type="line"/>
      <point x="681" y="1562" type="line"/>
      <point x="89" y="1562" type="line"/>
      <point x="89" y="1411" type="line"/>
      <point x="245" y="1381" type="line" smooth="yes"/>
      <point x="276" y="1374"/>
      <point x="291" y="1355"/>
      <point x="291" y="1324" type="curve" smooth="yes"/>
      <point x="291" y="229" type="line" smooth="yes"/>
      <point x="291" y="198"/>
      <point x="276" y="179"/>
      <point x="245" y="173" type="curve" smooth="yes"/>
      <point x="89" y="144" type="line"/>
      <point x="89" y="0" type="line"/>
      <point x="729" y="0" type="line"/>
      <point x="729" y="144" type="line"/>
      <point x="547" y="174" type="line" smooth="yes"/>
      <point x="517" y="179"/>
      <point x="501" y="199"/>
      <point x="501" y="230" type="curve" smooth="yes"/>
      <point x="501" y="1282" type="line"/>
      <point x="426" y="1275" type="line"/>
      <point x="1330" y="-123" type="line"/>
      <point x="1310" y="103" type="line"/>
      <point x="1280" y="-124"/>
      <point x="1203" y="-206"/>
      <point x="1116" y="-262" type="curve" smooth="yes"/>
      <point x="1041" y="-310"/>
      <point x="937" y="-335"/>
      <point x="862" y="-344" type="curve"/>
      <point x="869" y="-504" type="line"/>
      <point x="929" y="-515"/>
      <point x="988" y="-525"/>
      <point x="1067" y="-525" type="curve" smooth="yes"/>
      <point x="1429" y="-525"/>
      <point x="1545" y="-272"/>
    </contour>
    <contour>
      <point x="954" y="-170" type="move" name="btm"/>
    </contour>
    <contour>
      <point x="937" y="1700" type="move" name="top"/>
    </contour>
  </outline>
</glyph>
<glyph name="eng" format="1">
  <advance width="1453"/>
  <unicode hex="014B"/>
  <outline>
    <contour>
      <point x="1303" y="25" type="curve" smooth="yes"/>
      <point x="1303" y="732" type="line" smooth="yes"/>
      <point x="1303" y="1008"/>
      <point x="1221" y="1162"/>
      <point x="952" y="1162" type="curve" smooth="yes"/>
      <point x="777" y="1162"/>
      <point x="632" y="1096"/>
      <point x="533" y="957" type="curve"/>
      <point x="532" y="855" type="line"/>
      <point x="602" y="917"/>
      <point x="685" y="949"/>
      <point x="764" y="949" type="curve" smooth="yes"/>
      <point x="882" y="949"/>
      <point x="934" y="879"/>
      <point x="934" y="692" type="curve" smooth="yes"/>
      <point x="934" y="52" type="line" smooth="yes"/>
      <point x="934" y="-135"/>
      <point x="915" y="-226"/>
      <point x="865" y="-278" type="curve" smooth="yes"/>
      <point x="813" y="-332"/>
      <point x="727" y="-351"/>
      <point x="656" y="-365" type="curve"/>
      <point x="665" y="-512" type="line"/>
      <point x="717" y="-521"/>
      <point x="784" y="-525"/>
      <point x="835" y="-525" type="curve" smooth="yes"/>
      <point x="1168" y="-525"/>
      <point x="1303" y="-324"/>
    </contour>
    <contour>
      <point x="708" y="0" type="line"/>
      <point x="708" y="142" type="line"/>
      <point x="640" y="162" type="line" smooth="yes"/>
      <point x="612" y="172"/>
      <point x="596" y="188"/>
      <point x="596" y="219" type="curve" smooth="yes"/>
      <point x="596" y="913" type="line"/>
      <point x="557" y="1121" type="line"/>
      <point x="507" y="1166" type="line"/>
      <point x="371" y="1164"/>
      <point x="210" y="1145"/>
      <point x="69" y="1108" type="curve"/>
      <point x="69" y="961" type="line"/>
      <point x="191" y="936" type="line" smooth="yes"/>
      <point x="220" y="930"/>
      <point x="235" y="908"/>
      <point x="235" y="878" type="curve" smooth="yes"/>
      <point x="235" y="219" type="line" smooth="yes"/>
      <point x="235" y="188"/>
      <point x="218" y="169"/>
      <point x="189" y="163" type="curve" smooth="yes"/>
      <point x="80" y="142" type="line"/>
      <point x="80" y="0" type="line"/>
    </contour>
    <contour>
      <point x="1101" y="-170" type="move" name="btm"/>
    </contour>
    <contour>
      <point x="1101" y="1700" type="move" name="top"/>
    </contour>
  </outline>
</glyph>
<glyph name="oe" format="1">
  <advance width="1947"/>
  <unicode hex="0153"/>
  <outline>
    <contour>
      <point x="1171" y="455" type="curve"/>
      <point x="1171" y="707" type="line"/>
      <point x="1146" y="1011"/>
      <point x="978" y="1168"/>
      <point x="661" y="1168" type="curve" smooth="yes"/>
      <point x="338" y="1168"/>
      <point x="81" y="1002"/>
      <point x="81" y="562" type="curve" smooth="yes"/>
      <point x="81" y="158"/>
      <point x="295" y="-26"/>
      <point x="628" y="-26" type="curve" smooth="yes"/>
      <point x="939" y="-26"/>
      <point x="1132" y="121"/>
    </contour>
    <contour>
      <point x="471" y="568" type="curve" smooth="yes"/>
      <point x="471" y="908"/>
      <point x="524" y="1015"/>
      <point x="653" y="1015" type="curve" smooth="yes"/>
      <point x="790" y="1015"/>
      <point x="839" y="894"/>
      <point x="839" y="573" type="curve" smooth="yes"/>
      <point x="839" y="230"/>
      <point x="783" y="127"/>
      <point x="656" y="127" type="curve" smooth="yes"/>
      <point x="516" y="127"/>
      <point x="471" y="252"/>
    </contour>
    <contour>
      <point x="1859" y="249" type="curve"/>
      <point x="1780" y="307" type="line"/>
      <point x="1714" y="232"/>
      <point x="1602" y="195"/>
      <point x="1494" y="195" type="curve" smooth="yes"/>
      <point x="1282" y="195"/>
      <point x="1215" y="325"/>
      <point x="1215" y="624" type="curve" smooth="yes"/>
      <point x="1215" y="926"/>
      <point x="1278" y="1019"/>
      <point x="1386" y="1019" type="curve" smooth="yes"/>
      <point x="1492" y="1019"/>
      <point x="1538" y="926"/>
      <point x="1538" y="798" type="curve" smooth="yes"/>
      <point x="1538" y="779"/>
      <point x="1538" y="764"/>
      <point x="1538" y="752" type="curve"/>
      <point x="1094" y="752" type="line"/>
      <point x="1094" y="618" type="line"/>
      <point x="1851" y="618" type="line"/>
      <point x="1860" y="665"/>
      <point x="1868" y="729"/>
      <point x="1868" y="779" type="curve" smooth="yes"/>
      <point x="1868" y="1003"/>
      <point x="1727" y="1167"/>
      <point x="1421" y="1167" type="curve" smooth="yes"/>
      <point x="1074" y="1167"/>
      <point x="877" y="957"/>
      <point x="877" y="569" type="curve" smooth="yes"/>
      <point x="877" y="226"/>
      <point x="1030" y="-26"/>
      <point x="1393" y="-26" type="curve" smooth="yes"/>
      <point x="1613" y="-26"/>
      <point x="1805" y="67"/>
    </contour>
    <contour>
      <point x="1344" y="0" type="move" name="btm"/>
    </contour>
    <contour>
      <point x="1377" y="1138" type="move" name="top"/>
    </contour>
  </outline>
</glyph>
<glyph name="tbar" format="1">
  <advance width="952"/>
  <unicode hex="0167"/>
  <outline>
    <contour>
      <point x="59" y="575" type="line"/>
      <point x="864" y="575" type="line"/>
      <point x="864" y="736" type="line"/>
      <point x="59" y="736" type="line"/>
    </contour>
    <contour>
      <point x="203" y="335" type="line" smooth="yes"/>
      <point x="203" y="62"/>
      <point x="330" y="-17"/>
      <point x="537" y="-17" type="curve" smooth="yes"/>
      <point x="722" y="-17"/>
      <point x="873" y="51"/>
      <point x="941" y="200" type="curve"/>
      <point x="871" y="279" type="line"/>
      <point x="818" y="234"/>
      <point x="753" y="216"/>
      <point x="700" y="216" type="curve" smooth="yes"/>
      <point x="610" y="216"/>
      <point x="565" y="263"/>
      <point x="565" y="416" type="curve" smooth="yes"/>
      <point x="565" y="943" type="line"/>
      <point x="874" y="943" type="line"/>
      <point x="874" y="1138" type="line"/>
      <point x="561" y="1138" type="line"/>
      <point x="548" y="1505" type="line"/>
      <point x="348" y="1505" type="line"/>
      <point x="237" y="1189" type="line" smooth="yes"/>
      <point x="225" y="1155"/>
      <point x="210" y="1140"/>
      <point x="174" y="1133" type="curve" smooth="yes"/>
      <point x="49" y="1107" type="line"/>
      <point x="49" y="966" type="line"/>
      <point x="203" y="938" type="line"/>
    </contour>
    <contour>
      <point x="491" y="-170" type="move" name="btm"/>
    </contour>
    <contour>
      <point x="449" y="1920" type="move" name="top"/>
    </contour>
  </outline>
</glyph>
<glyph name="Uogonek" format="1">
  <advance width="1725"/>
  <unicode hex="0172"/>
  <outline>
    <contour>
      <point x="710" y="-309" type="curve" smooth="yes"/>
      <point x="710" y="-445"/>
      <point x="831" y="-517"/>
      <point x="992" y="-519" type="curve" smooth="yes"/>
      <point x="1090" y="-520"/>
      <point x="1205" y="-493"/>
      <point x="1284" y="-442" type="curve"/>
      <point x="1231" y="-303" type="line"/>
      <point x="1195" y="-318"/>
      <point x="1151" y="-326"/>
      <point x="1117" y="-326" type="curve" smooth="yes"/>
      <point x="1042" y="-326"/>
      <point x="991" y="-296"/>
      <point x="991" y="-229" type="curve" smooth="yes"/>
      <point x="991" y="-132"/>
      <point x="1101" y="-42"/>
      <point x="1271" y="68" type="curve"/>
      <point x="967" y="-10" type="line"/>
      <point x="967" y="-28" type="line"/>
      <point x="852" y="-71"/>
      <point x="710" y="-164"/>
    </contour>
    <contour>
      <point x="1046" y="1562" type="line"/>
      <point x="1046" y="1411" type="line"/>
      <point x="1212" y="1380" type="line" smooth="yes"/>
      <point x="1242" y="1375"/>
      <point x="1258" y="1355"/>
      <point x="1258" y="1324" type="curve" smooth="yes"/>
      <point x="1258" y="557" type="line" smooth="yes"/>
      <point x="1258" y="302"/>
      <point x="1181" y="123"/>
      <point x="935" y="123" type="curve" smooth="yes"/>
      <point x="700" y="123"/>
      <point x="620" y="285"/>
      <point x="620" y="559" type="curve" smooth="yes"/>
      <point x="620" y="1321" type="line" smooth="yes"/>
      <point x="620" y="1351"/>
      <point x="636" y="1371"/>
      <point x="666" y="1377" type="curve" smooth="yes"/>
      <point x="825" y="1411" type="line"/>
      <point x="825" y="1562" type="line"/>
      <point x="84" y="1562" type="line"/>
      <point x="84" y="1411" type="line"/>
      <point x="184" y="1383" type="line" smooth="yes"/>
      <point x="213" y="1374"/>
      <point x="228" y="1355"/>
      <point x="228" y="1325" type="curve" smooth="yes"/>
      <point x="228" y="591" type="line" smooth="yes"/>
      <point x="228" y="153"/>
      <point x="439" y="-25"/>
      <point x="875" y="-25" type="curve" smooth="yes"/>
      <point x="1040" y="-25"/>
      <point x="1173" y="5"/>
      <point x="1271" y="68" type="curve" smooth="yes"/>
      <point x="1417" y="160"/>
      <point x="1490" y="333"/>
      <point x="1490" y="578" type="curve" smooth="yes"/>
      <point x="1490" y="1325" type="line" smooth="yes"/>
      <point x="1490" y="1355"/>
      <point x="1505" y="1375"/>
      <point x="1535" y="1383" type="curve" smooth="yes"/>
      <point x="1645" y="1411" type="line"/>
      <point x="1645" y="1562" type="line"/>
    </contour>
    <contour>
      <point x="851" y="-170" type="move" name="btm"/>
    </contour>
    <contour>
      <point x="898" y="1700" type="move" name="top"/>
    </contour>
  </outline>
</glyph>
<glyph name="florin" format="1">
  <advance width="1196"/>
  <unicode hex="0192"/>
  <outline>
    <contour>
      <point x="404" y="-342" type="curve" smooth="yes"/>
      <point x="483" y="-258"/>
      <point x="555" y="-120"/>
      <point x="586" y="228" type="curve" smooth="yes"/>
      <point x="618" y="581" type="line"/>
      <point x="932" y="581" type="line"/>
      <point x="932" y="774" type="line"/>
      <point x="631" y="774" type="line"/>
      <point x="649" y="975" type="line" smooth="yes"/>
      <point x="662" y="1132"/>
      <point x="712" y="1198"/>
      <point x="801" y="1198" type="curve" smooth="yes"/>
      <point x="825" y="1198"/>
      <point x="848" y="1192"/>
      <point x="866" y="1177" type="curve" smooth="yes"/>
      <point x="884" y="1163"/>
      <point x="892" y="1144"/>
      <point x="895" y="1119" type="curve" smooth="yes"/>
      <point x="916" y="953" type="line"/>
      <point x="1096" y="953" type="line"/>
      <point x="1126" y="1077"/>
      <point x="1151" y="1196"/>
      <point x="1160" y="1346" type="curve"/>
      <point x="1085" y="1391"/>
      <point x="991" y="1412"/>
      <point x="907" y="1412" type="curve" smooth="yes"/>
      <point x="600" y="1412"/>
      <point x="322" y="1117"/>
      <point x="286" y="827" type="curve" smooth="yes"/>
      <point x="280" y="777" type="line"/>
      <point x="93" y="743" type="line"/>
      <point x="93" y="607" type="line"/>
      <point x="261" y="576" type="line"/>
      <point x="229" y="228" type="line" smooth="yes"/>
      <point x="200" y="-89"/>
      <point x="162" y="-250"/>
      <point x="-58" y="-396" type="curve"/>
      <point x="22" y="-544" type="line"/>
      <point x="174" y="-503"/>
      <point x="313" y="-438"/>
    </contour>
  </outline>
</glyph>
<glyph name="schwa" format="1">
  <advance width="1180"/>
  <unicode hex="0259"/>
  <outline>
    <contour>
      <point x="1098" y="576" type="curve" smooth="yes"/>
      <point x="1098" y="932"/>
      <point x="920" y="1167"/>
      <point x="560" y="1167" type="curve" smooth="yes"/>
      <point x="343" y="1167"/>
      <point x="181" y="1082"/>
      <point x="100" y="933" type="curve"/>
      <point x="181" y="857" type="line"/>
      <point x="247" y="914"/>
      <point x="336" y="946"/>
      <point x="439" y="946" type="curve" smooth="yes"/>
      <point x="660" y="946"/>
      <point x="730" y="799"/>
      <point x="730" y="501" type="curve" smooth="yes"/>
      <point x="730" y="188"/>
      <point x="659" y="122"/>
      <point x="562" y="122" type="curve" smooth="yes"/>
      <point x="473" y="122"/>
      <point x="411" y="187"/>
      <point x="411" y="383" type="curve" smooth="yes"/>
      <point x="411" y="422"/>
      <point x="413" y="450"/>
      <point x="417" y="475" type="curve"/>
      <point x="866" y="475" type="line"/>
      <point x="863" y="608" type="line"/>
      <point x="96" y="608" type="line"/>
      <point x="86" y="563"/>
      <point x="78" y="491"/>
      <point x="78" y="424" type="curve" smooth="yes"/>
      <point x="78" y="129"/>
      <point x="241" y="-26"/>
      <point x="543" y="-26" type="curve" smooth="yes"/>
      <point x="898" y="-26"/>
      <point x="1098" y="196"/>
    </contour>
    <contour>
      <point x="575" y="-170" type="move" name="btm"/>
    </contour>
    <contour>
      <point x="601" y="1700" type="move" name="top"/>
    </contour>
  </outline>
</glyph>
<glyph name="macroncomb" format="1">
  <advance width="0"/>
  <unicode hex="0304"/>
  <outline>
    <contour>
      <point x="-368" y="1355" type="line"/>
      <point x="367" y="1355" type="line"/>
      <point x="367" y="1561" type="line"/>
      <point x="-368" y="1561" type="line"/>
    </contour>
    <contour>
      <point x="0" y="1138" type="move" name="_top"/>
    </contour>
  </outline>
</glyph>
<glyph name="dieresiscomb" format="1">
  <advance width="0"/>
  <unicode hex="0308"/>
  <outline>
    <contour>
      <point x="-73" y="1483" type="curve" smooth="yes"/>
      <point x="-73" y="1587"/>
      <point x="-139" y="1654"/>
      <point x="-240" y="1654" type="curve" smooth="yes"/>
      <point x="-343" y="1654"/>
      <point x="-409" y="1587"/>
      <point x="-409" y="1483" type="curve" smooth="yes"/>
      <point x="-409" y="1379"/>
      <point x="-343" y="1311"/>
      <point x="-240" y="1311" type="curve" smooth="yes"/>
      <point x="-139" y="1311"/>
      <point x="-73" y="1379"/>
    </contour>
    <contour>
      <point x="408" y="1483" type="curve" smooth="yes"/>
      <point x="408" y="1587"/>
      <point x="343" y="1654"/>
      <point x="241" y="1654" type="curve" smooth="yes"/>
      <point x="139" y="1654"/>
      <point x="73" y="1587"/>
      <point x="73" y="1483" type="curve" smooth="yes"/>
      <point x="73" y="1379"/>
      <point x="139" y="1311"/>
      <point x="241" y="1311" type="curve" smooth="yes"/>
      <point x="343" y="1311"/>
      <point x="408" y="1379"/>
    </contour>
    <contour>
      <point x="0" y="1138" type="move" name="_top"/>
    </contour>
  </outline>
</glyph>
<glyph name="ringcomb" format="1">
  <advance width="0"/>
  <unicode hex="030A"/>
  <outline>
    <contour>
      <point x="171" y="1273"/>
      <point x="310" y="1372"/>
      <point x="310" y="1531" type="curve" smooth="yes"/>
      <point x="310" y="1683"/>
      <point x="214" y="1792"/>
      <point x="10" y="1792" type="curve" smooth="yes"/>
      <point x="-169" y="1792"/>
      <point x="-310" y="1693"/>
      <point x="-311" y="1536" type="curve" smooth="yes"/>
      <point x="-311" y="1372"/>
      <point x="-203" y="1273"/>
      <point x="-4" y="1273" type="curve" smooth="yes"/>
    </contour>
    <contour>
      <point x="-79" y="1407"/>
      <point x="-118" y="1466"/>
      <point x="-118" y="1537" type="curve" smooth="yes"/>
      <point x="-118" y="1619"/>
      <point x="-76" y="1657"/>
      <point x="1" y="1657" type="curve" smooth="yes"/>
      <point x="81" y="1657"/>
      <point x="117" y="1602"/>
      <point x="117" y="1526" type="curve" smooth="yes"/>
      <point x="117" y="1445"/>
      <point x="76" y="1407"/>
      <point x="0" y="1407" type="curve" smooth="yes"/>
    </contour>
    <contour>
      <point x="0" y="1138" type="move" name="_top"/>
    </contour>
  </outline>
</glyph>
<glyph name="commaaccentcomb" format="1">
  <advance width="0"/>
  <unicode hex="0326"/>
  <outline>
    <contour>
      <point x="176" y="-311" type="curve" smooth="yes"/>
      <point x="179" y="-188"/>
      <point x="97" y="-101"/>
      <point x="-12" y="-101" type="curve" smooth="yes"/>
      <point x="-97" y="-101"/>
      <point x="-161" y="-161"/>
      <point x="-161" y="-236" type="curve" smooth="yes"/>
      <point x="-161" y="-292"/>
      <point x="-133" y="-320"/>
      <point x="-107" y="-341" type="curve" smooth="yes"/>
      <point x="-88" y="-356"/>
      <point x="-63" y="-371"/>
      <point x="-63" y="-412" type="curve" smooth="yes"/>
      <point x="-63" y="-455"/>
      <point x="-106" y="-501"/>
      <point x="-152" y="-535" type="curve"/>
      <point x="-76" y="-619" type="line"/>
      <point x="60" y="-557"/>
      <point x="172" y="-450"/>
    </contour>
    <contour>
      <point x="0" y="0" type="move" name="_btm"/>
    </contour>
  </outline>
</glyph>
<glyph name="ogonekcomb" format="1">
  <advance width="0"/>
  <unicode hex="0328"/>
  <outline>
    <contour>
      <point x="282" y="-442" type="curve"/>
      <point x="230" y="-303" type="line"/>
      <point x="195" y="-318"/>
      <point x="156" y="-326"/>
      <point x="120" y="-326" type="curve" smooth="yes"/>
      <point x="48" y="-326"/>
      <point x="-7" y="-295"/>
      <point x="-7" y="-225" type="curve" smooth="yes"/>
      <point x="-7" y="-131"/>
      <point x="97" y="-34"/>
      <point x="253" y="12" type="curve"/>
      <point x="124" y="38" type="line"/>
      <point x="22" y="3" type="line" smooth="yes"/>
      <point x="-155" y="-57"/>
      <point x="-283" y="-170"/>
      <point x="-283" y="-307" type="curve" smooth="yes"/>
      <point x="-283" y="-447"/>
      <point x="-164" y="-517"/>
      <point x="-5" y="-519" type="curve" smooth="yes"/>
      <point x="92" y="-520"/>
      <point x="204" y="-493"/>
    </contour>
  </outline>
</glyph>
<glyph name="mu" format="1">
  <advance width="1438"/>
  <unicode hex="03BC"/>
  <outline>
    <contour>
      <point x="475" y="-440" type="line"/>
      <point x="402" y="251" type="line"/>
      <point x="478" y="563" type="line"/>
      <point x="489" y="1122" type="line"/>
      <point x="441" y="1166" type="line"/>
      <point x="155" y="1129" type="line"/>
      <point x="160" y="851"/>
      <point x="168" y="660"/>
      <point x="168" y="350" type="curve" smooth="yes"/>
      <point x="168" y="141"/>
      <point x="165" y="-236"/>
      <point x="161" y="-496" type="curve"/>
      <point x="210" y="-540" type="line"/>
    </contour>
    <contour>
      <point x="962" y="468" type="curve"/>
      <point x="918" y="484" type="line"/>
      <point x="879" y="332"/>
      <point x="780" y="265"/>
      <point x="692" y="265" type="curve" smooth="yes"/>
      <point x="595" y="265"/>
      <point x="478" y="348"/>
      <point x="478" y="566" type="curve"/>
      <point x="360" y="365" type="line"/>
      <point x="362" y="80"/>
      <point x="511" y="-26"/>
      <point x="641" y="-26" type="curve" smooth="yes"/>
      <point x="817" y="-26"/>
      <point x="967" y="161"/>
    </contour>
    <contour>
      <point x="1421" y="67" type="curve"/>
      <point x="1421" y="192" type="line"/>
      <point x="1297" y="192" type="line" smooth="yes"/>
      <point x="1238" y="192"/>
      <point x="1190" y="224"/>
      <point x="1195" y="352" type="curve" smooth="yes"/>
      <point x="1225" y="1122" type="line"/>
      <point x="1177" y="1166" type="line"/>
      <point x="903" y="1129" type="line"/>
      <point x="912" y="324" type="line"/>
      <point x="927" y="324" type="line"/>
      <point x="930" y="95"/>
      <point x="1030" y="-26"/>
      <point x="1168" y="-26" type="curve" smooth="yes"/>
      <point x="1249" y="-26"/>
      <point x="1354" y="17"/>
    </contour>
  </outline>
</glyph>
<glyph name="pi" format="1">
  <advance width="1488"/>
  <unicode hex="03C0"/>
  <outline>
    <contour>
      <point x="666" y="623" type="curve" smooth="yes"/>
      <point x="728" y="948" type="line"/>
      <point x="559" y="948" type="line"/>
      <point x="517" y="807" type="line" smooth="yes"/>
      <point x="410" y="458"/>
      <point x="239" y="273"/>
      <point x="65" y="201" type="curve"/>
      <point x="64" y="137" type="line"/>
      <point x="276" y="-47" type="line"/>
      <point x="493" y="99"/>
      <point x="606" y="316"/>
    </contour>
    <contour>
      <point x="1395" y="125" type="curve"/>
      <point x="1348" y="252" type="line"/>
      <point x="1287" y="224"/>
      <point x="1213" y="205"/>
      <point x="1173" y="205" type="curve" smooth="yes"/>
      <point x="1107" y="205"/>
      <point x="1089" y="261"/>
      <point x="1094" y="365" type="curve" smooth="yes"/>
      <point x="1117" y="948" type="line"/>
      <point x="899" y="948" type="line"/>
      <point x="836" y="444" type="line" smooth="yes"/>
      <point x="826" y="368"/>
      <point x="814" y="263"/>
      <point x="814" y="203" type="curve" smooth="yes"/>
      <point x="814" y="44"/>
      <point x="889" y="-33"/>
      <point x="1025" y="-33" type="curve" smooth="yes"/>
      <point x="1149" y="-33"/>
      <point x="1302" y="32"/>
    </contour>
    <contour>
      <point x="430" y="850" type="curve" smooth="yes"/>
      <point x="1378" y="850" type="line"/>
      <point x="1453" y="1097" type="line"/>
      <point x="1404" y="1140" type="line"/>
      <point x="511" y="1136" type="line" smooth="yes"/>
      <point x="250" y="1135"/>
      <point x="128" y="1025"/>
      <point x="64" y="762" type="curve"/>
      <point x="191" y="704" type="line"/>
      <point x="249" y="795"/>
      <point x="311" y="850"/>
    </contour>
  </outline>
</glyph>
<glyph name="gjCandrabindu" format="1">
  <advance width="0"/>
  <unicode hex="0A81"/>
  <outline>
    <contour>
      <point x="-821" y="1951" type="line"/>
      <point x="-780" y="1691"/>
      <point x="-605" y="1516"/>
      <point x="-362" y="1516" type="curve" smooth="yes"/>
      <point x="-99" y="1516"/>
      <point x="39" y="1729"/>
      <point x="43" y="1934" type="curve"/>
      <point x="-156" y="1977" type="line"/>
      <point x="-187" y="1957" type="line"/>
      <point x="-209" y="1812"/>
      <point x="-303" y="1734"/>
      <point x="-416" y="1734" type="curve" smooth="yes"/>
      <point x="-552" y="1734"/>
      <point x="-642" y="1825"/>
      <point x="-689" y="1991" type="curve"/>
    </contour>
    <contour>
      <point x="-344" y="1866"/>
      <point x="-291" y="1926"/>
      <point x="-291" y="2007" type="curve" smooth="yes"/>
      <point x="-291" y="2094"/>
      <point x="-353" y="2164"/>
      <point x="-434" y="2164" type="curve" smooth="yes"/>
      <point x="-510" y="2164"/>
      <point x="-566" y="2102"/>
      <point x="-566" y="2020" type="curve" smooth="yes"/>
      <point x="-566" y="1932"/>
      <point x="-501" y="1866"/>
      <point x="-421" y="1866" type="curve" smooth="yes"/>
    </contour>
    <contour>
      <point x="-392" y="1340" type="move" name="_abvmBINDU"/>
    </contour>
  </outline>
</glyph>
<glyph name="gjAnusvara" format="1">
  <advance width="0"/>
  <unicode hex="0A82"/>
  <outline>
    <contour>
      <point x="-290" y="1565"/>
      <point x="-219" y="1638"/>
      <point x="-219" y="1734" type="curve" smooth="yes"/>
      <point x="-219" y="1845"/>
      <point x="-299" y="1929"/>
      <point x="-405" y="1929" type="curve" smooth="yes"/>
      <point x="-498" y="1929"/>
      <point x="-569" y="1856"/>
      <point x="-569" y="1760" type="curve" smooth="yes"/>
      <point x="-569" y="1649"/>
      <point x="-489" y="1565"/>
      <point x="-383" y="1565" type="curve" smooth="yes"/>
    </contour>
    <contour>
      <point x="-392" y="1363" type="move" name="_abvmBINDU"/>
    </contour>
  </outline>
</glyph>
<glyph name="gjA" format="1">
  <advance width="2099"/>
  <unicode hex="0A85"/>
  <outline>
    <contour>
      <point x="1104" y="226"/>
      <point x="1321" y="383"/>
      <point x="1321" y="748" type="curve" smooth="yes"/>
      <point x="1321" y="910"/>
      <point x="1278" y="1020"/>
      <point x="1244" y="1088" type="curve"/>
      <point x="1003" y="1175" type="line"/>
      <point x="975" y="1147" type="line"/>
      <point x="1008" y="1041"/>
      <point x="1026" y="928"/>
      <point x="1026" y="839" type="curve" smooth="yes"/>
      <point x="1026" y="565"/>
      <point x="857" y="459"/>
      <point x="735" y="459" type="curve" smooth="yes"/>
      <point x="632" y="459"/>
      <point x="495" y="535"/>
      <point x="427" y="659" type="curve"/>
      <point x="341" y="613" type="line"/>
      <point x="457" y="385"/>
      <point x="593" y="226"/>
      <point x="849" y="226" type="curve" smooth="yes"/>
    </contour>
    <contour>
      <point x="1526" y="503"/>
      <point x="1575" y="512"/>
      <point x="1631" y="531" type="curve"/>
      <point x="1591" y="914" type="line"/>
      <point x="1546" y="782"/>
      <point x="1446" y="718"/>
      <point x="1369" y="718" type="curve" smooth="yes"/>
      <point x="1315" y="718"/>
      <point x="1254" y="749"/>
      <point x="1213" y="809" type="curve"/>
      <point x="1170" y="765" type="line"/>
      <point x="1261" y="575"/>
      <point x="1363" y="503"/>
      <point x="1483" y="503" type="curve" smooth="yes"/>
    </contour>
    <contour>
      <point x="177" y="875"/>
      <point x="135" y="832"/>
      <point x="103" y="773" type="curve" smooth="yes"/>
      <point x="90" y="749" type="line" smooth="yes"/>
      <point x="65" y="702"/>
      <point x="47" y="647"/>
      <point x="47" y="600" type="curve" smooth="yes"/>
      <point x="47" y="498"/>
      <point x="133" y="441"/>
      <point x="290" y="441" type="curve" smooth="yes"/>
      <point x="585" y="441"/>
      <point x="884" y="641"/>
      <point x="884" y="908" type="curve" smooth="yes"/>
      <point x="884" y="1036"/>
      <point x="815" y="1162"/>
      <point x="720" y="1255" type="curve" smooth="yes"/>
      <point x="631" y="1342"/>
      <point x="499" y="1419"/>
      <point x="346" y="1419" type="curve" smooth="yes"/>
      <point x="224" y="1419"/>
      <point x="102" y="1370"/>
      <point x="26" y="1284" type="curve"/>
      <point x="204" y="1049" type="line"/>
      <point x="246" y="1049" type="line"/>
      <point x="332" y="1129"/>
      <point x="413" y="1174"/>
      <point x="494" y="1174" type="curve" smooth="yes"/>
      <point x="587" y="1174"/>
      <point x="627" y="1115"/>
      <point x="627" y="1039" type="curve" smooth="yes"/>
      <point x="627" y="908"/>
      <point x="509" y="762"/>
      <point x="343" y="734" type="curve"/>
      <point x="479" y="685" type="line"/>
      <point x="393" y="792"/>
      <point x="327" y="875"/>
      <point x="239" y="875" type="curve" smooth="yes"/>
    </contour>
    <contour>
      <point x="1979" y="-29"/>
      <point x="2093" y="24"/>
      <point x="2183" y="118" type="curve"/>
      <point x="2055" y="373" type="line"/>
      <point x="2013" y="373" type="line"/>
      <point x="1932" y="224" type="line" smooth="yes"/>
      <point x="1916" y="195"/>
      <point x="1904" y="171"/>
      <point x="1891" y="171" type="curve" smooth="yes"/>
      <point x="1872" y="171"/>
      <point x="1865" y="214"/>
      <point x="1865" y="340" type="curve" smooth="yes"/>
      <point x="1865" y="1316" type="line"/>
      <point x="1577" y="1422" type="line"/>
      <point x="1549" y="1394" type="line"/>
      <point x="1549" y="437" type="line" smooth="yes"/>
      <point x="1549" y="258"/>
      <point x="1575" y="173"/>
      <point x="1644" y="83" type="curve" smooth="yes"/>
      <point x="1714" y="1"/>
      <point x="1791" y="-29"/>
      <point x="1867" y="-29" type="curve" smooth="yes"/>
    </contour>
    <contour>
      <point x="1707" y="1363" type="move" name="abvmTOP"/>
    </contour>
    <contour>
      <point x="1707" y="0" type="move" name="blwmBOTTOM"/>
    </contour>
    <contour>
      <point x="1706" y="1340" type="move" name="abvmBINDU"/>
    </contour>
  </outline>
</glyph>
<glyph name="gjI" format="1">
  <advance width="1457"/>
  <unicode hex="0A87"/>
  <outline>
    <contour>
      <point x="1054" y="-33"/>
      <point x="1363" y="125"/>
      <point x="1363" y="461" type="curve" smooth="yes"/>
      <point x="1363" y="661"/>
      <point x="1254" y="797"/>
      <point x="1165" y="957" type="curve" smooth="yes"/>
      <point x="1086" y="1099"/>
      <point x="1065" y="1182"/>
      <point x="1065" y="1252" type="curve" smooth="yes"/>
      <point x="1065" y="1351"/>
      <point x="1108" y="1449"/>
      <point x="1166" y="1511" type="curve"/>
      <point x="1166" y="1560" type="line"/>
      <point x="893" y="1706" type="line"/>
      <point x="813" y="1626"/>
      <point x="771" y="1522"/>
      <point x="771" y="1414" type="curve" smooth="yes"/>
      <point x="771" y="1229"/>
      <point x="890" y="1080"/>
      <point x="977" y="925" type="curve" smooth="yes"/>
      <point x="1045" y="804"/>
      <point x="1077" y="713"/>
      <point x="1077" y="607" type="curve" smooth="yes"/>
      <point x="1077" y="295"/>
      <point x="801" y="210"/>
      <point x="634" y="210" type="curve" smooth="yes"/>
      <point x="498" y="210"/>
      <point x="442" y="267"/>
      <point x="442" y="367" type="curve" smooth="yes"/>
      <point x="442" y="543"/>
      <point x="618" y="627"/>
      <point x="832" y="641" type="curve"/>
      <point x="860" y="670" type="line"/>
      <point x="729" y="914" type="line"/>
      <point x="399" y="878"/>
      <point x="155" y="732"/>
      <point x="155" y="490" type="curve" smooth="yes"/>
      <point x="155" y="339"/>
      <point x="250" y="209"/>
      <point x="351" y="123" type="curve" smooth="yes"/>
      <point x="462" y="29"/>
      <point x="605" y="-33"/>
      <point x="778" y="-33" type="curve" smooth="yes"/>
    </contour>
    <contour>
      <point x="542" y="782" type="line"/>
      <point x="451" y="844"/>
      <point x="419" y="921"/>
      <point x="419" y="980" type="curve" smooth="yes"/>
      <point x="419" y="1074"/>
      <point x="499" y="1131"/>
      <point x="652" y="1147" type="curve"/>
      <point x="681" y="1171" type="line"/>
      <point x="563" y="1419" type="line"/>
      <point x="266" y="1408"/>
      <point x="129" y="1267"/>
      <point x="129" y="1079" type="curve" smooth="yes"/>
      <point x="129" y="904"/>
      <point x="248" y="798"/>
      <point x="433" y="718" type="curve"/>
    </contour>
    <contour>
      <point x="384" y="1340" type="move" name="abvmBINDU"/>
    </contour>
  </outline>
</glyph>
<glyph name="gjIi" format="1">
  <advance width="1478"/>
  <unicode hex="0A88"/>
  <outline>
    <contour>
      <point x="1103" y="-33"/>
      <point x="1363" y="158"/>
      <point x="1363" y="450" type="curve" smooth="yes"/>
      <point x="1363" y="624"/>
      <point x="1269" y="760"/>
      <point x="1172" y="898" type="curve" smooth="yes"/>
      <point x="1058" y="1061"/>
      <point x="990" y="1173"/>
      <point x="990" y="1295" type="curve" smooth="yes"/>
      <point x="990" y="1410"/>
      <point x="1078" y="1481"/>
      <point x="1168" y="1481" type="curve" smooth="yes"/>
      <point x="1226" y="1481"/>
      <point x="1281" y="1457"/>
      <point x="1342" y="1411" type="curve"/>
      <point x="1440" y="1553" type="line"/>
      <point x="1346" y="1669"/>
      <point x="1209" y="1744"/>
      <point x="1058" y="1744" type="curve" smooth="yes"/>
      <point x="854" y="1744"/>
      <point x="718" y="1606"/>
      <point x="718" y="1398" type="curve" smooth="yes"/>
      <point x="718" y="1231"/>
      <point x="805" y="1103"/>
      <point x="930" y="921" type="curve" smooth="yes"/>
      <point x="1011" y="803"/>
      <point x="1082" y="680"/>
      <point x="1082" y="556" type="curve" smooth="yes"/>
      <point x="1082" y="335"/>
      <point x="855" y="209"/>
      <point x="642" y="209" type="curve" smooth="yes"/>
      <point x="507" y="209"/>
      <point x="442" y="260"/>
      <point x="442" y="367" type="curve" smooth="yes"/>
      <point x="442" y="543"/>
      <point x="618" y="627"/>
      <point x="822" y="641" type="curve"/>
      <point x="850" y="670" type="line"/>
      <point x="719" y="914" type="line"/>
      <point x="398" y="878"/>
      <point x="155" y="731"/>
      <point x="155" y="490" type="curve" smooth="yes"/>
      <point x="155" y="336"/>
      <point x="255" y="205"/>
      <point x="350" y="123" type="curve" smooth="yes"/>
      <point x="459" y="29"/>
      <point x="599" y="-33"/>
      <point x="782" y="-33" type="curve" smooth="yes"/>
    </contour>
    <contour>
      <point x="542" y="782" type="line"/>
      <point x="451" y="844"/>
      <point x="419" y="921"/>
      <point x="419" y="980" type="curve" smooth="yes"/>
      <point x="419" y="1074"/>
      <point x="499" y="1131"/>
      <point x="628" y="1147" type="curve"/>
      <point x="655" y="1174" type="line"/>
      <point x="553" y="1419" type="line"/>
      <point x="269" y="1409"/>
      <point x="129" y="1265"/>
      <point x="129" y="1085" type="curve" smooth="yes"/>
      <point x="129" y="922"/>
      <point x="244" y="801"/>
      <point x="433" y="718" type="curve"/>
    </contour>
    <contour>
      <point x="364" y="1340" type="move" name="abvmBINDU"/>
    </contour>
  </outline>
</glyph>
<glyph name="gjNga" format="1">
  <advance width="1557"/>
  <unicode hex="0A99"/>
  <outline>
    <component base="gjDda"/>
    <component base="gjAnusvara" xOffset="1678" yOffset="-829"/>
    <contour>
      <point x="682" y="24" type="move" name="blwmRUKAR"/>
    </contour>
    <contour>
      <point x="729" y="-308" type="move" name="blwmNUKTA"/>
    </contour>
    <contour>
      <point x="855" y="1340" type="move" name="abvmBINDU"/>
    </contour>
    <contour>
      <point x="1088" y="1363" type="move" name="abvmTOP"/>
    </contour>
    <contour>
      <point x="642" y="0" type="move" name="blwmBOTTOM"/>
    </contour>
    <contour>
      <point x="53" y="-66" type="move" name="blwmNUKTA2"/>
    </contour>
  </outline>
</glyph>
<glyph name="gjJha" format="1">
  <advance width="1730"/>
  <unicode hex="0A9D"/>
  <outline>
    <contour>
      <point x="823" y="78"/>
      <point x="973" y="327"/>
      <point x="973" y="576" type="curve" smooth="yes"/>
      <point x="973" y="827"/>
      <point x="877" y="968"/>
      <point x="721" y="1086" type="curve" smooth="yes"/>
      <point x="628" y="1156"/>
      <point x="530" y="1203"/>
      <point x="401" y="1203" type="curve" smooth="yes"/>
      <point x="290" y="1203"/>
      <point x="170" y="1166"/>
      <point x="83" y="1104" type="curve"/>
      <point x="251" y="844" type="line"/>
      <point x="291" y="844" type="line"/>
      <point x="359" y="908"/>
      <point x="448" y="956"/>
      <point x="528" y="956" type="curve" smooth="yes"/>
      <point x="649" y="956"/>
      <point x="685" y="849"/>
      <point x="685" y="724" type="curve" smooth="yes"/>
      <point x="685" y="500"/>
      <point x="567" y="341"/>
      <point x="411" y="342" type="curve" smooth="yes"/>
      <point x="319" y="343"/>
      <point x="235" y="398"/>
      <point x="160" y="510" type="curve"/>
      <point x="37" y="421" type="line"/>
      <point x="147" y="175"/>
      <point x="331" y="78"/>
      <point x="520" y="78" type="curve" smooth="yes"/>
    </contour>
    <contour>
      <point x="1497" y="53"/>
      <point x="1669" y="231"/>
      <point x="1669" y="451" type="curve" smooth="yes"/>
      <point x="1669" y="717"/>
      <point x="1416" y="1011"/>
      <point x="1099" y="1011" type="curve" smooth="yes"/>
      <point x="986" y="1011"/>
      <point x="878" y="974"/>
      <point x="799" y="914" type="curve"/>
      <point x="908" y="652" type="line"/>
      <point x="995" y="733"/>
      <point x="1116" y="763"/>
      <point x="1201" y="763" type="curve" smooth="yes"/>
      <point x="1332" y="763"/>
      <point x="1389" y="691"/>
      <point x="1389" y="590" type="curve" smooth="yes"/>
      <point x="1389" y="447"/>
      <point x="1273" y="308"/>
      <point x="1093" y="221" type="curve"/>
      <point x="1079" y="181" type="line"/>
      <point x="1268" y="-34" type="line"/>
    </contour>
    <contour>
      <point x="1387" y="839" type="line"/>
      <point x="1387" y="1316" type="line"/>
      <point x="1095" y="1422" type="line"/>
      <point x="1067" y="1394" type="line"/>
      <point x="1072" y="839" type="line"/>
    </contour>
    <contour>
      <point x="837" y="-33" type="move" name="blwmRUKAR"/>
    </contour>
    <contour>
      <point x="894" y="-118" type="move" name="blwmNUKTA"/>
    </contour>
    <contour>
      <point x="1229" y="1340" type="move" name="abvmBINDU"/>
    </contour>
    <contour>
      <point x="1229" y="1363" type="move" name="abvmTOP"/>
    </contour>
    <contour>
      <point x="837" y="0" type="move" name="blwmBOTTOM"/>
    </contour>
    <contour>
      <point x="147" y="-112" type="move" name="blwmNUKTA2"/>
    </contour>
  </outline>
</glyph>
<glyph name="gjTtha" format="1">
  <advance width="1318"/>
  <unicode hex="0AA0"/>
  <outline>
    <contour>
      <point x="548" y="1088"/>
      <point x="646" y="1140"/>
      <point x="773" y="1140" type="curve" smooth="yes"/>
      <point x="859" y="1140"/>
      <point x="968" y="1116"/>
      <point x="1065" y="1079" type="curve"/>
      <point x="1093" y="1110" type="line"/>
      <point x="1026" y="1364" type="line"/>
      <point x="921" y="1403"/>
      <point x="779" y="1415"/>
      <point x="690" y="1415" type="curve" smooth="yes"/>
      <point x="400" y="1415"/>
      <point x="248" y="1288"/>
      <point x="248" y="1112" type="curve" smooth="yes"/>
      <point x="248" y="881"/>
      <point x="508" y="749"/>
      <point x="630" y="700" type="curve" smooth="yes"/>
      <point x="747" y="653"/>
      <point x="949" y="597"/>
      <point x="949" y="453" type="curve" smooth="yes"/>
      <point x="949" y="327"/>
      <point x="794" y="212"/>
      <point x="598" y="212" type="curve" smooth="yes"/>
      <point x="455" y="212"/>
      <point x="359" y="273"/>
      <point x="359" y="385" type="curve" smooth="yes"/>
      <point x="359" y="513"/>
      <point x="484" y="701"/>
      <point x="733" y="701" type="curve"/>
      <point x="361" y="899" type="line"/>
      <point x="354" y="862" type="line"/>
      <point x="180" y="803"/>
      <point x="71" y="663"/>
      <point x="71" y="502" type="curve" smooth="yes"/>
      <point x="71" y="366"/>
      <point x="149" y="239"/>
      <point x="246" y="150" type="curve" smooth="yes"/>
      <point x="366" y="40"/>
      <point x="537" y="-33"/>
      <point x="736" y="-33" type="curve" smooth="yes"/>
      <point x="1021" y="-33"/>
      <point x="1257" y="117"/>
      <point x="1257" y="372" type="curve" smooth="yes"/>
      <point x="1257" y="606"/>
      <point x="1055" y="753"/>
      <point x="867" y="824" type="curve" smooth="yes"/>
      <point x="605" y="923"/>
      <point x="548" y="946"/>
      <point x="548" y="1008" type="curve" smooth="yes"/>
    </contour>
    <contour>
      <point x="653" y="24" type="move" name="blwmRUKAR"/>
    </contour>
    <contour>
      <point x="670" y="-308" type="move" name="blwmNUKTA"/>
    </contour>
    <contour>
      <point x="674" y="1340" type="move" name="abvmBINDU"/>
    </contour>
    <contour>
      <point x="846" y="1363" type="move" name="abvmTOP"/>
    </contour>
    <contour>
      <point x="630" y="0" type="move" name="blwmBOTTOM"/>
    </contour>
    <contour>
      <point x="30" y="0" type="move" name="blwmNUKTA2"/>
    </contour>
  </outline>
</glyph>
<glyph name="gjDda" format="1">
  <advance width="1260"/>
  <unicode hex="0AA1"/>
  <outline>
    <contour>
      <point x="1218" y="527"/>
      <point x="1048" y="670"/>
      <point x="865" y="807" type="curve" smooth="yes"/>
      <point x="835" y="830"/>
      <point x="811" y="850"/>
      <point x="811" y="880" type="curve" smooth="yes"/>
      <point x="811" y="898"/>
      <point x="821" y="922"/>
      <point x="879" y="983" type="curve" smooth="yes"/>
      <point x="1100" y="1212" type="line"/>
      <point x="872" y="1426" type="line"/>
      <point x="833" y="1426" type="line"/>
      <point x="626" y="1184" type="line" smooth="yes"/>
      <point x="523" y="1064"/>
      <point x="507" y="1000"/>
      <point x="507" y="948" type="curve" smooth="yes"/>
      <point x="507" y="862"/>
      <point x="550" y="819"/>
      <point x="630" y="757" type="curve" smooth="yes"/>
      <point x="788" y="634"/>
      <point x="912" y="537"/>
      <point x="912" y="414" type="curve" smooth="yes"/>
      <point x="912" y="308"/>
      <point x="820" y="231"/>
      <point x="676" y="231" type="curve" smooth="yes"/>
      <point x="530" y="231"/>
      <point x="353" y="319"/>
      <point x="171" y="549" type="curve"/>
      <point x="56" y="453" type="line"/>
      <point x="212" y="174"/>
      <point x="471" y="-33"/>
      <point x="784" y="-33" type="curve" smooth="yes"/>
      <point x="1040" y="-33"/>
      <point x="1218" y="100"/>
      <point x="1218" y="319" type="curve" smooth="yes"/>
    </contour>
    <contour>
      <point x="674" y="24" type="move" name="blwmRUKAR"/>
    </contour>
    <contour>
      <point x="729" y="-308" type="move" name="blwmNUKTA"/>
    </contour>
    <contour>
      <point x="862" y="1340" type="move" name="abvmBINDU"/>
    </contour>
    <contour>
      <point x="935" y="1363" type="move" name="abvmTOP"/>
    </contour>
    <contour>
      <point x="679" y="0" type="move" name="blwmBOTTOM"/>
    </contour>
    <contour>
      <point x="53" y="-66" type="move" name="blwmNUKTA2"/>
    </contour>
  </outline>
</glyph>
<glyph name="gjRa" format="1">
  <advance width="1173"/>
  <unicode hex="0AB0"/>
  <outline>
    <contour>
      <point x="714" y="414"/>
      <point x="1078" y="607"/>
      <point x="1078" y="888" type="curve" smooth="yes"/>
      <point x="1078" y="1032"/>
      <point x="982" y="1184"/>
      <point x="859" y="1284" type="curve" smooth="yes"/>
      <point x="746" y="1376"/>
      <point x="621" y="1415"/>
      <point x="498" y="1415" type="curve" smooth="yes"/>
      <point x="359" y="1415"/>
      <point x="218" y="1365"/>
      <point x="119" y="1272" type="curve"/>
      <point x="298" y="1033" type="line"/>
      <point x="340" y="1033" type="line"/>
      <point x="437" y="1124"/>
      <point x="540" y="1169"/>
      <point x="653" y="1169" type="curve" smooth="yes"/>
      <point x="753" y="1169"/>
      <point x="804" y="1134"/>
      <point x="804" y="1035" type="curve" smooth="yes"/>
      <point x="804" y="872"/>
      <point x="665" y="728"/>
      <point x="407" y="698" type="curve"/>
      <point x="493" y="637" type="line"/>
      <point x="477" y="824"/>
      <point x="410" y="884"/>
      <point x="332" y="884" type="curve" smooth="yes"/>
      <point x="267" y="884"/>
      <point x="214" y="842"/>
      <point x="165" y="771" type="curve" smooth="yes"/>
      <point x="145" y="742" type="line" smooth="yes"/>
      <point x="100" y="677"/>
      <point x="82" y="614"/>
      <point x="82" y="570" type="curve" smooth="yes"/>
      <point x="82" y="462"/>
      <point x="192" y="405"/>
      <point x="380" y="408" type="curve" smooth="yes"/>
    </contour>
    <contour>
      <point x="926" y="-33"/>
      <point x="1034" y="-15"/>
      <point x="1138" y="23" type="curve"/>
      <point x="1154" y="63" type="line"/>
      <point x="1045" y="319" type="line"/>
      <point x="977" y="282"/>
      <point x="873" y="252"/>
      <point x="791" y="252" type="curve" smooth="yes"/>
      <point x="666" y="252"/>
      <point x="525" y="322"/>
      <point x="492" y="543" type="curve"/>
      <point x="367" y="522" type="line"/>
      <point x="385" y="167"/>
      <point x="555" y="-33"/>
      <point x="840" y="-33" type="curve" smooth="yes"/>
    </contour>
    <contour>
      <point x="250" y="-8" type="move" name="blwmNUKTA"/>
    </contour>
    <contour>
      <point x="588" y="1340" type="move" name="abvmBINDU"/>
    </contour>
    <contour>
      <point x="823" y="1363" type="move" name="abvmTOP"/>
    </contour>
    <contour>
      <point x="740" y="0" type="move" name="blwmBOTTOM"/>
    </contour>
    <contour>
      <point x="811" y="24" type="move" name="blwmRUKAR"/>
    </contour>
  </outline>
</glyph>
<glyph name="gjLla" format="1">
  <advance width="1786"/>
  <unicode hex="0AB3"/>
  <outline>
    <contour>
      <point x="1565" y="838" type="line" smooth="yes"/>
      <point x="1565" y="1036"/>
      <point x="1468" y="1170"/>
      <point x="1368" y="1269" type="curve" smooth="yes"/>
      <point x="1265" y="1370"/>
      <point x="1151" y="1415"/>
      <point x="1037" y="1415" type="curve" smooth="yes"/>
      <point x="869" y="1415"/>
      <point x="693" y="1299"/>
      <point x="693" y="1058" type="curve" smooth="yes"/>
      <point x="693" y="960"/>
      <point x="722" y="849"/>
      <point x="722" y="773" type="curve" smooth="yes"/>
      <point x="722" y="645"/>
      <point x="639" y="525"/>
      <point x="509" y="525" type="curve" smooth="yes"/>
      <point x="366" y="525"/>
      <point x="351" y="670"/>
      <point x="351" y="762" type="curve" smooth="yes"/>
      <point x="351" y="986"/>
      <point x="441" y="1118"/>
      <point x="595" y="1241" type="curve"/>
      <point x="595" y="1283" type="line"/>
      <point x="320" y="1434" type="line"/>
      <point x="131" y="1268"/>
      <point x="59" y="1076"/>
      <point x="59" y="904" type="curve" smooth="yes"/>
      <point x="59" y="706"/>
      <point x="154" y="557"/>
      <point x="264" y="458" type="curve" smooth="yes"/>
      <point x="367" y="365"/>
      <point x="511" y="289"/>
      <point x="660" y="289" type="curve" smooth="yes"/>
      <point x="871" y="289"/>
      <point x="1020" y="440"/>
      <point x="1020" y="687" type="curve" smooth="yes"/>
      <point x="1020" y="787"/>
      <point x="996" y="878"/>
      <point x="996" y="951" type="curve" smooth="yes"/>
      <point x="996" y="1099"/>
      <point x="1095" y="1163"/>
      <point x="1170" y="1163" type="curve" smooth="yes"/>
      <point x="1243" y="1163"/>
      <point x="1250" y="1103"/>
      <point x="1250" y="994" type="curve" smooth="yes"/>
      <point x="1250" y="437" type="line" smooth="yes"/>
      <point x="1250" y="258"/>
      <point x="1276" y="173"/>
      <point x="1345" y="83" type="curve" smooth="yes"/>
      <point x="1415" y="1"/>
      <point x="1492" y="-29"/>
      <point x="1568" y="-29" type="curve" smooth="yes"/>
      <point x="1680" y="-29"/>
      <point x="1794" y="24"/>
      <point x="1884" y="118" type="curve"/>
      <point x="1756" y="373" type="line"/>
      <point x="1714" y="373" type="line"/>
      <point x="1633" y="224" type="line" smooth="yes"/>
      <point x="1617" y="195"/>
      <point x="1605" y="171"/>
      <point x="1592" y="171" type="curve" smooth="yes"/>
      <point x="1573" y="171"/>
      <point x="1565" y="214"/>
      <point x="1565" y="340" type="curve" smooth="yes"/>
    </contour>
    <contour>
      <point x="855" y="0" type="move" name="blwmNUKTA"/>
    </contour>
    <contour>
      <point x="1119" y="1340" type="move" name="abvmBINDU"/>
    </contour>
    <contour>
      <point x="1321" y="1363" type="move" name="abvmTOP"/>
    </contour>
    <contour>
      <point x="1408" y="0" type="move" name="blwmBOTTOM"/>
    </contour>
  </outline>
</glyph>
<glyph name="gjMatraI" format="1">
  <advance width="716"/>
  <unicode hex="0ABF"/>
  <outline>
    <contour>
      <point x="480" y="1323" type="line" smooth="yes"/>
      <point x="480" y="1645"/>
      <point x="637" y="1814"/>
      <point x="926" y="1814" type="curve" smooth="yes"/>
      <point x="1154" y="1814"/>
      <point x="1356" y="1708"/>
      <point x="1638" y="1466" type="curve"/>
      <point x="1710" y="1535" type="line"/>
      <point x="1525" y="1853"/>
      <point x="1224" y="2066"/>
      <point x="836" y="2066" type="curve" smooth="yes"/>
      <point x="444" y="2066"/>
      <point x="164" y="1838"/>
      <point x="164" y="1391" type="curve" smooth="yes"/>
      <point x="164" y="437" type="line" smooth="yes"/>
      <point x="164" y="258"/>
      <point x="190" y="173"/>
      <point x="259" y="83" type="curve" smooth="yes"/>
      <point x="329" y="1"/>
      <point x="406" y="-29"/>
      <point x="482" y="-29" type="curve" smooth="yes"/>
      <point x="594" y="-29"/>
      <point x="708" y="24"/>
      <point x="798" y="118" type="curve"/>
      <point x="670" y="373" type="line"/>
      <point x="628" y="373" type="line"/>
      <point x="547" y="224" type="line" smooth="yes"/>
      <point x="531" y="195"/>
      <point x="519" y="171"/>
      <point x="506" y="171" type="curve" smooth="yes"/>
      <point x="487" y="171"/>
      <point x="480" y="214"/>
      <point x="480" y="340" type="curve" smooth="yes"/>
    </contour>
    <contour>
      <point x="1638" y="1466" type="move" name="abvmTOP"/>
    </contour>
    <contour>
      <point x="1638" y="1466" type="move" name="abvmBINDU"/>
    </contour>
  </outline>
</glyph>
<glyph name="gjMatraIi" format="1">
  <advance width="714"/>
  <unicode hex="0AC0"/>
  <outline>
    <contour>
      <point x="594" y="-29"/>
      <point x="708" y="24"/>
      <point x="798" y="118" type="curve"/>
      <point x="670" y="373" type="line"/>
      <point x="628" y="373" type="line"/>
      <point x="547" y="224" type="line" smooth="yes"/>
      <point x="531" y="195"/>
      <point x="519" y="171"/>
      <point x="506" y="171" type="curve" smooth="yes"/>
      <point x="487" y="171"/>
      <point x="480" y="214"/>
      <point x="480" y="340" type="curve" smooth="yes"/>
      <point x="480" y="1186" type="line" smooth="yes"/>
      <point x="480" y="1614"/>
      <point x="195" y="2066"/>
      <point x="-234" y="2066" type="curve" smooth="yes"/>
      <point x="-437" y="2066"/>
      <point x="-595" y="1965"/>
      <point x="-595" y="1777" type="curve" smooth="yes"/>
      <point x="-595" y="1711"/>
      <point x="-576" y="1633"/>
      <point x="-548" y="1575" type="curve"/>
      <point x="-265" y="1478" type="line"/>
      <point x="-239" y="1509" type="line"/>
      <point x="-261" y="1549"/>
      <point x="-276" y="1618"/>
      <point x="-276" y="1661" type="curve" smooth="yes"/>
      <point x="-276" y="1741"/>
      <point x="-223" y="1814"/>
      <point x="-121" y="1814" type="curve" smooth="yes"/>
      <point x="70" y="1814"/>
      <point x="164" y="1658"/>
      <point x="164" y="1300" type="curve" smooth="yes"/>
      <point x="164" y="437" type="line" smooth="yes"/>
      <point x="164" y="258"/>
      <point x="190" y="173"/>
      <point x="259" y="83" type="curve" smooth="yes"/>
      <point x="329" y="1"/>
      <point x="406" y="-29"/>
      <point x="482" y="-29" type="curve" smooth="yes"/>
    </contour>
    <contour>
      <point x="543" y="1551" type="move" name="abvmBINDU"/>
    </contour>
  </outline>
</glyph>
<glyph name="gjMatraUu" format="1">
  <advance width="0"/>
  <unicode hex="0AC2"/>
  <outline>
    <contour>
      <point x="-277" y="-573"/>
      <point x="-362" y="-609"/>
      <point x="-433" y="-609" type="curve" smooth="yes"/>
      <point x="-501" y="-609"/>
      <point x="-533" y="-576"/>
      <point x="-533" y="-519" type="curve" smooth="yes"/>
      <point x="-533" y="-423"/>
      <point x="-439" y="-381"/>
      <point x="-310" y="-381" type="curve" smooth="yes"/>
      <point x="-134" y="-381"/>
      <point x="38" y="-458"/>
      <point x="219" y="-726" type="curve"/>
      <point x="369" y="-611" type="line"/>
      <point x="167" y="-275"/>
      <point x="-110" y="-129"/>
      <point x="-366" y="-129" type="curve" smooth="yes"/>
      <point x="-620" y="-129"/>
      <point x="-754" y="-273"/>
      <point x="-754" y="-447" type="curve" smooth="yes"/>
      <point x="-754" y="-635"/>
      <point x="-599" y="-848"/>
      <point x="-336" y="-848" type="curve" smooth="yes"/>
      <point x="-233" y="-848"/>
      <point x="-146" y="-815"/>
      <point x="-39" y="-728" type="curve"/>
      <point x="-183" y="-517" type="line"/>
      <point x="-217" y="-517" type="line"/>
    </contour>
    <contour>
      <point x="-392" y="0" type="move" name="_blwmBOTTOM"/>
    </contour>
  </outline>
</glyph>
<glyph name="gjMatraVocalicR" format="1">
  <advance width="0"/>
  <unicode hex="0AC3"/>
  <outline>
    <contour>
      <point x="-680" y="-336"/>
      <point x="-497" y="-596"/>
      <point x="-226" y="-596" type="curve" smooth="yes"/>
      <point x="-122" y="-596"/>
      <point x="12" y="-570"/>
      <point x="134" y="-482" type="curve"/>
      <point x="14" y="-264" type="line"/>
      <point x="-14" y="-264" type="line"/>
      <point x="-99" y="-326"/>
      <point x="-204" y="-371"/>
      <point x="-303" y="-371" type="curve" smooth="yes"/>
      <point x="-394" y="-371"/>
      <point x="-441" y="-320"/>
      <point x="-441" y="-229" type="curve" smooth="yes"/>
      <point x="-441" y="-144"/>
      <point x="-327" y="-59"/>
      <point x="-148" y="-24" type="curve"/>
      <point x="-202" y="179" type="line"/>
      <point x="-531" y="154"/>
      <point x="-680" y="6"/>
      <point x="-680" y="-161" type="curve" smooth="yes"/>
    </contour>
    <contour>
      <point x="-392" y="24" type="move" name="_blwmRUKAR"/>
    </contour>
  </outline>
</glyph>
<glyph name="gjMatraAi" format="1">
  <advance width="0"/>
  <unicode hex="0AC8"/>
  <outline>
    <contour>
      <point x="-971" y="2298"/>
      <point x="-1072" y="2272"/>
      <point x="-1156" y="2240" type="curve"/>
      <point x="-1081" y="2012" type="line"/>
      <point x="-985" y="2035"/>
      <point x="-940" y="2042"/>
      <point x="-895" y="2042" type="curve" smooth="yes"/>
      <point x="-776" y="2042"/>
      <point x="-695" y="1989"/>
      <point x="-625" y="1908" type="curve" smooth="yes"/>
      <point x="-439" y="1692" type="line"/>
      <point x="-448" y="1678" type="line"/>
      <point x="-311" y="1476" type="line"/>
      <point x="-205" y="1607" type="line"/>
      <point x="-468" y="2014" type="line" smooth="yes"/>
      <point x="-593" y="2207"/>
      <point x="-698" y="2298"/>
      <point x="-874" y="2298" type="curve" smooth="yes"/>
    </contour>
    <contour>
      <point x="-1168" y="1934"/>
      <point x="-1276" y="1871"/>
      <point x="-1382" y="1793" type="curve"/>
      <point x="-1257" y="1579" type="line"/>
      <point x="-1135" y="1650"/>
      <point x="-1065" y="1680"/>
      <point x="-968" y="1680" type="curve" smooth="yes"/>
      <point x="-909" y="1680"/>
      <point x="-832" y="1669"/>
      <point x="-761" y="1643" type="curve" smooth="yes"/>
      <point x="-311" y="1476" type="line"/>
      <point x="-259" y="1575" type="line"/>
      <point x="-693" y="1833" type="line" smooth="yes"/>
      <point x="-796" y="1894"/>
      <point x="-914" y="1934"/>
      <point x="-1027" y="1934" type="curve" smooth="yes"/>
    </contour>
    <contour>
      <point x="-392" y="1363" type="move" name="_abvmTOP"/>
    </contour>
    <contour>
      <point x="-113" y="1610" type="move" name="abvmBINDU"/>
    </contour>
  </outline>
</glyph>
<glyph name="gjMatraVocalicLl" format="1">
  <advance width="0"/>
  <unicode hex="0AE3"/>
  <outline>
    <contour>
      <point x="6" y="-828" type="line"/>
      <point x="-42" y="-816"/>
      <point x="-53" y="-788"/>
      <point x="-53" y="-769" type="curve" smooth="yes"/>
      <point x="-53" y="-733"/>
      <point x="-12" y="-689"/>
      <point x="42" y="-632" type="curve" smooth="yes"/>
      <point x="112" y="-557"/>
      <point x="157" y="-505"/>
      <point x="157" y="-412" type="curve" smooth="yes"/>
      <point x="157" y="-255"/>
      <point x="28" y="-132"/>
      <point x="-140" y="-132" type="curve" smooth="yes"/>
      <point x="-336" y="-132"/>
      <point x="-416" y="-301"/>
      <point x="-416" y="-406" type="curve" smooth="yes"/>
      <point x="-416" y="-441"/>
      <point x="-407" y="-484"/>
      <point x="-396" y="-502" type="curve"/>
      <point x="-242" y="-548" type="line"/>
      <point x="-221" y="-526" type="line"/>
      <point x="-225" y="-512"/>
      <point x="-226" y="-504"/>
      <point x="-226" y="-491" type="curve" smooth="yes"/>
      <point x="-226" y="-388"/>
      <point x="-165" y="-320"/>
      <point x="-104" y="-320" type="curve" smooth="yes"/>
      <point x="-72" y="-320"/>
      <point x="-58" y="-338"/>
      <point x="-58" y="-367" type="curve" smooth="yes"/>
      <point x="-58" y="-422"/>
      <point x="-110" y="-488"/>
      <point x="-150" y="-536" type="curve" smooth="yes"/>
      <point x="-190" y="-584"/>
      <point x="-230" y="-633"/>
      <point x="-230" y="-701" type="curve" smooth="yes"/>
      <point x="-230" y="-806"/>
      <point x="-134" y="-905"/>
      <point x="-8" y="-929" type="curve"/>
    </contour>
    <contour>
      <point x="-345" y="-704" type="line"/>
      <point x="-463" y="-620"/>
      <point x="-538" y="-519"/>
      <point x="-538" y="-433" type="curve" smooth="yes"/>
      <point x="-538" y="-381"/>
      <point x="-511" y="-353"/>
      <point x="-466" y="-353" type="curve" smooth="yes"/>
      <point x="-429" y="-353"/>
      <point x="-393" y="-372"/>
      <point x="-364" y="-407" type="curve"/>
      <point x="-301" y="-310" type="line"/>
      <point x="-376" y="-202"/>
      <point x="-458" y="-134"/>
      <point x="-565" y="-134" type="curve" smooth="yes"/>
      <point x="-693" y="-134"/>
      <point x="-797" y="-231"/>
      <point x="-797" y="-377" type="curve" smooth="yes"/>
      <point x="-797" y="-596"/>
      <point x="-564" y="-737"/>
      <point x="-420" y="-803" type="curve"/>
    </contour>
    <contour>
      <point x="195" y="-1163"/>
      <point x="282" y="-1125"/>
      <point x="338" y="-1022" type="curve"/>
      <point x="228" y="-919" type="line"/>
      <point x="209" y="-921" type="line"/>
      <point x="178" y="-967"/>
      <point x="116" y="-1015"/>
      <point x="69" y="-1015" type="curve" smooth="yes"/>
      <point x="44" y="-1015"/>
      <point x="33" y="-1002"/>
      <point x="33" y="-986" type="curve" smooth="yes"/>
      <point x="33" y="-954"/>
      <point x="76" y="-899"/>
      <point x="198" y="-867" type="curve"/>
      <point x="145" y="-721" type="line"/>
      <point x="-36" y="-759"/>
      <point x="-103" y="-854"/>
      <point x="-103" y="-944" type="curve" smooth="yes"/>
      <point x="-103" y="-1051"/>
      <point x="-9" y="-1163"/>
      <point x="120" y="-1163" type="curve" smooth="yes"/>
    </contour>
    <contour>
      <point x="-392" y="0" type="move" name="_blwmBOTTOM"/>
    </contour>
  </outline>
</glyph>
<glyph name="gjZero" format="1">
  <advance width="1365"/>
  <unicode hex="0AE6"/>
  <outline>
    <contour>
      <point x="1043" y="92"/>
      <point x="1288" y="309"/>
      <point x="1288" y="640" type="curve" smooth="yes"/>
      <point x="1288" y="855"/>
      <point x="1184" y="1012"/>
      <point x="1068" y="1116" type="curve" smooth="yes"/>
      <point x="950" y="1222"/>
      <point x="787" y="1302"/>
      <point x="615" y="1302" type="curve" smooth="yes"/>
      <point x="327" y="1302"/>
      <point x="78" y="1077"/>
      <point x="78" y="754" type="curve" smooth="yes"/>
      <point x="78" y="549"/>
      <point x="178" y="391"/>
      <point x="287" y="287" type="curve" smooth="yes"/>
      <point x="399" y="180"/>
      <point x="561" y="92"/>
      <point x="749" y="92" type="curve" smooth="yes"/>
    </contour>
    <contour>
      <point x="456" y="328"/>
      <point x="359" y="452"/>
      <point x="359" y="633" type="curve" smooth="yes"/>
      <point x="359" y="855"/>
      <point x="506" y="1063"/>
      <point x="733" y="1063" type="curve" smooth="yes"/>
      <point x="907" y="1063"/>
      <point x="1009" y="941"/>
      <point x="1009" y="759" type="curve" smooth="yes"/>
      <point x="1009" y="541"/>
      <point x="862" y="328"/>
      <point x="632" y="328" type="curve" smooth="yes"/>
    </contour>
  </outline>
</glyph>
<glyph name="gjTwo" format="1">
  <advance width="1133"/>
  <unicode hex="0AE8"/>
  <outline>
    <contour>
      <point x="648" y="429"/>
      <point x="1019" y="601"/>
      <point x="1019" y="895" type="curve" smooth="yes"/>
      <point x="1019" y="1047"/>
      <point x="925" y="1186"/>
      <point x="806" y="1281" type="curve" smooth="yes"/>
      <point x="712" y="1356"/>
      <point x="586" y="1415"/>
      <point x="441" y="1415" type="curve" smooth="yes"/>
      <point x="308" y="1415"/>
      <point x="187" y="1365"/>
      <point x="88" y="1280" type="curve"/>
      <point x="274" y="1022" type="line"/>
      <point x="316" y="1022" type="line"/>
      <point x="390" y="1106"/>
      <point x="506" y="1169"/>
      <point x="608" y="1169" type="curve" smooth="yes"/>
      <point x="692" y="1169"/>
      <point x="750" y="1127"/>
      <point x="750" y="1031" type="curve" smooth="yes"/>
      <point x="750" y="885"/>
      <point x="603" y="735"/>
      <point x="375" y="717" type="curve"/>
      <point x="467" y="651" type="line"/>
      <point x="451" y="839"/>
      <point x="385" y="898"/>
      <point x="309" y="898" type="curve" smooth="yes"/>
      <point x="248" y="898"/>
      <point x="191" y="861"/>
      <point x="139" y="783" type="curve" smooth="yes"/>
      <point x="121" y="756" type="line" smooth="yes"/>
      <point x="77" y="690"/>
      <point x="58" y="632"/>
      <point x="58" y="587" type="curve" smooth="yes"/>
      <point x="58" y="477"/>
      <point x="173" y="429"/>
      <point x="335" y="429" type="curve" smooth="yes"/>
    </contour>
    <contour>
      <point x="902" y="-33"/>
      <point x="1010" y="-15"/>
      <point x="1114" y="23" type="curve"/>
      <point x="1130" y="63" type="line"/>
      <point x="1021" y="319" type="line"/>
      <point x="953" y="282"/>
      <point x="849" y="252"/>
      <point x="767" y="252" type="curve" smooth="yes"/>
      <point x="642" y="252"/>
      <point x="501" y="325"/>
      <point x="468" y="557" type="curve"/>
      <point x="343" y="536" type="line"/>
      <point x="361" y="172"/>
      <point x="531" y="-33"/>
      <point x="816" y="-33" type="curve" smooth="yes"/>
    </contour>
  </outline>
</glyph>
<glyph name="gjThree" format="1">
  <advance width="1215"/>
  <unicode hex="0AE9"/>
  <outline>
    <contour>
      <point x="930" y="-33"/>
      <point x="1114" y="113"/>
      <point x="1114" y="328" type="curve" smooth="yes"/>
      <point x="1114" y="521"/>
      <point x="966" y="669"/>
      <point x="745" y="742" type="curve"/>
      <point x="655" y="645" type="line"/>
      <point x="781" y="584"/>
      <point x="824" y="515"/>
      <point x="824" y="416" type="curve" smooth="yes"/>
      <point x="824" y="302"/>
      <point x="715" y="223"/>
      <point x="582" y="223" type="curve" smooth="yes"/>
      <point x="408" y="223"/>
      <point x="271" y="325"/>
      <point x="147" y="527" type="curve"/>
      <point x="21" y="454" type="line"/>
      <point x="168" y="143"/>
      <point x="408" y="-33"/>
      <point x="681" y="-33" type="curve" smooth="yes"/>
    </contour>
    <contour>
      <point x="367" y="1415"/>
      <point x="230" y="1347"/>
      <point x="141" y="1266" type="curve"/>
      <point x="309" y="1016" type="line"/>
      <point x="351" y="1016" type="line"/>
      <point x="452" y="1137"/>
      <point x="564" y="1189"/>
      <point x="661" y="1189" type="curve" smooth="yes"/>
      <point x="740" y="1189"/>
      <point x="795" y="1148"/>
      <point x="795" y="1069" type="curve" smooth="yes"/>
      <point x="795" y="928"/>
      <point x="624" y="847"/>
      <point x="419" y="817" type="curve"/>
      <point x="405" y="803" type="line"/>
      <point x="505" y="549" type="line"/>
      <point x="920" y="593"/>
      <point x="1065" y="808"/>
      <point x="1065" y="967" type="curve" smooth="yes"/>
      <point x="1065" y="1076"/>
      <point x="997" y="1205"/>
      <point x="874" y="1298" type="curve" smooth="yes"/>
      <point x="781" y="1368"/>
      <point x="659" y="1415"/>
      <point x="528" y="1415" type="curve" smooth="yes"/>
    </contour>
  </outline>
</glyph>
<glyph name="gjFour" format="1">
  <advance width="1182"/>
  <unicode hex="0AEA"/>
  <outline>
    <contour>
      <point x="629" y="209"/>
      <point x="712" y="279"/>
      <point x="712" y="431" type="curve" smooth="yes"/>
      <point x="712" y="737"/>
      <point x="378" y="1021"/>
      <point x="-93" y="1148" type="curve"/>
      <point x="-103" y="1181" type="line"/>
      <point x="87" y="1422" type="line"/>
      <point x="313" y="1307"/>
      <point x="546" y="1119"/>
      <point x="702" y="944" type="curve" smooth="yes"/>
      <point x="866" y="760"/>
      <point x="987" y="555"/>
      <point x="987" y="337" type="curve" smooth="yes"/>
      <point x="987" y="112"/>
      <point x="857" y="-33"/>
      <point x="685" y="-33" type="curve" smooth="yes"/>
      <point x="574" y="-33"/>
      <point x="454" y="27"/>
      <point x="359" y="116" type="curve" smooth="yes"/>
      <point x="264" y="205"/>
      <point x="186" y="323"/>
      <point x="186" y="468" type="curve" smooth="yes"/>
      <point x="186" y="623"/>
      <point x="282" y="765"/>
      <point x="477" y="947" type="curve" smooth="yes"/>
      <point x="973" y="1410" type="line"/>
      <point x="1013" y="1410" type="line"/>
      <point x="1199" y="1186" type="line"/>
      <point x="651" y="714" type="line" smooth="yes"/>
      <point x="529" y="609"/>
      <point x="452" y="480"/>
      <point x="452" y="352" type="curve" smooth="yes"/>
      <point x="452" y="276"/>
      <point x="485" y="209"/>
      <point x="556" y="209" type="curve" smooth="yes"/>
    </contour>
  </outline>
</glyph>
<glyph name="gjSix" format="1">
  <advance width="1083"/>
  <unicode hex="0AEC"/>
  <outline>
    <contour>
      <point x="940" y="-38"/>
      <point x="1107" y="31"/>
      <point x="1107" y="185" type="curve" smooth="yes"/>
      <point x="1107" y="390"/>
      <point x="811" y="445"/>
      <point x="650" y="462" type="curve" smooth="yes"/>
      <point x="489" y="479"/>
      <point x="411" y="488"/>
      <point x="411" y="546" type="curve" smooth="yes"/>
      <point x="411" y="644"/>
      <point x="663" y="674"/>
      <point x="942" y="674" type="curve"/>
      <point x="971" y="700" type="line"/>
      <point x="862" y="935" type="line"/>
      <point x="458" y="935"/>
      <point x="118" y="843"/>
      <point x="118" y="609" type="curve" smooth="yes"/>
      <point x="118" y="420"/>
      <point x="338" y="324"/>
      <point x="603" y="291" type="curve" smooth="yes"/>
      <point x="755" y="272"/>
      <point x="828" y="274"/>
      <point x="828" y="230" type="curve" smooth="yes"/>
      <point x="828" y="193"/>
      <point x="765" y="153"/>
      <point x="638" y="153" type="curve" smooth="yes"/>
      <point x="565" y="153"/>
      <point x="492" y="166"/>
      <point x="426" y="188" type="curve"/>
      <point x="374" y="60" type="line"/>
      <point x="480" y="-6"/>
      <point x="627" y="-38"/>
      <point x="754" y="-38" type="curve" smooth="yes"/>
    </contour>
    <contour>
      <point x="495" y="824" type="line"/>
      <point x="437" y="874"/>
      <point x="390" y="937"/>
      <point x="390" y="997" type="curve" smooth="yes"/>
      <point x="390" y="1083"/>
      <point x="487" y="1102"/>
      <point x="609" y="1127" type="curve" smooth="yes"/>
      <point x="768" y="1160"/>
      <point x="859" y="1185"/>
      <point x="859" y="1275" type="curve" smooth="yes"/>
      <point x="859" y="1358"/>
      <point x="780" y="1423"/>
      <point x="670" y="1479" type="curve"/>
      <point x="594" y="1443" type="line"/>
      <point x="594" y="1369"/>
      <point x="548" y="1358"/>
      <point x="360" y="1313" type="curve" smooth="yes"/>
      <point x="201" y="1275"/>
      <point x="99" y="1190"/>
      <point x="99" y="1064" type="curve" smooth="yes"/>
      <point x="99" y="922"/>
      <point x="229" y="833"/>
      <point x="422" y="748" type="curve"/>
    </contour>
  </outline>
</glyph>
<glyph name="gjSeven" format="1">
  <advance width="1424"/>
  <unicode hex="0AED"/>
  <outline>
    <contour>
      <point x="1070" y="-33"/>
      <point x="1345" y="217"/>
      <point x="1345" y="604" type="curve" smooth="yes"/>
      <point x="1345" y="1006"/>
      <point x="1047" y="1415"/>
      <point x="672" y="1415" type="curve" smooth="yes"/>
      <point x="443" y="1415"/>
      <point x="305" y="1263"/>
      <point x="305" y="1085" type="curve" smooth="yes"/>
      <point x="305" y="983"/>
      <point x="350" y="861"/>
      <point x="444" y="762" type="curve" smooth="yes"/>
      <point x="521" y="681"/>
      <point x="632" y="616"/>
      <point x="752" y="616" type="curve" smooth="yes"/>
      <point x="904" y="616"/>
      <point x="1032" y="719"/>
      <point x="1032" y="897" type="curve" smooth="yes"/>
      <point x="1032" y="905"/>
      <point x="1032" y="914"/>
      <point x="1031" y="925" type="curve"/>
      <point x="1153" y="939" type="line"/>
      <point x="800" y="1277" type="line"/>
      <point x="853" y="1184"/>
      <point x="865" y="1110"/>
      <point x="865" y="1059" type="curve" smooth="yes"/>
      <point x="865" y="917"/>
      <point x="773" y="846"/>
      <point x="681" y="846" type="curve" smooth="yes"/>
      <point x="598" y="846"/>
      <point x="565" y="905"/>
      <point x="565" y="977" type="curve" smooth="yes"/>
      <point x="565" y="1092"/>
      <point x="648" y="1163"/>
      <point x="775" y="1163" type="curve" smooth="yes"/>
      <point x="971" y="1163"/>
      <point x="1062" y="983"/>
      <point x="1062" y="750" type="curve" smooth="yes"/>
      <point x="1062" y="382"/>
      <point x="841" y="226"/>
      <point x="645" y="226" type="curve" smooth="yes"/>
      <point x="409" y="226"/>
      <point x="223" y="439"/>
      <point x="157" y="732" type="curve"/>
      <point x="12" y="684" type="line"/>
      <point x="84" y="254"/>
      <point x="375" y="-33"/>
      <point x="735" y="-33" type="curve" smooth="yes"/>
    </contour>
  </outline>
</glyph>
<glyph name="gjEight" format="1">
  <advance width="1093"/>
  <unicode hex="0AEE"/>
  <outline>
    <contour>
      <point x="210" y="776" type="line" smooth="yes"/>
      <point x="128" y="667"/>
      <point x="78" y="573"/>
      <point x="78" y="457" type="curve" smooth="yes"/>
      <point x="78" y="306"/>
      <point x="167" y="192"/>
      <point x="275" y="106" type="curve" smooth="yes"/>
      <point x="378" y="24"/>
      <point x="510" y="-34"/>
      <point x="645" y="-34" type="curve" smooth="yes"/>
      <point x="809" y="-34"/>
      <point x="970" y="52"/>
      <point x="1083" y="241" type="curve"/>
      <point x="889" y="437" type="line"/>
      <point x="853" y="437" type="line"/>
      <point x="745" y="282"/>
      <point x="635" y="190"/>
      <point x="528" y="190" type="curve" smooth="yes"/>
      <point x="443" y="190"/>
      <point x="384" y="248"/>
      <point x="384" y="351" type="curve" smooth="yes"/>
      <point x="384" y="447"/>
      <point x="435" y="532"/>
      <point x="494" y="610" type="curve" smooth="yes"/>
      <point x="977" y="1250" type="line"/>
      <point x="707" y="1438" type="line"/>
    </contour>
  </outline>
</glyph>
<glyph name="Germandbls" format="1">
  <advance width="1760"/>
  <unicode hex="1E9E"/>
  <outline>
    <contour>
      <point x="1687" y="437" type="curve" smooth="yes"/>
      <point x="1687" y="770"/>
      <point x="1397" y="932"/>
      <point x="1120" y="996" type="curve"/>
      <point x="1143" y="832" type="line"/>
      <point x="1525" y="1393" type="line"/>
      <point x="1509" y="1465" type="line"/>
      <point x="1316" y="1544"/>
      <point x="1086" y="1591"/>
      <point x="905" y="1591" type="curve" smooth="yes"/>
      <point x="497" y="1591"/>
      <point x="239" y="1360"/>
      <point x="239" y="907" type="curve" smooth="yes"/>
      <point x="239" y="229" type="line" smooth="yes"/>
      <point x="239" y="202"/>
      <point x="227" y="180"/>
      <point x="193" y="173" type="curve" smooth="yes"/>
      <point x="37" y="144" type="line"/>
      <point x="37" y="0" type="line"/>
      <point x="607" y="0" type="line"/>
      <point x="607" y="997" type="line" smooth="yes"/>
      <point x="607" y="1265"/>
      <point x="700" y="1437"/>
      <point x="884" y="1437" type="curve" smooth="yes"/>
      <point x="1011" y="1437"/>
      <point x="1161" y="1352"/>
      <point x="1231" y="1254" type="curve"/>
      <point x="1244" y="1449" type="line"/>
      <point x="887" y="822" type="line"/>
      <point x="921" y="758" type="line"/>
      <point x="1128" y="697"/>
      <point x="1316" y="594"/>
      <point x="1316" y="344" type="curve" smooth="yes"/>
      <point x="1316" y="192"/>
      <point x="1246" y="123"/>
      <point x="1152" y="123" type="curve" smooth="yes"/>
      <point x="1111" y="123"/>
      <point x="1069" y="138"/>
      <point x="1044" y="157" type="curve" smooth="yes"/>
      <point x="1020" y="174"/>
      <point x="1014" y="190"/>
      <point x="1010" y="221" type="curve" smooth="yes"/>
      <point x="975" y="472" type="line"/>
      <point x="764" y="472" type="line"/>
      <point x="741" y="339"/>
      <point x="723" y="169"/>
      <point x="733" y="50" type="curve"/>
      <point x="827" y="7"/>
      <point x="993" y="-30"/>
      <point x="1142" y="-30" type="curve" smooth="yes"/>
      <point x="1475" y="-30"/>
      <point x="1687" y="153"/>
    </contour>
  </outline>
</glyph>
<glyph name="daggerdbl" format="1">
  <advance width="1027"/>
  <unicode hex="2021"/>
  <outline>
    <contour>
      <point x="588" y="-255" type="line"/>
      <point x="702" y="1480" type="line"/>
      <point x="702" y="1671" type="line"/>
      <point x="323" y="1671" type="line"/>
      <point x="323" y="1480" type="line"/>
      <point x="437" y="-255" type="line"/>
    </contour>
    <contour>
      <point x="633" y="480" type="line"/>
      <point x="637" y="513" type="line" smooth="yes"/>
      <point x="641" y="543"/>
      <point x="653" y="562"/>
      <point x="682" y="570" type="curve" smooth="yes"/>
      <point x="951" y="647" type="line"/>
      <point x="951" y="791" type="line"/>
      <point x="512" y="776" type="line"/>
      <point x="73" y="791" type="line"/>
      <point x="73" y="647" type="line"/>
      <point x="343" y="570" type="line" smooth="yes"/>
      <point x="371" y="562"/>
      <point x="384" y="543"/>
      <point x="388" y="513" type="curve" smooth="yes"/>
      <point x="392" y="480" type="line"/>
    </contour>
    <contour>
      <point x="663" y="941" type="line"/>
      <point x="667" y="975" type="line" smooth="yes"/>
      <point x="671" y="1005"/>
      <point x="684" y="1023"/>
      <point x="712" y="1031" type="curve" smooth="yes"/>
      <point x="951" y="1097" type="line"/>
      <point x="951" y="1241" type="line"/>
      <point x="512" y="1226" type="line"/>
      <point x="73" y="1241" type="line"/>
      <point x="73" y="1097" type="line"/>
      <point x="314" y="1031" type="line" smooth="yes"/>
      <point x="342" y="1023"/>
      <point x="354" y="1005"/>
      <point x="358" y="975" type="curve" smooth="yes"/>
      <point x="363" y="941" type="line"/>
    </contour>
  </outline>
</glyph>
<glyph name="bullet" format="1">
  <advance width="959"/>
  <unicode hex="2022"/>
  <outline>
    <contour>
      <point x="769" y="633" type="curve" smooth="yes"/>
      <point x="769" y="799"/>
      <point x="656" y="905"/>
      <point x="479" y="905" type="curve" smooth="yes"/>
      <point x="303" y="905"/>
      <point x="190" y="799"/>
      <point x="190" y="633" type="curve" smooth="yes"/>
      <point x="190" y="467"/>
      <point x="303" y="360"/>
      <point x="479" y="360" type="curve" smooth="yes"/>
      <point x="656" y="360"/>
      <point x="769" y="467"/>
    </contour>
  </outline>
</glyph>
<glyph name="perthousand" format="1">
  <advance width="3015"/>
  <unicode hex="2030"/>
  <outline>
    <contour>
      <point x="671" y="0" type="line"/>
      <point x="1640" y="1562" type="line"/>
      <point x="1403" y="1562" type="line"/>
      <point x="434" y="0" type="line"/>
    </contour>
    <contour>
      <point x="903" y="1143" type="curve" smooth="yes"/>
      <point x="903" y="1402"/>
      <point x="756" y="1573"/>
      <point x="500" y="1573" type="curve" smooth="yes"/>
      <point x="269" y="1573"/>
      <point x="69" y="1419"/>
      <point x="69" y="1115" type="curve" smooth="yes"/>
      <point x="69" y="856"/>
      <point x="216" y="685"/>
      <point x="473" y="685" type="curve" smooth="yes"/>
      <point x="703" y="685"/>
      <point x="903" y="839"/>
    </contour>
    <contour>
      <point x="353" y="1146" type="curve" smooth="yes"/>
      <point x="353" y="1350"/>
      <point x="395" y="1435"/>
      <point x="477" y="1435" type="curve" smooth="yes"/>
      <point x="569" y="1435"/>
      <point x="618" y="1332"/>
      <point x="618" y="1112" type="curve" smooth="yes"/>
      <point x="618" y="908"/>
      <point x="576" y="823"/>
      <point x="494" y="823" type="curve" smooth="yes"/>
      <point x="403" y="823"/>
      <point x="353" y="925"/>
    </contour>
    <contour>
      <point x="2004" y="445" type="curve" smooth="yes"/>
      <point x="2004" y="704"/>
      <point x="1857" y="874"/>
      <point x="1601" y="874" type="curve" smooth="yes"/>
      <point x="1370" y="874"/>
      <point x="1170" y="721"/>
      <point x="1170" y="416" type="curve" smooth="yes"/>
      <point x="1170" y="157"/>
      <point x="1317" y="-14"/>
      <point x="1574" y="-14" type="curve" smooth="yes"/>
      <point x="1804" y="-14"/>
      <point x="2004" y="140"/>
    </contour>
    <contour>
      <point x="1454" y="447" type="curve" smooth="yes"/>
      <point x="1454" y="652"/>
      <point x="1496" y="736"/>
      <point x="1578" y="736" type="curve" smooth="yes"/>
      <point x="1670" y="736"/>
      <point x="1719" y="633"/>
      <point x="1719" y="414" type="curve" smooth="yes"/>
      <point x="1719" y="209"/>
      <point x="1677" y="124"/>
      <point x="1595" y="124" type="curve" smooth="yes"/>
      <point x="1504" y="124"/>
      <point x="1454" y="227"/>
    </contour>
    <contour>
      <point x="2948" y="445" type="curve" smooth="yes"/>
      <point x="2948" y="704"/>
      <point x="2801" y="874"/>
      <point x="2545" y="874" type="curve" smooth="yes"/>
      <point x="2314" y="874"/>
      <point x="2114" y="721"/>
      <point x="2114" y="416" type="curve" smooth="yes"/>
      <point x="2114" y="157"/>
      <point x="2261" y="-14"/>
      <point x="2518" y="-14" type="curve" smooth="yes"/>
      <point x="2748" y="-14"/>
      <point x="2948" y="140"/>
    </contour>
    <contour>
      <point x="2398" y="447" type="curve" smooth="yes"/>
      <point x="2398" y="652"/>
      <point x="2440" y="736"/>
      <point x="2522" y="736" type="curve" smooth="yes"/>
      <point x="2614" y="736"/>
      <point x="2663" y="633"/>
      <point x="2663" y="414" type="curve" smooth="yes"/>
      <point x="2663" y="209"/>
      <point x="2621" y="124"/>
      <point x="2539" y="124" type="curve" smooth="yes"/>
      <point x="2448" y="124"/>
      <point x="2398" y="227"/>
    </contour>
  </outline>
</glyph>
<glyph name="foursuperior" format="1">
  <advance width="1040"/>
  <unicode hex="2074"/>
  <outline>
    <contour>
      <point x="129" y="812" type="line"/>
      <point x="976" y="812" type="line"/>
      <point x="976" y="995" type="line"/>
      <point x="174" y="945" type="line"/>
      <point x="223" y="904" type="line"/>
      <point x="371" y="1019"/>
      <point x="499" y="1160"/>
      <point x="717" y="1580" type="curve"/>
      <point x="679" y="1629" type="line"/>
      <point x="436" y="1629" type="line"/>
      <point x="330" y="1393"/>
      <point x="200" y="1157"/>
      <point x="46" y="921" type="curve"/>
    </contour>
    <contour>
      <point x="556" y="624" type="line"/>
      <point x="807" y="624" type="line"/>
      <point x="807" y="1205" type="line"/>
      <point x="605" y="1205" type="line"/>
      <point x="555" y="938" type="line"/>
    </contour>
  </outline>
</glyph>
<glyph name="trademark" format="1">
  <advance width="2366"/>
  <unicode hex="2122"/>
  <outline>
    <contour>
      <point x="780" y="740" type="line"/>
      <point x="780" y="828" type="line"/>
      <point x="671" y="848" type="line" smooth="yes"/>
      <point x="647" y="853"/>
      <point x="632" y="868"/>
      <point x="632" y="893" type="curve" smooth="yes"/>
      <point x="632" y="1453" type="line"/>
      <point x="717" y="1453" type="line" smooth="yes"/>
      <point x="748" y="1453"/>
      <point x="761" y="1441"/>
      <point x="767" y="1415" type="curve" smooth="yes"/>
      <point x="807" y="1244" type="line"/>
      <point x="911" y="1244" type="line"/>
      <point x="918" y="1359"/>
      <point x="917" y="1467"/>
      <point x="906" y="1562" type="curve"/>
      <point x="112" y="1562" type="line"/>
      <point x="96" y="1467"/>
      <point x="91" y="1367"/>
      <point x="99" y="1244" type="curve"/>
      <point x="204" y="1244" type="line"/>
      <point x="252" y="1417" type="line" smooth="yes"/>
      <point x="259" y="1441"/>
      <point x="274" y="1453"/>
      <point x="303" y="1453" type="curve" smooth="yes"/>
      <point x="383" y="1453" type="line"/>
      <point x="383" y="892" type="line" smooth="yes"/>
      <point x="383" y="867"/>
      <point x="369" y="853"/>
      <point x="345" y="848" type="curve" smooth="yes"/>
      <point x="244" y="828" type="line"/>
      <point x="244" y="740" type="line"/>
    </contour>
    <contour>
      <point x="1298" y="740" type="line"/>
      <point x="1298" y="828" type="line"/>
      <point x="1191" y="846" type="line"/>
      <point x="1275" y="1498" type="line"/>
      <point x="1238" y="1498" type="line"/>
      <point x="1480" y="738" type="line"/>
      <point x="1651" y="738" type="line"/>
      <point x="1878" y="1491" type="line"/>
      <point x="1841" y="1491" type="line"/>
      <point x="1917" y="846" type="line"/>
      <point x="1813" y="828" type="line"/>
      <point x="1813" y="740" type="line"/>
      <point x="2257" y="740" type="line"/>
      <point x="2257" y="828" type="line"/>
      <point x="2189" y="848" type="line" smooth="yes"/>
      <point x="2166" y="854"/>
      <point x="2153" y="868"/>
      <point x="2149" y="892" type="curve" smooth="yes"/>
      <point x="2084" y="1405" type="line" smooth="yes"/>
      <point x="2081" y="1431"/>
      <point x="2095" y="1446"/>
      <point x="2121" y="1451" type="curve" smooth="yes"/>
      <point x="2191" y="1465" type="line"/>
      <point x="2191" y="1562" type="line"/>
      <point x="1773" y="1562" type="line"/>
      <point x="1592" y="953" type="line"/>
      <point x="1646" y="953" type="line"/>
      <point x="1472" y="1562" type="line"/>
      <point x="1017" y="1562" type="line"/>
      <point x="1017" y="1465" type="line"/>
      <point x="1094" y="1450" type="line" smooth="yes"/>
      <point x="1121" y="1445"/>
      <point x="1136" y="1432"/>
      <point x="1132" y="1406" type="curve" smooth="yes"/>
      <point x="1059" y="891" type="line" smooth="yes"/>
      <point x="1054" y="858"/>
      <point x="1043" y="853"/>
      <point x="1021" y="847" type="curve" smooth="yes"/>
      <point x="950" y="828" type="line"/>
      <point x="950" y="740" type="line"/>
    </contour>
  </outline>
</glyph>
